<svg width="326" height="78" viewBox="0 0 326 78" fill="none" xmlns="http://www.w3.org/2000/svg">
<g filter="url(#filter0_d_578_7138)">
<rect x="64" y="5.5" width="258" height="63" rx="20" fill="#FFDEA8"/>
<path d="M119.094 43L116.055 31.7266H117.883L119.953 40.4844H120.055L122.406 31.7266H124.039L126.406 40.4844H126.508L128.57 31.7266H130.391L127.352 43H125.695L123.273 34.5781H123.172L120.75 43H119.094ZM133.781 43.1406C133.245 43.1406 132.763 43.0391 132.336 42.8359C131.914 42.6276 131.581 42.3333 131.336 41.9531C131.091 41.5729 130.969 41.1276 130.969 40.6172V40.6016C130.969 39.8411 131.242 39.2474 131.789 38.8203C132.341 38.388 133.122 38.1406 134.133 38.0781L137.266 37.8906V39.0859L134.367 39.2734C133.784 39.3099 133.354 39.4349 133.078 39.6484C132.802 39.8568 132.664 40.151 132.664 40.5312V40.5469C132.664 40.9323 132.812 41.237 133.109 41.4609C133.406 41.6797 133.781 41.7891 134.234 41.7891C134.656 41.7891 135.031 41.7057 135.359 41.5391C135.693 41.3672 135.953 41.138 136.141 40.8516C136.328 40.5599 136.422 40.2318 136.422 39.8672V37.1953C136.422 36.7266 136.276 36.3698 135.984 36.125C135.698 35.875 135.271 35.75 134.703 35.75C134.229 35.75 133.841 35.8333 133.539 36C133.242 36.1667 133.044 36.401 132.945 36.7031L132.93 36.7266H131.297L131.305 36.6719C131.372 36.2031 131.557 35.7969 131.859 35.4531C132.167 35.1042 132.568 34.8333 133.062 34.6406C133.562 34.4479 134.133 34.3516 134.773 34.3516C135.487 34.3516 136.091 34.4661 136.586 34.6953C137.086 34.9193 137.464 35.2448 137.719 35.6719C137.979 36.0938 138.109 36.6016 138.109 37.1953V43H136.422V41.7969H136.297C136.13 42.0833 135.922 42.3281 135.672 42.5312C135.422 42.7292 135.138 42.8802 134.82 42.9844C134.503 43.0885 134.156 43.1406 133.781 43.1406ZM140.578 43V31.1875H142.273V35.7969H142.406C142.615 35.3438 142.922 34.9896 143.328 34.7344C143.734 34.4792 144.247 34.3516 144.867 34.3516C145.497 34.3516 146.031 34.474 146.469 34.7188C146.906 34.9635 147.24 35.3229 147.469 35.7969C147.698 36.2656 147.812 36.8359 147.812 37.5078V43H146.109V37.9062C146.109 37.1979 145.961 36.6719 145.664 36.3281C145.372 35.9792 144.914 35.8047 144.289 35.8047C143.878 35.8047 143.521 35.8958 143.219 36.0781C142.917 36.2552 142.682 36.5104 142.516 36.8438C142.354 37.1719 142.273 37.5651 142.273 38.0234V43H140.578ZM149.875 45.9297L150.562 41.3359H152.375L151.07 45.9297H149.875ZM162.406 43.1641C161.771 43.1641 161.234 43.0417 160.797 42.7969C160.365 42.5469 160.039 42.1875 159.82 41.7188C159.607 41.2448 159.5 40.6745 159.5 40.0078V34.5156H161.195V39.6094C161.195 40.3073 161.333 40.8307 161.609 41.1797C161.885 41.5286 162.336 41.7031 162.961 41.7031C163.409 41.7031 163.786 41.6146 164.094 41.4375C164.406 41.2552 164.641 41 164.797 40.6719C164.953 40.3385 165.031 39.9453 165.031 39.4922V34.5156H166.734V43H165.031V41.7188H164.906C164.703 42.1719 164.391 42.526 163.969 42.7812C163.547 43.0365 163.026 43.1641 162.406 43.1641ZM172.266 43.1406C171.557 43.1406 170.938 42.9635 170.406 42.6094C169.88 42.25 169.471 41.7422 169.18 41.0859C168.893 40.4297 168.75 39.6562 168.75 38.7656V38.75C168.75 37.8542 168.893 37.0781 169.18 36.4219C169.466 35.7656 169.872 35.2604 170.398 34.9062C170.924 34.5469 171.547 34.3672 172.266 34.3672C172.849 34.3672 173.372 34.5026 173.836 34.7734C174.305 35.0391 174.651 35.401 174.875 35.8594H175V31.1875H176.703V43H175V41.6641H174.875C174.63 42.1276 174.284 42.4896 173.836 42.75C173.388 43.0104 172.865 43.1406 172.266 43.1406ZM172.75 41.6875C173.219 41.6875 173.625 41.5703 173.969 41.3359C174.312 41.1016 174.576 40.7656 174.758 40.3281C174.94 39.8854 175.031 39.3646 175.031 38.7656V38.75C175.031 38.1458 174.938 37.625 174.75 37.1875C174.568 36.75 174.305 36.4141 173.961 36.1797C173.622 35.9401 173.219 35.8203 172.75 35.8203C172.281 35.8203 171.875 35.9401 171.531 36.1797C171.193 36.4141 170.932 36.75 170.75 37.1875C170.573 37.6198 170.484 38.1406 170.484 38.75V38.7656C170.484 39.3698 170.573 39.8906 170.75 40.3281C170.932 40.7656 171.193 41.1016 171.531 41.3359C171.875 41.5703 172.281 41.6875 172.75 41.6875ZM181.547 43.1406C181.01 43.1406 180.529 43.0391 180.102 42.8359C179.68 42.6276 179.346 42.3333 179.102 41.9531C178.857 41.5729 178.734 41.1276 178.734 40.6172V40.6016C178.734 39.8411 179.008 39.2474 179.555 38.8203C180.107 38.388 180.888 38.1406 181.898 38.0781L185.031 37.8906V39.0859L182.133 39.2734C181.549 39.3099 181.12 39.4349 180.844 39.6484C180.568 39.8568 180.43 40.151 180.43 40.5312V40.5469C180.43 40.9323 180.578 41.237 180.875 41.4609C181.172 41.6797 181.547 41.7891 182 41.7891C182.422 41.7891 182.797 41.7057 183.125 41.5391C183.458 41.3672 183.719 41.138 183.906 40.8516C184.094 40.5599 184.188 40.2318 184.188 39.8672V37.1953C184.188 36.7266 184.042 36.3698 183.75 36.125C183.464 35.875 183.036 35.75 182.469 35.75C181.995 35.75 181.607 35.8333 181.305 36C181.008 36.1667 180.81 36.401 180.711 36.7031L180.695 36.7266H179.062L179.07 36.6719C179.138 36.2031 179.323 35.7969 179.625 35.4531C179.932 35.1042 180.333 34.8333 180.828 34.6406C181.328 34.4479 181.898 34.3516 182.539 34.3516C183.253 34.3516 183.857 34.4661 184.352 34.6953C184.852 34.9193 185.229 35.2448 185.484 35.6719C185.745 36.0938 185.875 36.6016 185.875 37.1953V43H184.188V41.7969H184.062C183.896 42.0833 183.688 42.3281 183.438 42.5312C183.188 42.7292 182.904 42.8802 182.586 42.9844C182.268 43.0885 181.922 43.1406 181.547 43.1406ZM188.344 43V31.1875H190.039V35.7969H190.172C190.38 35.3438 190.688 34.9896 191.094 34.7344C191.5 34.4792 192.013 34.3516 192.633 34.3516C193.263 34.3516 193.797 34.474 194.234 34.7188C194.672 34.9635 195.005 35.3229 195.234 35.7969C195.464 36.2656 195.578 36.8359 195.578 37.5078V43H193.875V37.9062C193.875 37.1979 193.727 36.6719 193.43 36.3281C193.138 35.9792 192.68 35.8047 192.055 35.8047C191.643 35.8047 191.286 35.8958 190.984 36.0781C190.682 36.2552 190.448 36.5104 190.281 36.8438C190.12 37.1719 190.039 37.5651 190.039 38.0234V43H188.344ZM202.375 43V31.1875H204.07V43H202.375ZM209.422 43.1641C208.786 43.1641 208.25 43.0417 207.812 42.7969C207.38 42.5469 207.055 42.1875 206.836 41.7188C206.622 41.2448 206.516 40.6745 206.516 40.0078V34.5156H208.211V39.6094C208.211 40.3073 208.349 40.8307 208.625 41.1797C208.901 41.5286 209.352 41.7031 209.977 41.7031C210.424 41.7031 210.802 41.6146 211.109 41.4375C211.422 41.2552 211.656 41 211.812 40.6719C211.969 40.3385 212.047 39.9453 212.047 39.4922V34.5156H213.75V43H212.047V41.7188H211.922C211.719 42.1719 211.406 42.526 210.984 42.7812C210.562 43.0365 210.042 43.1641 209.422 43.1641ZM216.188 43V34.5156H217.883V35.8203H218.016C218.203 35.3516 218.495 34.9896 218.891 34.7344C219.292 34.4792 219.771 34.3516 220.328 34.3516C220.714 34.3516 221.06 34.4141 221.367 34.5391C221.674 34.6641 221.938 34.8411 222.156 35.0703C222.38 35.2943 222.555 35.5599 222.68 35.8672H222.812C222.953 35.5599 223.151 35.2943 223.406 35.0703C223.661 34.8411 223.958 34.6641 224.297 34.5391C224.641 34.4141 225.005 34.3516 225.391 34.3516C225.964 34.3516 226.453 34.4635 226.859 34.6875C227.266 34.9062 227.576 35.224 227.789 35.6406C228.003 36.0573 228.109 36.5599 228.109 37.1484V43H226.414V37.5547C226.414 36.9714 226.279 36.5339 226.008 36.2422C225.742 35.9505 225.333 35.8047 224.781 35.8047C224.422 35.8047 224.107 35.888 223.836 36.0547C223.57 36.2161 223.362 36.4349 223.211 36.7109C223.065 36.9818 222.992 37.2891 222.992 37.6328V43H221.297V37.3828C221.297 36.8984 221.148 36.5156 220.852 36.2344C220.56 35.9479 220.164 35.8047 219.664 35.8047C219.326 35.8047 219.021 35.8932 218.75 36.0703C218.484 36.2474 218.273 36.487 218.117 36.7891C217.961 37.0859 217.883 37.4193 217.883 37.7891V43H216.188ZM232.812 43.1406C232.276 43.1406 231.794 43.0391 231.367 42.8359C230.945 42.6276 230.612 42.3333 230.367 41.9531C230.122 41.5729 230 41.1276 230 40.6172V40.6016C230 39.8411 230.273 39.2474 230.82 38.8203C231.372 38.388 232.154 38.1406 233.164 38.0781L236.297 37.8906V39.0859L233.398 39.2734C232.815 39.3099 232.385 39.4349 232.109 39.6484C231.833 39.8568 231.695 40.151 231.695 40.5312V40.5469C231.695 40.9323 231.844 41.237 232.141 41.4609C232.438 41.6797 232.812 41.7891 233.266 41.7891C233.688 41.7891 234.062 41.7057 234.391 41.5391C234.724 41.3672 234.984 41.138 235.172 40.8516C235.359 40.5599 235.453 40.2318 235.453 39.8672V37.1953C235.453 36.7266 235.307 36.3698 235.016 36.125C234.729 35.875 234.302 35.75 233.734 35.75C233.26 35.75 232.872 35.8333 232.57 36C232.273 36.1667 232.076 36.401 231.977 36.7031L231.961 36.7266H230.328L230.336 36.6719C230.404 36.2031 230.589 35.7969 230.891 35.4531C231.198 35.1042 231.599 34.8333 232.094 34.6406C232.594 34.4479 233.164 34.3516 233.805 34.3516C234.518 34.3516 235.122 34.4661 235.617 34.6953C236.117 34.9193 236.495 35.2448 236.75 35.6719C237.01 36.0938 237.141 36.6016 237.141 37.1953V43H235.453V41.7969H235.328C235.161 42.0833 234.953 42.3281 234.703 42.5312C234.453 42.7292 234.169 42.8802 233.852 42.9844C233.534 43.0885 233.188 43.1406 232.812 43.1406ZM240.078 45.9844C239.974 45.9844 239.862 45.9792 239.742 45.9688C239.622 45.9635 239.508 45.9557 239.398 45.9453V44.6094C239.482 44.6198 239.573 44.6276 239.672 44.6328C239.776 44.638 239.875 44.6406 239.969 44.6406C240.365 44.6406 240.685 44.5469 240.93 44.3594C241.174 44.1771 241.359 43.8724 241.484 43.4453L241.609 43.0078L238.531 34.5156H240.367L242.766 42.1641L242.234 41.2891H242.883L242.359 42.1641L244.75 34.5156H246.539L243.383 43.3203C243.143 43.9974 242.878 44.5286 242.586 44.9141C242.294 45.3047 241.948 45.5807 241.547 45.7422C241.146 45.9036 240.656 45.9844 240.078 45.9844ZM250.297 43.1406C249.76 43.1406 249.279 43.0391 248.852 42.8359C248.43 42.6276 248.096 42.3333 247.852 41.9531C247.607 41.5729 247.484 41.1276 247.484 40.6172V40.6016C247.484 39.8411 247.758 39.2474 248.305 38.8203C248.857 38.388 249.638 38.1406 250.648 38.0781L253.781 37.8906V39.0859L250.883 39.2734C250.299 39.3099 249.87 39.4349 249.594 39.6484C249.318 39.8568 249.18 40.151 249.18 40.5312V40.5469C249.18 40.9323 249.328 41.237 249.625 41.4609C249.922 41.6797 250.297 41.7891 250.75 41.7891C251.172 41.7891 251.547 41.7057 251.875 41.5391C252.208 41.3672 252.469 41.138 252.656 40.8516C252.844 40.5599 252.938 40.2318 252.938 39.8672V37.1953C252.938 36.7266 252.792 36.3698 252.5 36.125C252.214 35.875 251.786 35.75 251.219 35.75C250.745 35.75 250.357 35.8333 250.055 36C249.758 36.1667 249.56 36.401 249.461 36.7031L249.445 36.7266H247.812L247.82 36.6719C247.888 36.2031 248.073 35.7969 248.375 35.4531C248.682 35.1042 249.083 34.8333 249.578 34.6406C250.078 34.4479 250.648 34.3516 251.289 34.3516C252.003 34.3516 252.607 34.4661 253.102 34.6953C253.602 34.9193 253.979 35.2448 254.234 35.6719C254.495 36.0938 254.625 36.6016 254.625 37.1953V43H252.938V41.7969H252.812C252.646 42.0833 252.438 42.3281 252.188 42.5312C251.938 42.7292 251.654 42.8802 251.336 42.9844C251.018 43.0885 250.672 43.1406 250.297 43.1406ZM257.016 43V34.5156H258.711V35.7969H258.844C259.052 35.3438 259.359 34.9896 259.766 34.7344C260.172 34.4792 260.685 34.3516 261.305 34.3516C262.258 34.3516 262.987 34.625 263.492 35.1719C263.997 35.7188 264.25 36.4974 264.25 37.5078V43H262.547V37.9062C262.547 37.1979 262.398 36.6719 262.102 36.3281C261.81 35.9792 261.352 35.8047 260.727 35.8047C260.315 35.8047 259.958 35.8958 259.656 36.0781C259.354 36.2552 259.12 36.5104 258.953 36.8438C258.792 37.1719 258.711 37.5651 258.711 38.0234V43H257.016ZM267.219 39.2656L267.055 31.7188H268.961L268.805 39.2656H267.219ZM268.016 43.1719C267.651 43.1719 267.357 43.0651 267.133 42.8516C266.914 42.638 266.805 42.3568 266.805 42.0078C266.805 41.6536 266.914 41.3698 267.133 41.1562C267.357 40.9375 267.651 40.8281 268.016 40.8281C268.375 40.8281 268.664 40.9375 268.883 41.1562C269.107 41.3698 269.219 41.6536 269.219 42.0078C269.219 42.3568 269.107 42.638 268.883 42.8516C268.664 43.0651 268.375 43.1719 268.016 43.1719Z" fill="#0F2D3E"/>
<rect x="4" y="2" width="70" height="70" rx="35" fill="#FFDEA8"/>
<path d="M38.374 43.8924C38.1576 43.7142 37.5021 43.1437 37.4483 42.1455C37.3944 41.1473 37.5602 40.969 37.6647 40.7907C37.7691 40.6125 38.1637 40.2861 38.8549 40.1966C39.3939 40.1767 39.7067 40.2124 40.088 40.3328C40.261 40.3875 40.4289 40.4635 40.5689 40.5788C41.07 40.9914 41.1882 41.582 41.1392 42.2524C41.067 43.2388 40.49 43.7242 40.0211 44.0112C39.2464 44.4855 38.5904 44.0707 38.374 43.8924Z" fill="#212121"/>
<path d="M32.6512 39.1392V39.1392C33.4811 39.8153 33.199 41.1467 32.1662 41.4281L32.0621 41.4565" stroke="#0F2D3E" stroke-width="3" stroke-linecap="round"/>
<path d="M45.5635 39.1392V39.1392C44.7336 39.8153 45.0157 41.1467 46.0485 41.4281L46.1526 41.4565" stroke="#0F2D3E" stroke-width="3" stroke-linecap="round"/>
<path d="M39.2998 26.9419C46.8805 26.9419 52.869 32.0646 53.4072 37.5981C53.4067 40.3771 52.9422 43.0821 50.9697 45.0972C48.9955 47.114 45.4802 48.4722 39.2998 48.4722C33.1164 48.4722 29.6308 47.2109 27.6875 45.2915C25.7478 43.3755 25.312 40.7709 25.3115 37.9907C25.8622 32.5544 31.7289 26.9419 39.2998 26.9419Z" fill="#FFFBF6" stroke="#0F2D3E" stroke-width="0.3" stroke-linejoin="round"/>
<path d="M35.9334 26.8153L36.0777 27.2432L37.1958 27.0292L38.7467 26.9223H39.3959L40.7304 26.9698L42.4496 27.1481L42.63 26.9223C42.7007 26.8206 42.7289 26.7521 42.7743 26.6252C42.8311 26.4827 42.8511 26.3933 42.8704 26.2212C42.8803 26.0635 42.8879 25.978 42.8704 25.7815C42.861 25.6875 42.8508 25.632 42.8103 25.52C42.7501 25.3983 42.7077 25.3307 42.618 25.211C42.5379 25.1201 42.4865 25.0717 42.3655 24.9971C42.2304 24.9309 42.159 24.8915 41.9687 24.8545C41.795 24.8267 41.6976 24.8196 41.5239 24.8545C41.3955 24.877 41.3248 24.9054 41.1993 24.9615L40.8867 25.1278L40.7495 25.2113C40.6505 25.2715 40.5218 25.2456 40.4539 25.1516L40.3096 24.9258C40.2565 24.8456 40.2189 24.8044 40.1413 24.7357C39.9945 24.6296 39.9159 24.5673 39.7205 24.498C39.6362 24.4669 39.5878 24.4512 39.4921 24.4386C39.3465 24.4249 39.2649 24.4208 39.1194 24.4386C39.0116 24.4557 38.9511 24.4564 38.8429 24.5099C38.7371 24.5563 38.6787 24.5895 38.5784 24.6763C38.4471 24.7895 38.3754 24.8619 38.2538 25.0209C38.1204 25.1874 37.889 25.2387 37.6977 25.1442L37.6166 25.1041C37.4479 25.011 37.3403 24.9916 37.1717 24.9734C36.998 24.9553 36.9006 24.9512 36.7269 24.9734C36.4511 25.0253 36.2895 25.078 36.0777 25.3774C35.9424 25.601 35.8742 25.7236 35.8492 26.0785C35.8429 26.3984 35.8599 26.5609 35.9334 26.8153Z" fill="#FFFBF6" stroke="#0F2D3E" stroke-width="0.3"/>
<path d="M32.2424 37.8436C32.4588 37.7485 32.6752 37.7129 32.8195 37.7129C33.0571 37.7248 33.1562 37.7179 33.3846 37.8198C33.613 37.9218 33.652 37.9823 33.8655 38.2001" stroke="#0F2D3E" stroke-width="0.3" stroke-linecap="round"/>
<path d="M45.852 38.0814C45.6356 37.9863 45.4192 37.9507 45.2749 37.9507C45.0373 37.9626 44.9383 37.9557 44.7099 38.0576C44.4814 38.1596 44.4425 38.22 44.229 38.4379" stroke="#0F2D3E" stroke-width="0.3" stroke-linecap="round"/>
<path d="M47.7382 48.4439C47.7618 47.9752 47.7571 47.7124 47.7382 47.2437C46.9134 47.5119 46.4234 47.6568 45.5193 47.9091C45.464 48.3695 45.4072 48.7369 45.466 49.1569C45.5655 49.5555 45.6668 49.8937 45.8627 50.0958C46.1392 50.381 46.4158 50.5473 46.8606 50.4879C47.3415 50.3215 47.4368 50.0824 47.5819 49.6561C47.7086 49.1124 47.7412 48.8476 47.7382 48.4439Z" fill="#FFFBF6" stroke="#0F2D3E" stroke-width="0.3" stroke-linecap="round"/>
<path d="M31.0201 48.3962C30.9965 47.9274 31.0012 47.8667 31.0201 47.3979L33.2923 47.9803C33.3477 48.4406 33.2923 48.6814 33.2442 49.1211C33.1601 49.4657 33.1721 49.6083 32.8956 50.048C32.6789 50.3927 32.3425 50.4996 31.8977 50.4402C31.4529 50.3808 31.2966 50.0005 31.1764 49.6083C31.0497 49.0647 31.0535 49.0617 31.0201 48.3962Z" fill="#FFFBF6" stroke="#0F2D3E" stroke-width="0.3" stroke-linecap="round"/>
<path d="M37.376 41.7177C37.3989 41.0427 37.5548 40.7356 38.2536 40.3986C39.1274 40.0461 39.9248 40.1728 40.3335 40.3986C40.7423 40.6243 41.0789 41.0878 41.115 41.7177C41.1511 42.3475 40.9348 43.1675 40.5381 43.6072C40.1113 44.0802 39.576 44.4034 39.0471 44.2846C38.5183 44.1657 38.4133 43.9399 38.1695 43.631C37.9257 43.322 37.353 42.3926 37.376 41.7177Z" fill="#0F2D3E" stroke="#0F2D3E" stroke-linecap="round"/>
<ellipse cx="31.6413" cy="40.6364" rx="1.76732" ry="0.926933" fill="#FFC1C3"/>
<ellipse cx="46.8138" cy="40.6364" rx="1.76732" ry="0.926933" fill="#FFC1C3"/>
<path d="M32.6272 39.1152L34.1845 40.3689C34.3739 40.5213 34.3128 40.8239 34.0792 40.8909L32.026 41.4801" stroke="#0F2D3E" stroke-width="0.3" stroke-linecap="round"/>
<path d="M45.5875 39.1392L44.0302 40.3928C43.8408 40.5452 43.9019 40.8478 44.1355 40.9148L46.1887 41.504" stroke="#0F2D3E" stroke-width="0.3" stroke-linecap="round"/>
<path d="M40.3577 27.814C40.778 28.9867 41.3125 29.3566 42.7382 29.5609" stroke="#F5E3CD" stroke-width="0.3" stroke-linecap="round"/>
<path d="M38.951 28.0635C38.733 28.862 38.795 29.3211 39.2516 30.155" stroke="#F5E3CD" stroke-width="0.3" stroke-linecap="round"/>
<path d="M37.8089 27.9087C37.017 28.8658 36.464 29.2531 35.3082 29.715" stroke="#F5E3CD" stroke-width="0.3" stroke-linecap="round"/>
<path d="M37.4483 42.2525C37.316 41.7415 37.3881 41.2424 37.4483 41.1592C37.5084 41.0761 37.9532 41.0998 37.9532 41.0998C37.9532 41.0998 38.2951 41.1086 38.5062 41.1592C38.7113 41.2084 38.8306 41.2415 39.0112 41.3494C39.2641 41.5005 39.3237 41.5395 39.5402 41.8842C39.7566 42.2288 39.8407 42.8943 39.8408 43.227C39.8408 43.5598 39.6844 44.2015 39.5763 44.2728C39.4681 44.3441 39.0353 44.3203 38.7587 44.2015C38.4822 44.0826 38.1696 43.6667 38.0494 43.4885C37.9292 43.3102 37.5805 42.7635 37.4483 42.2525Z" fill="#FFC1C3" stroke="#FFC1C3" stroke-linecap="round"/>
<path d="M23.7382 28.2558L25.767 29.3507C26.2189 29.5946 26.0543 30.203 25.545 30.1373C24.7989 30.0412 24.0344 29.8954 23.1717 29.7418C22.8752 29.689 22.686 29.3876 22.7889 29.1045C22.8912 28.8234 22.9956 28.6015 23.1375 28.3863C23.2676 28.1892 23.5304 28.1437 23.7382 28.2558Z" fill="white" stroke="#0F2D3E" stroke-width="0.3" stroke-linecap="round"/>
<path d="M52.4743 25.1052L50.9377 27.8816C50.7083 28.2961 50.1184 28.1813 50.1006 27.7073C50.0667 26.8056 50.1187 25.8875 50.1596 24.8205C50.1699 24.5515 50.3901 24.337 50.6595 24.3441C51.1768 24.3577 51.8005 24.3993 52.2613 24.5168C52.5202 24.5829 52.6034 24.872 52.4743 25.1052Z" fill="white" stroke="#0F2D3E" stroke-width="0.3" stroke-linecap="round"/>
<path d="M55.2215 27.6514L52.444 29.2229C52.029 29.4577 51.5852 29.0547 51.8207 28.6419C52.2687 27.8562 52.7986 27.1008 53.3977 26.2129C53.5487 25.9891 53.8503 25.9204 54.0767 26.0661C54.5105 26.3452 55.02 26.7031 55.3504 27.0414C55.5359 27.2314 55.4542 27.5197 55.2215 27.6514Z" fill="white" stroke="#0F2D3E" stroke-width="0.3" stroke-linecap="round"/>
<path d="M56.2024 31.2234L52.941 30.9977C52.4409 30.9631 52.32 30.3587 52.7814 30.1667C53.5928 29.8289 54.5059 29.4763 55.4207 29.0711C55.6683 28.9615 55.9624 29.0607 56.0792 29.3039C56.2985 29.7605 56.5395 30.32 56.6436 30.7753C56.7039 31.0392 56.475 31.2422 56.2024 31.2234Z" fill="white" stroke="#0F2D3E" stroke-width="0.3" stroke-linecap="round"/>
<path d="M25.962 25.5012L26.9559 27.57C27.1768 28.0299 26.6832 28.4229 26.3092 28.0735C25.7609 27.5615 25.2275 26.9984 24.6189 26.3716C24.41 26.1565 24.4345 25.8043 24.6845 25.6358C24.9348 25.467 25.1514 25.3476 25.3942 25.2556C25.6174 25.1709 25.8596 25.2881 25.962 25.5012Z" fill="white" stroke="#0F2D3E" stroke-width="0.3" stroke-linecap="round"/>
<path d="M29.1656 24.5765L29.1656 27.6094C29.1656 28.1252 28.5863 28.2432 28.4265 27.7514C28.1156 26.7949 27.8458 25.7384 27.5561 24.7605C27.4712 24.4738 27.6511 24.1717 27.949 24.1327C28.2543 24.0927 28.5051 24.0826 28.7677 24.1097C29.0021 24.1339 29.1656 24.3427 29.1656 24.5765Z" fill="white" stroke="#0F2D3E" stroke-width="0.3" stroke-linecap="round"/>
<path d="M23.5381 35.0747C24.4299 34.697 25.0246 34.6993 26.171 34.8965C26.3502 34.9154 26.3656 34.964 26.3393 35.0747L26.171 35.7283C26.1026 35.8671 26.1548 35.9304 26.4235 36.0135C26.732 36.091 27.0264 36.2095 27.6618 36.4889C27.9299 36.5952 27.9769 36.6941 27.8422 36.9524L27.4574 37.3445C27.3054 37.4755 27.2879 37.557 27.3613 37.7129C27.6265 38.1588 27.8013 38.6993 27.8422 38.9013C27.8831 39.1033 27.9298 39.1761 27.6618 39.2459L27.2531 39.3172C27.0387 39.3343 26.9876 39.3922 26.9645 39.543L27.0246 40.7908L27.0242 40.8C27.0163 40.9768 27.0117 41.0787 26.7601 41.1236H26.2552C26.0678 41.1336 26.0074 41.1834 25.9426 41.3137C25.8521 41.4449 25.8002 41.5657 25.7021 41.9792C25.6528 42.1862 25.5664 42.2571 25.3655 42.3476C25.1482 42.3757 25.0224 42.3774 24.7884 42.3476C24.4972 42.3213 24.3277 42.2642 24.007 42.0386C23.8234 41.9188 23.7207 41.909 23.5381 41.9792L22.6845 42.4783C22.4469 42.5528 22.3275 42.5458 22.1675 42.3476L21.7106 41.7415C21.6061 41.6365 21.5316 41.6047 21.362 41.6108L20.6046 41.6702C20.4522 41.6571 20.4036 41.6091 20.3881 41.4444L20.328 40.4105C20.2834 40.1927 20.2329 40.0902 19.9072 40.0897H19.4143C19.1791 40.1002 19.0536 40.0303 19.1618 39.7926L19.4864 38.9013C19.5511 38.7141 19.5653 38.6155 19.3061 38.521L18.6689 38.2358C18.5062 38.0906 18.4587 38.0097 18.5367 37.8674C18.9505 37.1397 19.1679 36.7139 19.9072 36.3819C20.0845 36.2684 20.1213 36.1877 20.0756 36.0135C20.0575 35.8394 20.02 35.6699 19.9072 35.253C19.8954 35.072 19.9586 34.9981 20.328 34.9678L21.4702 34.6826C21.9953 34.5611 22.2937 34.5837 22.8408 34.9678C23.0862 35.2149 23.2418 35.2161 23.5381 35.0747Z" fill="#F3C430" stroke="#0F2D3E" stroke-width="0.3"/>
<path d="M50.2884 37.3801L51.2502 36.2986C51.4405 36.0758 51.4934 35.9885 51.5507 35.8589C51.5366 35.4853 51.4185 35.1103 51.6589 35.0152C51.8994 34.9201 52.1365 35.0362 52.3322 34.7537C52.4384 34.5839 52.528 34.558 52.741 34.6349C53.0415 34.6071 53.27 34.6349 53.5104 34.5636C53.7509 34.4923 53.8527 34.5402 53.9793 34.6943L54.34 35.1103C54.5311 35.2691 54.6816 35.2673 54.9892 35.1816C55.8296 34.9813 56.3369 34.9379 57.2735 34.9201C57.5253 34.8882 57.6063 34.9159 57.5741 35.0984L57.4779 35.7044C57.4238 35.945 57.4779 35.954 57.8025 36.0847C58.1271 36.2154 59.1971 36.6908 59.1971 36.6908C59.4877 36.8253 59.6115 36.9058 59.3775 37.1067L58.8605 37.5108C58.7898 37.5625 58.8605 37.5108 58.9927 37.8198C59.125 38.1287 59.3174 38.6695 59.3775 39.0319C59.4376 39.3943 59.39 39.3147 59.2572 39.329H58.8605C58.637 39.3174 58.6922 39.3765 58.6922 39.5785V40.8382C58.674 41.1091 58.6315 41.2014 58.4758 41.2185H57.9949C57.7529 41.2228 57.6479 41.2604 57.5741 41.4562L57.1773 42.0504C56.9946 42.279 56.8423 42.3294 56.468 42.2643L55.8308 42.0504C55.5731 41.9529 55.4426 41.9494 55.2417 42.0504L54.2919 42.5614C54.0919 42.6157 54.0104 42.5803 53.8831 42.4782L53.3782 41.9315C53.1748 41.7559 53.0517 41.6934 52.8011 41.7057H52.1038C51.9287 41.7191 51.8935 41.6534 51.8994 41.4562V40.5768C51.9031 40.3466 51.8564 40.2605 51.6589 40.2084L51.0578 40.1252C50.8402 40.0422 50.7731 39.9604 50.8174 39.7093L51.0578 38.7586C51.0606 38.5947 51.0172 38.5252 50.8895 38.4258L50.2884 37.9861C50.1086 37.7495 50.0919 37.6168 50.2884 37.3801Z" fill="#F3C430" stroke="#0F2D3E" stroke-width="0.3"/>
<path d="M36.5622 27.5609C36.4345 27.5701 36.3265 27.2927 36.1189 26.6829C38.2599 26.1888 40.3671 26.2564 42.546 26.5731C42.5372 26.7963 42.2254 27.1118 42.0697 27.5609H36.5622Z" fill="#FFFBF6"/>
</g>
<defs>
<filter id="filter0_d_578_7138" x="0" y="0" width="326" height="78" filterUnits="userSpaceOnUse" color-interpolation-filters="sRGB">
<feFlood flood-opacity="0" result="BackgroundImageFix"/>
<feColorMatrix in="SourceAlpha" type="matrix" values="0 0 0 0 0 0 0 0 0 0 0 0 0 0 0 0 0 0 127 0" result="hardAlpha"/>
<feOffset dy="2"/>
<feGaussianBlur stdDeviation="2"/>
<feComposite in2="hardAlpha" operator="out"/>
<feColorMatrix type="matrix" values="0 0 0 0 0 0 0 0 0 0 0 0 0 0 0 0 0 0 0.25 0"/>
<feBlend mode="normal" in2="BackgroundImageFix" result="effect1_dropShadow_578_7138"/>
<feBlend mode="normal" in="SourceGraphic" in2="effect1_dropShadow_578_7138" result="shape"/>
</filter>
</defs>
</svg>
