<svg width="348" height="191" viewBox="0 0 348 191" fill="none" xmlns="http://www.w3.org/2000/svg">
<path d="M180.854 131.948C175.354 135.948 173.167 140.462 171.354 148.448H336.5C338.5 135.448 333.5 126 329 121.948C324.521 117.916 329 105.448 323.5 97.9481C320.118 94.1512 318.336 92.5467 311.854 90.9481C307.55 90.5974 305.142 90.5599 300.854 91.4481C300.854 91.4481 295.354 92.4481 290.354 97.9481C285.354 103.448 287.128 114.118 289.354 116.448C291.58 118.779 292.732 119.589 295.854 120.448C299.103 120.419 300.64 119.909 302.854 117.948C302.567 119.586 302.292 120.493 300.354 121.948C297.328 122.916 295.524 123.108 291.854 121.948C289.248 120.966 287.902 120.004 285.854 116.948C284.552 113.533 283.414 111.885 279.854 109.948C275.414 108.122 272.904 107.635 268.354 108.948C263.317 110.822 260.917 112.625 257.854 117.948C254.298 117.361 252.253 117.228 248.354 117.448C243.527 117.91 240.977 118.776 236.854 121.448C232.1 125.108 230.435 127.876 228.354 133.448C224.611 133.758 222.571 134.286 219.854 135.448C216.57 137.176 215.139 138.458 212.854 140.948C212.854 140.948 212.144 138.948 206.354 132.948C200.564 126.948 186.354 127.948 180.854 131.948Z" fill="#FE9B39"/>
<path d="M134.999 109.545C141.294 101.731 151.837 97.2818 157.499 96.0451C163.162 94.8084 166.325 94.7056 171.999 95.5448C180.202 97.2428 184.142 98.8647 189.999 103.045C198.493 110.042 201.342 114.646 204.499 123.545C207.363 133.53 206.551 138.776 204.499 148.045H197.499H3.99953C7.73993 147.367 3.99953 139 12 135.545C15.5 131.5 11 130.045 11 125.545C12.1795 122.62 12.15 122.387 14.499 121.045C16.4914 120.202 17.6753 119.835 19.999 119.545C23.1474 119.222 22.3249 117.056 22.499 115.545C22.9515 111.617 24.791 109.511 27.999 107.045C32.0555 104.214 34.4332 103.002 38.999 102.045C43.5228 101.068 46.0384 101.026 50.499 102.045C55.139 103.554 57.1728 104.935 59.499 108.545C60.909 111.497 60.999 116.045 59.999 118.045C58.999 120.045 57.4767 121.412 54.999 122.545C53.0332 123.334 51.7162 123.553 48.499 123.045C46.5681 122.526 45.7227 121.961 44.999 120.045C44.6585 117.758 45.2733 116.937 46.499 115.545C44.9647 115.653 44.326 116.96 43.999 118.045C43.6719 119.13 43.4956 120.566 43.999 122.045C44.5643 123.706 45.6351 124.515 46.8989 125.469L46.999 125.545C50.499 128.045 57.499 127.045 59.499 125.045C61.499 123.045 62.4507 121.539 62.999 117.545C63.3903 116.012 63.985 115.514 65.999 115.545C67.2581 115.57 67.9442 115.619 68.999 116.045C72.0966 117.441 73.2571 118.81 74.499 122.045C75.8191 121.569 76.5729 121.4 77.999 121.545C79.6503 121.762 80.5414 122.026 81.999 123.045C83.3868 124.26 84.004 125.052 84.999 126.545C82.5167 126.265 80.499 126.045 77.999 127.045C75.499 128.045 74.4278 129.663 74.499 132.045C74.562 134.156 76.499 136.045 77.499 136.545C78.499 137.045 79.499 136.545 79.499 136.545C79.499 136.545 80.2822 136.011 80.499 135.545C78.694 135.456 77.8605 135.266 77.499 134.045C77.1175 132.358 78.499 130.545 78.999 130.045C79.499 129.545 81.999 127.545 84.999 129.045C87.999 130.545 87.4369 131.178 88.999 132.545C88.999 132.545 93.1311 124.182 98.7964 121.165C103.157 118.844 106.999 117.545 110.796 117.165C114.594 116.786 122.203 118.518 127.999 122.045C127.999 122.045 128.704 117.359 134.999 109.545Z" fill="#F83C40"/>
<path d="M41.8538 83.4484C37.5658 84.3645 34.5786 84.1933 29.8538 81.4482C25.8283 79.7654 24.724 78.308 24.3725 75.1254C24.3595 75.0084 24.3373 74.8903 24.3058 74.7768C23.4906 71.8407 23.4617 70.1053 24.3141 67.0876C24.3401 66.9955 24.3742 66.9029 24.4138 66.8157C25.8265 63.7128 26.8419 62.5637 29.3666 61.6214C29.684 61.503 29.9705 61.3129 30.2129 61.0762C33.2857 58.0756 37.9304 57.9673 39.8538 58.4482C41.761 58.925 42.6856 60.2674 44.138 59.5659C44.2844 59.4952 44.4125 59.3906 44.5262 59.2743C45.9337 57.8339 46.9508 56.4291 49.3538 55.9482C52.1765 55.3828 54.7822 56.2823 55.854 56.9483C57.3222 57.8607 57.854 58.4483 58.354 59.9483C58.8411 61.8043 60.2128 61.2339 61.8538 60.9482C64.7833 60.5038 65.8744 61.4065 67.8538 62.9482C69.614 64.4986 70.354 65.4484 70.3538 67.4482C70.3537 69.448 67.2093 72.7896 64.5501 73.5894M49.8538 69.9482C47.9932 71.7585 49.3538 73.4482 50.3538 73.4482C51.3538 73.4482 52.8538 71.9482 56.3538 72.9482C59.8538 73.9482 58.8538 71.9482 60.3538 70.4482C61.4508 69.3512 60.1411 68.2542 59.3581 67.744C59.0376 67.5351 58.7637 67.263 58.5289 66.961C58.0007 66.2818 57.2933 65.9676 55.3538 65.9482M55.3538 65.9482C54.3764 65.9769 53.6862 66.0307 53.0359 66.2728C52.2637 66.5603 51.4055 66.63 50.6442 66.3148C49.7741 65.9546 49.0017 65.8821 47.8538 65.9482C45.9451 66.0288 44.9664 66.3997 43.3538 67.4482C41.8487 68.6897 41.5827 69.4846 41.3538 70.9482C41.1504 72.4713 41.3253 73.3254 41.7714 74.6976C41.8255 74.8639 41.9022 75.0233 42.0015 75.1674C43.1048 76.7693 44.0041 77.2339 45.8538 77.4482C47.8382 77.6309 48.8538 77.9482 51.3538 78.4482C53.8538 78.9482 55.5292 78.1296 57.8538 76.9482C59.2797 76.1693 60.0711 75.6037 61.1669 74.1931C61.2919 74.0321 61.4352 73.8824 61.6136 73.7838C62.5463 73.2684 63.7336 73.3868 65.9471 73.8599C66.215 73.9172 66.4946 73.9199 66.7639 73.8704C71.4155 73.015 73.6231 73.5599 75.9374 75.281C76.7705 75.9005 77.9217 75.8845 78.7359 75.2405C81.7489 72.8569 84.3804 72.5459 89.1785 73.4161C89.2939 73.437 89.4107 73.4697 89.5207 73.5104C91.922 74.4004 93.8236 74.8642 95.68 74.8502C97.6197 74.8356 98.9712 76.7732 97.0382 76.9346V76.9346C96.9374 76.943 96.8007 76.9431 96.7 76.9337C89.324 76.243 86.8284 76.926 84.4581 79.3408C84.3887 79.4115 84.3133 79.4796 84.2347 79.5398C80.6543 82.2793 78.3163 83.0132 73.3538 81.9482C68.2305 81.0207 65.5059 81.4828 60.8538 83.9482C56.4348 85.9672 54.8538 86.9482 50.3538 86.9482C46.3817 86.9482 43.0369 84.9707 41.0654 82.1258C40.5931 81.4443 39.8082 81.0277 38.9794 81.049C35.3815 81.1416 33.7472 79.6816 32.8538 77.4482C31.8538 74.9482 31.8556 73.2608 32.3538 70.4482C32.9334 67.53 34.3538 64.9482 36.8538 63.9482C39.0288 63.0782 40.323 63.2445 42.3768 63.7179C42.9921 63.8597 43.6346 63.7031 44.1268 63.3075C45.6379 62.0933 46.8959 61.462 50.3538 61.9482C53.1878 62.6183 54.3271 63.4466 55.3538 65.9482Z" stroke="#F3C430" stroke-width="1.5" stroke-linejoin="round"/>
<path d="M269.354 56.4479C267.132 55.8158 265.993 56.2005 264.555 59.0397C264.42 59.3059 264.234 59.5491 263.994 59.7253C261.406 61.6196 259.455 60.8756 255.854 58.4479C250.909 54.9125 248.765 55.9736 244.854 57.4479C248.558 56.5545 250.592 56.584 253.854 60.9479C256.537 63.9186 257.737 63.9709 259.854 63.9479C263.153 63.7419 264.736 64.1442 267.127 65.3337C267.278 65.4089 267.419 65.5059 267.547 65.6166C270.811 68.4459 272.956 69.075 276.839 68.0856C277.177 67.9996 277.477 67.811 277.741 67.5844C278.89 66.6004 279.602 66.897 280.698 67.8156C280.802 67.9027 280.915 67.9818 281.033 68.0473C284.025 69.702 285.813 70.4303 289.104 69.0552C289.27 68.9859 289.424 68.888 289.568 68.7811C290.712 67.9351 291.318 68.2381 292.206 69.2722C292.305 69.3877 292.416 69.4955 292.538 69.5865C295.302 71.649 297.289 72.1271 301.115 71.9591C301.273 71.9522 301.431 71.9256 301.582 71.88C304.016 71.147 305.948 70.2894 307.354 67.9479C307.895 67.0465 308.354 65.448 308.354 65.448M269.354 56.4479C270.299 57.1416 270.784 57.6789 271.082 58.4492C271.315 59.0538 271.079 59.7225 270.621 60.1808V60.1808C269.723 61.0784 268.221 60.8935 267.568 59.8049L267.354 59.4479M269.354 56.4479C269.591 54.4261 270.192 53.5224 272.354 52.4479M294.354 63.9479C294.159 61.2269 294.559 59.8382 296.334 58.58C296.936 58.1528 297.762 57.743 298.495 57.6518C299.794 57.49 301.864 57.453 302.854 57.9479C303.719 58.3808 305.207 59.5373 306.24 60.5004C307.016 61.2235 307.841 62.6417 308.135 63.6609C308.286 64.1826 308.388 64.7931 308.354 65.448M294.354 63.9479C295.268 66.7443 297.354 67.448 299.354 66.9479C301.354 66.4479 301.595 64.8218 301.354 63.9479M294.354 63.9479C293.446 65.0185 292.667 65.3337 290.854 65.4479C289.133 65.412 288.231 65.2486 287.185 64.6488C286.963 64.5216 286.778 64.341 286.629 64.1329L285.266 62.2255C284.731 61.4755 283.752 61.1887 282.896 61.531L282.625 61.6395C282.131 61.837 281.576 61.8351 281.097 61.6056C279.656 60.9159 278.895 60.2903 278.055 59.2119C277.92 59.0387 277.819 58.8408 277.753 58.6314C277.176 56.7977 277.005 55.8094 277.854 54.9479M308.354 65.448C311.391 65.6811 312.076 65.9253 316.134 64.5244C316.278 64.4745 316.419 64.4066 316.548 64.3243C318.41 63.135 319.387 62.3487 320.354 59.4479C320.854 56.948 320.854 54.948 319.854 52.9479C317.85 49.6575 316.294 48.3229 312.315 47.9823C312.013 47.9564 311.716 47.8681 311.45 47.7218C308.962 46.355 307.449 46.0529 304.854 46.9479M304.854 46.9479C304.784 45.6901 304.348 45.0751 303.494 44.1058C303.401 44.0008 303.297 43.9052 303.183 43.8245C302.402 43.2726 301.809 43.013 301.143 42.9315C300.363 42.8359 299.609 42.5042 299.176 41.8475C297.896 39.9048 296.531 38.6765 293.519 37.037C293.41 36.9781 293.294 36.9286 293.176 36.8916C289.964 35.8809 288.106 35.7244 284.854 36.4479C280.949 37.5806 279.535 38.833 278.007 40.9906C277.593 41.5754 276.912 41.9054 276.196 41.9198C273.895 41.9661 272.145 42.6565 270.854 43.9479C269.354 45.448 269.142 47.8188 270.354 49.9479C271.03 51.0843 271.451 51.6605 272.354 52.4479M304.854 46.9479C304.85 48.7789 304.354 49.9479 302.854 50.9479C301.586 51.793 300.419 51.5393 299.4 50.8603C299.031 50.6147 298.807 50.2113 298.72 49.7769V49.7769C298.515 48.753 299.15 47.7488 300.163 47.4956L300.354 47.4479M272.354 52.4479C273.696 53.0387 274.508 53.1429 275.542 53.0488C276.064 53.0012 276.607 53.1118 276.927 53.5274C277.164 53.8363 277.444 54.2743 277.854 54.9479M286.354 51.9479C286.792 52.4417 287.108 52.7097 286.078 53.7328C285.932 53.878 285.759 53.994 285.571 54.0776C284.614 54.5026 283.91 54.6532 282.622 54.486C282.444 54.4629 282.27 54.4121 282.109 54.3329C280.431 53.507 279.854 52.3802 279.854 50.9479C279.854 49.5097 280.497 48.7843 281.696 48.0435C281.801 47.9792 281.912 47.9258 282.028 47.8859C282.846 47.6033 283.46 47.5445 284.181 47.6598C284.915 47.777 285.639 47.5399 286.308 47.2158C286.735 47.009 287.198 46.9463 287.854 46.9479C290.24 47.2597 291.675 47.9481 292.354 49.9479C292.915 51.5998 292.352 53.0113 291.442 54.3228C291.384 54.4065 291.318 54.4849 291.247 54.5577C289.847 55.9897 288.943 56.7845 285.854 57.4479C283.609 57.7294 282.206 57.5693 279.777 57.0413C279.499 56.9807 279.233 56.8621 279.014 56.6803C278.315 56.1023 278.061 55.6733 277.854 54.9479" stroke="#F3C430" stroke-width="1.5" stroke-linejoin="round"/>
<circle cx="68.354" cy="85.948" r="6.5" fill="#F86E28"/>
<circle cx="78.354" cy="92.948" r="6.5" fill="#F86E28"/>
<circle cx="68.354" cy="94.948" r="6.5" fill="#F86E28"/>
<circle cx="74.354" cy="103.948" r="6.5" fill="#F86E28"/>
<circle cx="62.354" cy="103.948" r="6.5" fill="#F86E28"/>
<circle cx="58.354" cy="92.948" r="6.5" fill="#F86E28"/>
<path d="M66.8101 92.1996C67.2961 90.704 69.412 90.704 69.8979 92.1996C70.1152 92.8685 70.7385 93.3214 71.4418 93.3214C73.0144 93.3214 73.6682 95.3337 72.396 96.258C71.827 96.6714 71.589 97.4041 71.8063 98.073C72.2922 99.5686 70.5804 100.812 69.3082 99.888C68.7392 99.4746 67.9688 99.4746 67.3998 99.888C66.1276 100.812 64.4158 99.5686 64.9017 98.073C65.1191 97.4041 64.881 96.6714 64.312 96.258C63.0398 95.3337 63.6936 93.3214 65.2662 93.3214C65.9695 93.3214 66.5928 92.8685 66.8101 92.1996Z" fill="#F3C430"/>
<path d="M106.496 44.9403C110.87 37.2921 117.623 37.3863 134.668 42.6356C134.677 44.8755 134.82 46.5761 135.242 50.1257C125.609 53.003 110.52 54.7348 108.221 54.1588C105.921 53.5828 105.358 52.4483 105.346 49.5495C105.502 47.3957 105.762 46.3917 106.496 44.9403Z" fill="#F3C430" stroke="black"/>
<path d="M235.281 45.2035C230.906 37.5553 224.154 37.6494 207.109 42.8988C207.1 45.1386 206.956 46.8393 206.534 50.3889C216.167 53.2662 231.256 54.998 233.556 54.422C235.855 53.846 236.418 52.7115 236.43 49.8127C236.275 47.6588 236.014 46.6549 235.281 45.2035Z" fill="#F3C430" stroke="black"/>
<path d="M252.562 118.12C250.112 116.828 248.887 115.794 246.18 113.598L238.38 107.267L246.18 100.484C249.691 100.806 251.545 101.311 254.754 102.486C257.393 103.388 258.71 104.013 260.878 105.264C263.605 106.747 264.81 107.719 266.744 109.851C268.678 112.306 268.936 113.367 269 115.859C269 117.99 268.742 119.024 266.55 120.381C265.003 121.338 262.741 121.491 260.297 121.091C256.873 120.169 255.085 119.614 252.562 118.12Z" fill="#FFFBF6" stroke="black" stroke-width="2"/>
<path d="M88.3092 117.99C91.718 116.102 93.2028 114.98 94.82 112.822L100.042 107.331L95.8514 100.29C92.3408 100.613 89.4546 101.311 86.2464 102.486C83.607 103.388 82.2901 104.013 80.1224 105.264C77.3954 106.747 76.1901 107.719 74.2562 109.851C72.3223 112.306 72.0638 113.367 72 115.859C72 117.99 72.2578 119.024 74.4496 120.381C75.9967 121.338 78.2592 121.492 80.7025 121.091C84.1265 120.169 85.7864 119.485 88.3092 117.99Z" fill="#FFFBF6" stroke="black" stroke-width="2"/>
<path d="M170.113 46.1202C210.679 46.1202 242.698 73.9169 245.566 103.895C245.56 118.978 243.062 133.614 232.544 144.509C222.011 155.418 203.226 162.792 170.113 162.792C136.98 162.792 118.358 155.942 107.993 145.563C97.6509 135.206 95.3094 121.118 95.3043 106.024C98.2437 76.5656 129.615 46.1204 170.113 46.1202Z" fill="#FFFBF6" stroke="black" stroke-width="2" stroke-linejoin="round"/>
<path d="M152.063 45.2494L152.837 47.575L158.832 46.4122L167.148 45.8308H170.629L177.784 46.0892L187.003 47.0582L187.97 45.8308C188.349 45.2778 188.5 44.9056 188.743 44.2158C189.048 43.4409 189.155 42.9553 189.259 42.0194C189.312 41.1621 189.352 40.6975 189.259 39.6291C189.208 39.1186 189.153 38.8169 188.936 38.2079C188.614 37.5462 188.386 37.1785 187.905 36.5283C187.476 36.0342 187.2 35.771 186.551 35.3655C185.827 35.0053 185.444 34.7912 184.424 34.5902C183.493 34.4388 182.97 34.4003 182.039 34.5902C181.35 34.7124 180.972 34.8669 180.298 35.1716L178.622 36.0761L177.892 36.5267C177.36 36.8548 176.664 36.7142 176.302 36.2053L175.528 34.9778C175.244 34.5419 175.042 34.3177 174.626 33.9442C173.839 33.3674 173.417 33.0291 172.369 32.6522C171.918 32.4829 171.658 32.3979 171.145 32.3292C170.364 32.2549 169.927 32.2327 169.146 32.3292C168.568 32.4223 168.244 32.426 167.664 32.7168C167.096 32.9694 166.783 33.1493 166.245 33.6212C165.542 34.2369 165.157 34.6302 164.505 35.4947C163.792 36.3976 162.542 36.6754 161.514 36.1599L161.088 35.9469C160.184 35.4409 159.607 35.3354 158.703 35.2362C157.772 35.1379 157.25 35.1161 156.318 35.2362C154.84 35.5184 153.973 35.8052 152.837 37.4327C152.112 38.648 151.746 39.3147 151.612 41.2441C151.578 42.9827 151.669 43.8662 152.063 45.2494Z" fill="#FFFBF6" stroke="black" stroke-width="2"/>
<path d="M147.867 49.5497L146.741 45.9449C160.148 42.7029 173.343 43.5533 186.986 45.6315L184.659 48.6877L147.867 49.5497Z" fill="#FFFBF6"/>
<ellipse cx="130.468" cy="121.221" rx="9.60504" ry="4.71587" fill="#FFC1C3"/>
<ellipse cx="210.532" cy="121.221" rx="9.60504" ry="4.71587" fill="#FFC1C3"/>
<ellipse cx="138.977" cy="115.729" rx="6.12402" ry="6.07249" fill="black"/>
<ellipse cx="200.862" cy="116.246" rx="6.12402" ry="6.07249" fill="black"/>
<path d="M132.273 105.2C133.434 104.683 134.594 104.489 135.367 104.489C136.641 104.554 137.172 104.516 138.397 105.07C139.622 105.625 139.831 105.953 140.976 107.138" stroke="black" stroke-width="2" stroke-linecap="round"/>
<path d="M205.246 106.491C204.085 105.975 202.925 105.781 202.151 105.781C200.877 105.846 200.347 105.808 199.122 106.362C197.897 106.917 197.688 107.245 196.543 108.43" stroke="black" stroke-width="2" stroke-linecap="round"/>
<path d="M215.359 162.824C215.486 160.275 215.461 158.847 215.359 156.299C210.937 157.757 208.31 158.545 203.462 159.917C203.165 162.419 202.86 164.416 203.176 166.7C203.709 168.866 204.253 170.705 205.303 171.803C206.786 173.354 208.268 174.258 210.654 173.935C213.232 173.031 213.743 171.731 214.521 169.413C215.2 166.458 215.375 165.018 215.359 162.824Z" fill="#FFFBF6" stroke="black" stroke-width="2" stroke-linecap="round"/>
<path d="M125.719 162.565C125.593 160.017 125.618 159.687 125.719 157.139L137.903 160.304C138.199 162.806 137.903 164.116 137.645 166.506C137.194 168.379 137.258 169.155 135.775 171.545C134.613 173.418 132.81 174 130.425 173.677C128.04 173.354 127.202 171.286 126.557 169.155C125.878 166.199 125.899 166.183 125.719 162.565Z" fill="#FFFBF6" stroke="black" stroke-width="2" stroke-linecap="round"/>
<path d="M175.24 51.8543C177.421 58.0103 180.194 59.9522 187.591 61.0246" stroke="#F5E3CD" stroke-width="2" stroke-linecap="round"/>
<path d="M167.941 53.1645C166.81 57.3565 167.132 59.7663 169.501 64.1439" stroke="#F5E3CD" stroke-width="2" stroke-linecap="round"/>
<path d="M162.015 52.3534C157.907 57.3778 155.038 59.4106 149.041 61.8356" stroke="#F5E3CD" stroke-width="2" stroke-linecap="round"/>
<path d="M205.959 54.7351C176.317 44.4683 160.938 44.1859 135.817 54.7351C133.831 45.2782 133.247 36.2981 139.842 28.808C140.392 28.1829 140.967 27.5699 141.567 26.9712C137.188 22.5024 136.642 19.4373 138.117 13.2517L139.842 6.91394C140.751 4.82359 142.101 5.23994 142.717 6.33778C143.332 7.43562 148.607 16.1969 148.574 16.7086C149.653 13.672 151.356 10.8797 155.365 6.91394C159.79 3.25472 166.289 1.15234 171.463 1.15234C176.638 1.15234 182.387 3.45698 185.836 6.91394C188.821 9.90476 191.319 13.8831 193.104 19.0361L192.736 17.861L192.895 17.5792C194.681 14.4184 195.729 12.5619 198.485 8.06625C199.91 6.29207 200.785 6.33778 201.36 8.06625C201.935 10.3709 201.726 11.9477 202.509 14.404C204.12 21.5012 203.41 24.1625 200.375 27.4754C200.72 27.9127 201.048 28.3572 201.36 28.808C206.534 36.2981 208.768 43.7503 205.959 54.7351Z" fill="#F83C40"/>
<path d="M147.007 22.4702C153.141 18.3036 161.141 15.5563 171.463 15.5563C180.989 15.5563 188.413 17.896 193.885 21.5317M147.007 22.4702C147.537 20.288 147.952 18.4578 148.574 16.7086M147.007 22.4702C144.999 23.834 143.191 25.3499 141.567 26.9712M193.885 21.5317C192.086 15.1471 189.286 10.3709 185.836 6.91394C182.387 3.45698 176.638 1.15234 171.463 1.15234C166.289 1.15234 159.79 3.25472 155.365 6.91394C151.356 10.8797 149.653 13.672 148.574 16.7086M193.885 21.5317C196.484 23.258 198.642 25.2765 200.375 27.4754M193.885 21.5317L192.736 17.861C194.62 14.525 195.649 12.6938 198.485 8.06625C199.91 6.29207 200.785 6.33778 201.36 8.06625C201.935 10.3709 201.726 11.9477 202.509 14.404C204.12 21.5012 203.41 24.1625 200.375 27.4754M148.574 16.7086C148.607 16.1969 143.332 7.43562 142.717 6.33778C142.101 5.23994 140.751 4.82359 139.842 6.91394L138.117 13.2517C136.642 19.4373 137.188 22.5024 141.567 26.9712M141.567 26.9712C140.967 27.5699 140.392 28.1829 139.842 28.808C133.247 36.2981 133.831 45.2782 135.817 54.7351C160.938 44.1859 176.317 44.4683 205.959 54.7351C208.768 43.7503 206.534 36.2981 201.36 28.808C201.048 28.3572 200.72 27.9127 200.375 27.4754" stroke="black" stroke-width="2"/>
<path d="M108.221 45.5166C109.741 39.3917 116.335 39.3034 134.093 42.6358C133.991 44.2768 133.967 45.1017 134.093 46.0927C134.187 47.4173 134.093 47.8212 134.668 48.9735C125.681 51.5203 112.82 52.4307 110.52 52.4306C108.221 52.4304 107.857 51.8163 107.646 49.5498C107.747 47.7163 107.895 46.8791 108.221 45.5166Z" fill="#F83C40"/>
<path d="M233.556 45.7798C232.036 39.6548 225.441 39.5665 207.684 42.8989C207.785 44.54 207.809 45.3648 207.684 46.3559C207.59 47.6805 207.684 48.0844 207.109 49.2367C216.096 51.7835 228.956 52.6939 231.256 52.6937C233.556 52.6936 233.92 52.0795 234.131 49.8129C234.03 47.9795 233.882 47.1423 233.556 45.7798Z" fill="#F83C40"/>
<path d="M160.343 42.2296C146.97 44.772 143.317 47.0655 136.392 51.3186L136.963 54.159C162.816 43.7793 177.436 43.4186 205.964 54.159L206.534 50.1825C197.081 44.9713 192.278 43.3656 183.724 42.2295C171.705 40.8461 167.64 41.7141 160.343 42.2296Z" fill="#F3C430"/>
<path d="M205.959 53.5828C206.368 51.96 206.565 50.9774 207.109 47.2451" stroke="black"/>
<path d="M172.038 25.851C174.936 25.851 177.288 28.2058 177.288 31.1127C177.288 34.0196 174.936 36.3745 172.038 36.3745C169.14 36.3743 166.789 34.0195 166.789 31.1127C166.789 28.2059 169.14 25.8512 172.038 25.851Z" fill="#F3C430" stroke="black"/>
<ellipse cx="170.313" cy="31.6887" rx="1.7248" ry="1.72848" fill="white"/>
<ellipse cx="172.613" cy="28.2318" rx="0.574928" ry="0.576159" fill="white"/>
<path d="M146.623 22.4702C152.758 18.3036 160.758 15.5563 171.08 15.5563C180.605 15.5563 188.03 17.896 193.502 21.5317M146.623 22.4702C147.153 20.288 147.568 18.4578 148.19 16.7086M146.623 22.4702C144.615 23.834 142.807 25.3499 141.183 26.9712M193.502 21.5317C191.702 15.1471 188.902 10.3709 185.453 6.91394C182.003 3.45698 176.254 1.15234 171.08 1.15234C165.905 1.15234 159.406 3.25472 154.982 6.91394C150.973 10.8797 149.27 13.672 148.19 16.7086M193.502 21.5317C196.1 23.258 198.258 25.2765 199.992 27.4754M193.502 21.5317L192.352 17.861C194.237 14.525 195.265 12.6938 198.101 8.06625C199.527 6.29207 200.401 6.33778 200.976 8.06625C201.551 10.3709 201.342 11.9477 202.126 14.404C203.737 21.5012 203.027 24.1625 199.992 27.4754M148.19 16.7086C148.223 16.1969 142.949 7.43562 142.333 6.33778C141.717 5.23994 140.367 4.82359 139.458 6.91394L137.734 13.2517C136.258 19.4373 136.805 22.5024 141.183 26.9712M141.183 26.9712C140.583 27.5699 140.009 28.1829 139.458 28.808C132.864 36.2981 133.448 45.2782 135.434 54.7351C160.555 44.1859 175.933 44.4683 205.576 54.7351C208.385 43.7503 206.151 36.2981 200.976 28.808C200.665 28.3572 200.337 27.9127 199.992 27.4754" stroke="black"/>
<path d="M106.496 44.9405C110.87 37.2923 117.328 37.2958 134.373 42.5451C134.382 44.785 134.525 46.4855 134.947 50.0351C125.314 52.9123 110.52 54.735 108.221 54.159C105.921 53.583 105.358 52.4485 105.346 49.5498C105.502 47.3959 105.762 46.3919 106.496 44.9405Z" stroke="black" stroke-width="2"/>
<path d="M236.085 45.2637C231.71 37.6155 225.304 37.6036 208.259 42.853C208.25 45.0928 208.106 46.7934 207.684 50.3429C217.317 53.2202 232.06 55.0582 234.36 54.4822C236.66 53.9062 237.223 52.7717 237.235 49.8729C237.079 47.7191 236.818 46.7151 236.085 45.2637Z" stroke="black" stroke-width="2"/>
<path d="M161.701 122.649C161.82 119.114 162.629 117.505 166.254 115.739C170.788 113.893 174.925 114.557 177.046 115.739C179.167 116.922 180.913 119.35 181.1 122.649C181.288 125.948 180.166 130.244 178.107 132.547C175.893 135.025 173.115 136.718 170.371 136.095C167.627 135.473 167.083 134.29 165.818 132.671C164.553 131.053 161.582 126.185 161.701 122.649Z" fill="black" stroke="black" stroke-width="3" stroke-linecap="round"/>
<path d="M162.076 125.136C161.39 122.459 161.764 119.845 162.076 119.409C162.388 118.973 164.696 119.098 164.696 119.098C164.696 119.098 166.47 119.144 167.565 119.409C168.629 119.667 169.248 119.84 170.185 120.405C171.497 121.196 171.807 121.401 172.93 123.206C174.053 125.012 174.489 128.498 174.489 130.241C174.49 131.984 173.678 135.345 173.117 135.719C172.556 136.092 170.31 135.968 168.875 135.345C167.44 134.723 165.819 132.544 165.195 131.61C164.571 130.676 162.762 127.813 162.076 125.136Z" fill="#FFC1C3" stroke="#FFC1C3" stroke-width="3" stroke-linecap="round"/>
<g filter="url(#filter0_i_368_4214)">
<path d="M0 178.481C0 173.597 0.922654 173.596 5.99726 173.596C11.0719 173.597 12.4558 173.596 12.4558 173.596C14.4949 173.468 14.3011 172.434 14.3011 169.254C14.3011 166.074 14.0616 165.854 12.4558 165.997H10.6105C8.76522 165.997 8.30389 165.455 8.30389 162.741C8.30389 160.027 9.22655 159.484 10.6105 159.484H14.7625C17.0594 159.452 17.0691 158.398 17.0691 156.77C17.0691 155.142 16.6078 154.056 14.7625 154.056H6.91991C3.92943 154.139 3.20111 153.261 3.22929 150.257C3.32879 147.696 4.15195 146.999 6.91991 147C9.68787 147.001 335.846 147.543 335.846 147.543C340.212 147.338 339.998 149.551 339.998 154.056C339.998 158.941 339.794 160.22 335.846 160.027H326.158C324.598 159.886 324.169 161.011 324.313 162.198C324.441 163.247 324.538 163.871 326.158 163.826H332.156C334.002 163.829 334.002 164.872 334.001 166.963V167.083C334.001 169.254 333.992 170.151 332.156 170.34H329.849C326.573 170.162 326.158 171.886 326.158 174.139C326.159 176.212 326.313 177.746 329.849 177.396H334.462C337.336 177.365 338.153 178.942 338.153 181.195C338.153 183.449 338.058 185.105 334.462 184.995C334.462 184.995 11.9945 184.995 5.99726 184.995C0 184.994 0 183.366 0 178.481V178.481Z" fill="#FE850F"/>
</g>
<circle cx="259.5" cy="137.5" r="6.5" fill="#F83C40"/>
<circle cx="269.5" cy="144.5" r="6.5" fill="#F83C40"/>
<circle cx="259.5" cy="146.5" r="6.5" fill="#F83C40"/>
<circle cx="265.5" cy="155.5" r="6.5" fill="#F83C40"/>
<circle cx="253.5" cy="155.5" r="6.5" fill="#F83C40"/>
<circle cx="249.5" cy="144.5" r="6.5" fill="#F83C40"/>
<path d="M257.956 143.752C258.442 142.256 260.558 142.256 261.044 143.752C261.261 144.421 261.885 144.873 262.588 144.873C264.16 144.873 264.814 146.886 263.542 147.81C262.973 148.223 262.735 148.956 262.952 149.625C263.438 151.121 261.726 152.364 260.454 151.44C259.885 151.027 259.115 151.027 258.546 151.44C257.274 152.364 255.562 151.121 256.048 149.625C256.265 148.956 256.027 148.223 255.458 147.81C254.186 146.886 254.84 144.873 256.412 144.873C257.115 144.873 257.739 144.421 257.956 143.752Z" fill="#F3C430"/>
<circle cx="108.242" cy="172.823" r="4.82258" fill="#F83C40"/>
<circle cx="115.661" cy="178.016" r="4.82258" fill="#F83C40"/>
<circle cx="108.242" cy="179.5" r="4.82258" fill="#F83C40"/>
<circle cx="112.694" cy="186.177" r="4.82258" fill="#F83C40"/>
<circle cx="103.79" cy="186.177" r="4.82258" fill="#F83C40"/>
<circle cx="100.823" cy="178.016" r="4.82258" fill="#F83C40"/>
<path d="M107.096 177.461C107.457 176.351 109.027 176.351 109.387 177.461C109.549 177.957 110.011 178.293 110.533 178.293C111.7 178.293 112.185 179.786 111.241 180.472C110.819 180.779 110.642 181.322 110.803 181.819C111.164 182.928 109.894 183.851 108.95 183.165C108.528 182.858 107.956 182.858 107.534 183.165C106.59 183.851 105.32 182.928 105.681 181.819C105.842 181.322 105.665 180.779 105.243 180.472C104.299 179.786 104.784 178.293 105.951 178.293C106.473 178.293 106.935 177.957 107.096 177.461Z" fill="#F3C430"/>
<defs>
<filter id="filter0_i_368_4214" x="0" y="147" width="340" height="38" filterUnits="userSpaceOnUse" color-interpolation-filters="sRGB">
<feFlood flood-opacity="0" result="BackgroundImageFix"/>
<feBlend mode="normal" in="SourceGraphic" in2="BackgroundImageFix" result="shape"/>
<feColorMatrix in="SourceAlpha" type="matrix" values="0 0 0 0 0 0 0 0 0 0 0 0 0 0 0 0 0 0 127 0" result="hardAlpha"/>
<feOffset dy="-3"/>
<feComposite in2="hardAlpha" operator="arithmetic" k2="-1" k3="1"/>
<feColorMatrix type="matrix" values="0 0 0 0 0.745098 0 0 0 0 0.392157 0 0 0 0 0.0431373 0 0 0 1 0"/>
<feBlend mode="normal" in2="shape" result="effect1_innerShadow_368_4214"/>
</filter>
</defs>
</svg>
