<svg width="326" height="78" viewBox="0 0 326 78" fill="none" xmlns="http://www.w3.org/2000/svg">
<g filter="url(#filter0_d_296_2158)">
<rect x="64" y="5.5" width="258" height="63" rx="20" fill="#FFDEA8"/>
<path d="M88.2109 43.2734C87.362 43.2734 86.6224 43.1406 85.9922 42.875C85.362 42.6042 84.8646 42.2292 84.5 41.75C84.1354 41.2708 83.9271 40.7161 83.875 40.0859L83.8672 39.9844H85.5938L85.6016 40.0703C85.638 40.4089 85.7708 40.7031 86 40.9531C86.2344 41.2031 86.5469 41.3984 86.9375 41.5391C87.3333 41.6797 87.7839 41.75 88.2891 41.75C88.763 41.75 89.1849 41.6745 89.5547 41.5234C89.9245 41.3724 90.2135 41.1641 90.4219 40.8984C90.6354 40.6328 90.7422 40.3281 90.7422 39.9844V39.9766C90.7422 39.5443 90.5781 39.1849 90.25 38.8984C89.9219 38.612 89.3854 38.388 88.6406 38.2266L87.4062 37.9688C86.2656 37.724 85.4349 37.3359 84.9141 36.8047C84.3932 36.2682 84.1328 35.5833 84.1328 34.75V34.7422C84.138 34.0911 84.3125 33.5182 84.6562 33.0234C85.0052 32.5286 85.487 32.1432 86.1016 31.8672C86.7161 31.5911 87.4219 31.4531 88.2188 31.4531C89.0156 31.4531 89.7109 31.5911 90.3047 31.8672C90.9036 32.138 91.375 32.5078 91.7188 32.9766C92.0677 33.4453 92.263 33.974 92.3047 34.5625L92.3125 34.6641H90.6016L90.5859 34.5625C90.5391 34.2552 90.4115 33.9818 90.2031 33.7422C90 33.5026 89.7266 33.3151 89.3828 33.1797C89.0443 33.0391 88.6484 32.9714 88.1953 32.9766C87.7578 32.9766 87.3672 33.0443 87.0234 33.1797C86.6797 33.3099 86.4062 33.5 86.2031 33.75C86.0052 34 85.9062 34.3021 85.9062 34.6562V34.6641C85.9062 35.0807 86.0651 35.4297 86.3828 35.7109C86.7057 35.987 87.2292 36.2031 87.9531 36.3594L89.1875 36.6328C90.3698 36.8828 91.2188 37.2578 91.7344 37.7578C92.2552 38.2578 92.5156 38.9245 92.5156 39.7578V39.7656C92.5156 40.4844 92.3385 41.1068 91.9844 41.6328C91.6354 42.1536 91.138 42.5573 90.4922 42.8438C89.8464 43.1302 89.0859 43.2734 88.2109 43.2734ZM98.1875 43.1641C97.3594 43.1641 96.6484 42.987 96.0547 42.6328C95.4609 42.2734 95.0026 41.7656 94.6797 41.1094C94.362 40.4531 94.2031 39.6771 94.2031 38.7812V38.7734C94.2031 37.888 94.362 37.1146 94.6797 36.4531C95.0026 35.7917 95.4557 35.276 96.0391 34.9062C96.6276 34.5365 97.3151 34.3516 98.1016 34.3516C98.8932 34.3516 99.5729 34.5286 100.141 34.8828C100.714 35.237 101.154 35.7344 101.461 36.375C101.768 37.0104 101.922 37.7552 101.922 38.6094V39.2031H95.0625V37.9922H101.078L100.266 39.1172V38.4375C100.266 37.8333 100.172 37.3333 99.9844 36.9375C99.8021 36.5365 99.5495 36.237 99.2266 36.0391C98.9036 35.8411 98.5312 35.7422 98.1094 35.7422C97.6875 35.7422 97.3099 35.8464 96.9766 36.0547C96.6484 36.2578 96.388 36.5599 96.1953 36.9609C96.0078 37.362 95.9141 37.8542 95.9141 38.4375V39.1172C95.9141 39.6745 96.0078 40.151 96.1953 40.5469C96.3828 40.9427 96.6484 41.2448 96.9922 41.4531C97.3411 41.6615 97.7526 41.7656 98.2266 41.7656C98.5911 41.7656 98.9036 41.7161 99.1641 41.6172C99.4297 41.513 99.6458 41.3854 99.8125 41.2344C99.9844 41.0833 100.102 40.9349 100.164 40.7891L100.195 40.7266H101.836L101.82 40.7969C101.747 41.0781 101.62 41.3594 101.438 41.6406C101.255 41.9167 101.013 42.1693 100.711 42.3984C100.414 42.6276 100.055 42.8125 99.6328 42.9531C99.2161 43.0938 98.7344 43.1641 98.1875 43.1641ZM107.031 43.1406C106.323 43.1406 105.703 42.9635 105.172 42.6094C104.646 42.25 104.237 41.7422 103.945 41.0859C103.659 40.4297 103.516 39.6562 103.516 38.7656V38.75C103.516 37.8542 103.659 37.0781 103.945 36.4219C104.232 35.7656 104.638 35.2604 105.164 34.9062C105.69 34.5469 106.312 34.3672 107.031 34.3672C107.615 34.3672 108.138 34.5026 108.602 34.7734C109.07 35.0391 109.417 35.401 109.641 35.8594H109.766V31.1875H111.469V43H109.766V41.6641H109.641C109.396 42.1276 109.049 42.4896 108.602 42.75C108.154 43.0104 107.63 43.1406 107.031 43.1406ZM107.516 41.6875C107.984 41.6875 108.391 41.5703 108.734 41.3359C109.078 41.1016 109.341 40.7656 109.523 40.3281C109.706 39.8854 109.797 39.3646 109.797 38.7656V38.75C109.797 38.1458 109.703 37.625 109.516 37.1875C109.333 36.75 109.07 36.4141 108.727 36.1797C108.388 35.9401 107.984 35.8203 107.516 35.8203C107.047 35.8203 106.641 35.9401 106.297 36.1797C105.958 36.4141 105.698 36.75 105.516 37.1875C105.339 37.6198 105.25 38.1406 105.25 38.75V38.7656C105.25 39.3698 105.339 39.8906 105.516 40.3281C105.698 40.7656 105.958 41.1016 106.297 41.3359C106.641 41.5703 107.047 41.6875 107.516 41.6875ZM114.008 43V34.5156H115.711V43H114.008ZM114.867 33C114.576 33 114.326 32.8958 114.117 32.6875C113.909 32.4792 113.805 32.2292 113.805 31.9375C113.805 31.6458 113.909 31.3984 114.117 31.1953C114.326 30.987 114.576 30.8828 114.867 30.8828C115.159 30.8828 115.409 30.987 115.617 31.1953C115.826 31.3984 115.93 31.6458 115.93 31.9375C115.93 32.2292 115.826 32.4792 115.617 32.6875C115.409 32.8958 115.159 33 114.867 33ZM118.25 43V31.1875H119.945V43H118.25ZM123.594 43L120.547 39.0234L121.805 37.9688L125.664 43H123.594ZM119.781 40.0859L119.711 38.0859H120.078L123.438 34.5156H125.43L121.602 38.3906L120.945 38.9297L119.781 40.0859ZM127.227 43V34.5156H128.93V43H127.227ZM128.086 33C127.794 33 127.544 32.8958 127.336 32.6875C127.128 32.4792 127.023 32.2292 127.023 31.9375C127.023 31.6458 127.128 31.3984 127.336 31.1953C127.544 30.987 127.794 30.8828 128.086 30.8828C128.378 30.8828 128.628 30.987 128.836 31.1953C129.044 31.3984 129.148 31.6458 129.148 31.9375C129.148 32.2292 129.044 32.4792 128.836 32.6875C128.628 32.8958 128.378 33 128.086 33ZM134.594 43.0547C133.667 43.0547 132.995 42.8776 132.578 42.5234C132.167 42.1641 131.961 41.5781 131.961 40.7656V35.8516H130.633V34.5156H131.961V32.375H133.695V34.5156H135.516V35.8516H133.695V40.3516C133.695 40.8099 133.786 41.1406 133.969 41.3438C134.151 41.5417 134.453 41.6406 134.875 41.6406C135 41.6406 135.107 41.638 135.195 41.6328C135.289 41.6276 135.396 41.6198 135.516 41.6094V42.9688C135.38 42.9896 135.234 43.0078 135.078 43.0234C134.922 43.0443 134.76 43.0547 134.594 43.0547ZM141.938 43V31.1875H143.633V43H141.938ZM148.484 43.1406C147.948 43.1406 147.466 43.0391 147.039 42.8359C146.617 42.6276 146.284 42.3333 146.039 41.9531C145.794 41.5729 145.672 41.1276 145.672 40.6172V40.6016C145.672 39.8411 145.945 39.2474 146.492 38.8203C147.044 38.388 147.826 38.1406 148.836 38.0781L151.969 37.8906V39.0859L149.07 39.2734C148.487 39.3099 148.057 39.4349 147.781 39.6484C147.505 39.8568 147.367 40.151 147.367 40.5312V40.5469C147.367 40.9323 147.516 41.237 147.812 41.4609C148.109 41.6797 148.484 41.7891 148.938 41.7891C149.359 41.7891 149.734 41.7057 150.062 41.5391C150.396 41.3672 150.656 41.138 150.844 40.8516C151.031 40.5599 151.125 40.2318 151.125 39.8672V37.1953C151.125 36.7266 150.979 36.3698 150.688 36.125C150.401 35.875 149.974 35.75 149.406 35.75C148.932 35.75 148.544 35.8333 148.242 36C147.945 36.1667 147.747 36.401 147.648 36.7031L147.633 36.7266H146L146.008 36.6719C146.076 36.2031 146.26 35.7969 146.562 35.4531C146.87 35.1042 147.271 34.8333 147.766 34.6406C148.266 34.4479 148.836 34.3516 149.477 34.3516C150.19 34.3516 150.794 34.4661 151.289 34.6953C151.789 34.9193 152.167 35.2448 152.422 35.6719C152.682 36.0938 152.812 36.6016 152.812 37.1953V43H151.125V41.7969H151C150.833 42.0833 150.625 42.3281 150.375 42.5312C150.125 42.7292 149.841 42.8802 149.523 42.9844C149.206 43.0885 148.859 43.1406 148.484 43.1406ZM158.789 45.9922C158.07 45.9922 157.445 45.8932 156.914 45.6953C156.388 45.4974 155.971 45.2214 155.664 44.8672C155.357 44.513 155.169 44.1016 155.102 43.6328L155.109 43.6172H156.828L156.836 43.6328C156.909 43.9245 157.115 44.1641 157.453 44.3516C157.792 44.5391 158.245 44.6328 158.812 44.6328C159.51 44.6328 160.055 44.474 160.445 44.1562C160.841 43.8385 161.039 43.3932 161.039 42.8203V41.1562H160.906C160.74 41.4583 160.526 41.7188 160.266 41.9375C160.005 42.151 159.708 42.3125 159.375 42.4219C159.042 42.5312 158.68 42.5859 158.289 42.5859C157.57 42.5859 156.945 42.4141 156.414 42.0703C155.888 41.7214 155.482 41.2422 155.195 40.6328C154.914 40.0182 154.773 39.3125 154.773 38.5156V38.5C154.773 37.6927 154.917 36.9792 155.203 36.3594C155.49 35.7344 155.898 35.2474 156.43 34.8984C156.961 34.5443 157.594 34.3672 158.328 34.3672C158.724 34.3672 159.086 34.4297 159.414 34.5547C159.747 34.6797 160.042 34.8568 160.297 35.0859C160.552 35.3151 160.763 35.5885 160.93 35.9062H161.031V34.5156H162.727V42.8281C162.727 43.4688 162.565 44.026 162.242 44.5C161.924 44.974 161.471 45.3411 160.883 45.6016C160.294 45.862 159.596 45.9922 158.789 45.9922ZM158.766 41.1797C159.245 41.1797 159.656 41.0677 160 40.8438C160.344 40.6146 160.607 40.2995 160.789 39.8984C160.977 39.4974 161.07 39.0339 161.07 38.5078V38.4922C161.07 37.9714 160.977 37.5078 160.789 37.1016C160.607 36.6953 160.344 36.3776 160 36.1484C159.656 35.9193 159.245 35.8047 158.766 35.8047C158.286 35.8047 157.878 35.9193 157.539 36.1484C157.206 36.3776 156.951 36.6953 156.773 37.1016C156.596 37.5026 156.508 37.9661 156.508 38.4922V38.5078C156.508 39.0339 156.596 39.4974 156.773 39.8984C156.951 40.2995 157.206 40.6146 157.539 40.8438C157.878 41.0677 158.286 41.1797 158.766 41.1797ZM165.195 43V34.5156H166.898V43H165.195ZM166.055 33C165.763 33 165.513 32.8958 165.305 32.6875C165.096 32.4792 164.992 32.2292 164.992 31.9375C164.992 31.6458 165.096 31.3984 165.305 31.1953C165.513 30.987 165.763 30.8828 166.055 30.8828C166.346 30.8828 166.596 30.987 166.805 31.1953C167.013 31.3984 167.117 31.6458 167.117 31.9375C167.117 32.2292 167.013 32.4792 166.805 32.6875C166.596 32.8958 166.346 33 166.055 33ZM169.062 45.9297L169.75 41.3359H171.562L170.258 45.9297H169.062ZM178.844 43V31.1875H180.539V43H178.844ZM184.188 43L181.141 39.0234L182.398 37.9688L186.258 43H184.188ZM180.375 40.0859L180.305 38.0859H180.672L184.031 34.5156H186.023L182.195 38.3906L181.539 38.9297L180.375 40.0859ZM189.859 43.1406C189.323 43.1406 188.841 43.0391 188.414 42.8359C187.992 42.6276 187.659 42.3333 187.414 41.9531C187.169 41.5729 187.047 41.1276 187.047 40.6172V40.6016C187.047 39.8411 187.32 39.2474 187.867 38.8203C188.419 38.388 189.201 38.1406 190.211 38.0781L193.344 37.8906V39.0859L190.445 39.2734C189.862 39.3099 189.432 39.4349 189.156 39.6484C188.88 39.8568 188.742 40.151 188.742 40.5312V40.5469C188.742 40.9323 188.891 41.237 189.188 41.4609C189.484 41.6797 189.859 41.7891 190.312 41.7891C190.734 41.7891 191.109 41.7057 191.438 41.5391C191.771 41.3672 192.031 41.138 192.219 40.8516C192.406 40.5599 192.5 40.2318 192.5 39.8672V37.1953C192.5 36.7266 192.354 36.3698 192.062 36.125C191.776 35.875 191.349 35.75 190.781 35.75C190.307 35.75 189.919 35.8333 189.617 36C189.32 36.1667 189.122 36.401 189.023 36.7031L189.008 36.7266H187.375L187.383 36.6719C187.451 36.2031 187.635 35.7969 187.938 35.4531C188.245 35.1042 188.646 34.8333 189.141 34.6406C189.641 34.4479 190.211 34.3516 190.852 34.3516C191.565 34.3516 192.169 34.4661 192.664 34.6953C193.164 34.9193 193.542 35.2448 193.797 35.6719C194.057 36.0938 194.188 36.6016 194.188 37.1953V43H192.5V41.7969H192.375C192.208 42.0833 192 42.3281 191.75 42.5312C191.5 42.7292 191.216 42.8802 190.898 42.9844C190.581 43.0885 190.234 43.1406 189.859 43.1406ZM196.578 43V34.5156H198.273V35.8203H198.406C198.594 35.3516 198.885 34.9896 199.281 34.7344C199.682 34.4792 200.161 34.3516 200.719 34.3516C201.104 34.3516 201.451 34.4141 201.758 34.5391C202.065 34.6641 202.328 34.8411 202.547 35.0703C202.771 35.2943 202.945 35.5599 203.07 35.8672H203.203C203.344 35.5599 203.542 35.2943 203.797 35.0703C204.052 34.8411 204.349 34.6641 204.688 34.5391C205.031 34.4141 205.396 34.3516 205.781 34.3516C206.354 34.3516 206.844 34.4635 207.25 34.6875C207.656 34.9062 207.966 35.224 208.18 35.6406C208.393 36.0573 208.5 36.5599 208.5 37.1484V43H206.805V37.5547C206.805 36.9714 206.669 36.5339 206.398 36.2422C206.133 35.9505 205.724 35.8047 205.172 35.8047C204.812 35.8047 204.497 35.888 204.227 36.0547C203.961 36.2161 203.753 36.4349 203.602 36.7109C203.456 36.9818 203.383 37.2891 203.383 37.6328V43H201.688V37.3828C201.688 36.8984 201.539 36.5156 201.242 36.2344C200.951 35.9479 200.555 35.8047 200.055 35.8047C199.716 35.8047 199.411 35.8932 199.141 36.0703C198.875 36.2474 198.664 36.487 198.508 36.7891C198.352 37.0859 198.273 37.4193 198.273 37.7891V43H196.578ZM213.703 43.1641C213.068 43.1641 212.531 43.0417 212.094 42.7969C211.661 42.5469 211.336 42.1875 211.117 41.7188C210.904 41.2448 210.797 40.6745 210.797 40.0078V34.5156H212.492V39.6094C212.492 40.3073 212.63 40.8307 212.906 41.1797C213.182 41.5286 213.633 41.7031 214.258 41.7031C214.706 41.7031 215.083 41.6146 215.391 41.4375C215.703 41.2552 215.938 41 216.094 40.6719C216.25 40.3385 216.328 39.9453 216.328 39.4922V34.5156H218.031V43H216.328V41.7188H216.203C216 42.1719 215.688 42.526 215.266 42.7812C214.844 43.0365 214.323 43.1641 213.703 43.1641ZM224.828 45.8281V34.5156H226.523V35.8516H226.656C226.818 35.5391 227.026 35.2734 227.281 35.0547C227.542 34.8359 227.839 34.6667 228.172 34.5469C228.505 34.4271 228.87 34.3672 229.266 34.3672C229.979 34.3672 230.599 34.5495 231.125 34.9141C231.651 35.2734 232.057 35.7812 232.344 36.4375C232.635 37.0885 232.781 37.8594 232.781 38.75V38.7656C232.781 39.6615 232.638 40.4375 232.352 41.0938C232.065 41.7448 231.659 42.25 231.133 42.6094C230.607 42.9635 229.984 43.1406 229.266 43.1406C228.875 43.1406 228.51 43.0807 228.172 42.9609C227.833 42.8359 227.534 42.6641 227.273 42.4453C227.013 42.2266 226.807 41.9635 226.656 41.6562H226.523V45.8281H224.828ZM228.781 41.6875C229.255 41.6875 229.661 41.5703 230 41.3359C230.339 41.1016 230.596 40.7656 230.773 40.3281C230.956 39.8906 231.047 39.3698 231.047 38.7656V38.75C231.047 38.1406 230.956 37.6172 230.773 37.1797C230.596 36.7422 230.339 36.4062 230 36.1719C229.661 35.9375 229.255 35.8203 228.781 35.8203C228.312 35.8203 227.906 35.9401 227.562 36.1797C227.219 36.4141 226.956 36.75 226.773 37.1875C226.591 37.6198 226.5 38.1406 226.5 38.75V38.7656C226.5 39.3646 226.591 39.8828 226.773 40.3203C226.956 40.7578 227.219 41.0964 227.562 41.3359C227.906 41.5703 228.312 41.6875 228.781 41.6875ZM237.141 43.1406C236.604 43.1406 236.122 43.0391 235.695 42.8359C235.273 42.6276 234.94 42.3333 234.695 41.9531C234.451 41.5729 234.328 41.1276 234.328 40.6172V40.6016C234.328 39.8411 234.602 39.2474 235.148 38.8203C235.701 38.388 236.482 38.1406 237.492 38.0781L240.625 37.8906V39.0859L237.727 39.2734C237.143 39.3099 236.714 39.4349 236.438 39.6484C236.161 39.8568 236.023 40.151 236.023 40.5312V40.5469C236.023 40.9323 236.172 41.237 236.469 41.4609C236.766 41.6797 237.141 41.7891 237.594 41.7891C238.016 41.7891 238.391 41.7057 238.719 41.5391C239.052 41.3672 239.312 41.138 239.5 40.8516C239.688 40.5599 239.781 40.2318 239.781 39.8672V37.1953C239.781 36.7266 239.635 36.3698 239.344 36.125C239.057 35.875 238.63 35.75 238.062 35.75C237.589 35.75 237.201 35.8333 236.898 36C236.602 36.1667 236.404 36.401 236.305 36.7031L236.289 36.7266H234.656L234.664 36.6719C234.732 36.2031 234.917 35.7969 235.219 35.4531C235.526 35.1042 235.927 34.8333 236.422 34.6406C236.922 34.4479 237.492 34.3516 238.133 34.3516C238.846 34.3516 239.451 34.4661 239.945 34.6953C240.445 34.9193 240.823 35.2448 241.078 35.6719C241.339 36.0938 241.469 36.6016 241.469 37.1953V43H239.781V41.7969H239.656C239.49 42.0833 239.281 42.3281 239.031 42.5312C238.781 42.7292 238.497 42.8802 238.18 42.9844C237.862 43.0885 237.516 43.1406 237.141 43.1406ZM246.945 43.1641C246.263 43.1641 245.669 43.0651 245.164 42.8672C244.659 42.6641 244.258 42.3854 243.961 42.0312C243.664 41.6719 243.49 41.2552 243.438 40.7812V40.7656H245.141V40.7812C245.25 41.099 245.458 41.3568 245.766 41.5547C246.073 41.7526 246.479 41.8516 246.984 41.8516C247.333 41.8516 247.638 41.8021 247.898 41.7031C248.164 41.6042 248.372 41.4661 248.523 41.2891C248.674 41.112 248.75 40.9089 248.75 40.6797V40.6641C248.75 40.3984 248.643 40.1745 248.43 39.9922C248.216 39.8099 247.865 39.6615 247.375 39.5469L246.016 39.2344C245.219 39.0521 244.628 38.7734 244.242 38.3984C243.862 38.0182 243.672 37.5182 243.672 36.8984V36.8906C243.672 36.3958 243.812 35.9583 244.094 35.5781C244.375 35.1927 244.763 34.8932 245.258 34.6797C245.758 34.4609 246.328 34.3516 246.969 34.3516C247.615 34.3516 248.177 34.4531 248.656 34.6562C249.141 34.8542 249.523 35.1302 249.805 35.4844C250.086 35.8333 250.253 36.2396 250.305 36.7031V36.7109H248.68V36.6953C248.602 36.3984 248.414 36.151 248.117 35.9531C247.826 35.7552 247.44 35.6562 246.961 35.6562C246.654 35.6562 246.38 35.7057 246.141 35.8047C245.901 35.8984 245.711 36.0312 245.57 36.2031C245.435 36.3698 245.367 36.5677 245.367 36.7969V36.8125C245.367 37.0781 245.471 37.2969 245.68 37.4688C245.888 37.6406 246.229 37.7839 246.703 37.8984L248.055 38.2031C248.867 38.3958 249.471 38.6745 249.867 39.0391C250.268 39.4036 250.469 39.8932 250.469 40.5078V40.5234C250.469 41.0443 250.315 41.5052 250.008 41.9062C249.701 42.3021 249.281 42.612 248.75 42.8359C248.224 43.0547 247.622 43.1641 246.945 43.1641ZM255.625 43.0547C254.698 43.0547 254.026 42.8776 253.609 42.5234C253.198 42.1641 252.992 41.5781 252.992 40.7656V35.8516H251.664V34.5156H252.992V32.375H254.727V34.5156H256.547V35.8516H254.727V40.3516C254.727 40.8099 254.818 41.1406 255 41.3438C255.182 41.5417 255.484 41.6406 255.906 41.6406C256.031 41.6406 256.138 41.638 256.227 41.6328C256.32 41.6276 256.427 41.6198 256.547 41.6094V42.9688C256.411 42.9896 256.266 43.0078 256.109 43.0234C255.953 43.0443 255.792 43.0547 255.625 43.0547ZM258.555 43V34.5156H260.258V43H258.555ZM259.414 33C259.122 33 258.872 32.8958 258.664 32.6875C258.456 32.4792 258.352 32.2292 258.352 31.9375C258.352 31.6458 258.456 31.3984 258.664 31.1953C258.872 30.987 259.122 30.8828 259.414 30.8828C259.706 30.8828 259.956 30.987 260.164 31.1953C260.372 31.3984 260.477 31.6458 260.477 31.9375C260.477 32.2292 260.372 32.4792 260.164 32.6875C259.956 32.8958 259.706 33 259.414 33ZM271.594 43.1406C271 43.1406 270.479 43.0104 270.031 42.75C269.583 42.4896 269.234 42.1276 268.984 41.6641H268.852V43H267.156V31.1875H268.852V35.8594H268.984C269.208 35.401 269.552 35.0391 270.016 34.7734C270.484 34.5026 271.01 34.3672 271.594 34.3672C272.312 34.3672 272.935 34.5469 273.461 34.9062C273.987 35.2604 274.393 35.7656 274.68 36.4219C274.966 37.0781 275.109 37.8542 275.109 38.75V38.7656C275.109 39.6562 274.964 40.4297 274.672 41.0859C274.385 41.7422 273.979 42.25 273.453 42.6094C272.927 42.9635 272.307 43.1406 271.594 43.1406ZM271.109 41.6875C271.583 41.6875 271.99 41.5703 272.328 41.3359C272.667 41.1016 272.924 40.7656 273.102 40.3281C273.284 39.8906 273.375 39.3698 273.375 38.7656V38.75C273.375 38.1406 273.284 37.6198 273.102 37.1875C272.924 36.75 272.667 36.4141 272.328 36.1797C271.99 35.9401 271.583 35.8203 271.109 35.8203C270.641 35.8203 270.234 35.9401 269.891 36.1797C269.547 36.4141 269.284 36.75 269.102 37.1875C268.919 37.625 268.828 38.1458 268.828 38.75V38.7656C268.828 39.3646 268.919 39.8854 269.102 40.3281C269.284 40.7656 269.547 41.1016 269.891 41.3359C270.234 41.5703 270.641 41.6875 271.109 41.6875ZM277.148 43V34.5156H278.852V43H277.148ZM278.008 33C277.716 33 277.466 32.8958 277.258 32.6875C277.049 32.4792 276.945 32.2292 276.945 31.9375C276.945 31.6458 277.049 31.3984 277.258 31.1953C277.466 30.987 277.716 30.8828 278.008 30.8828C278.299 30.8828 278.549 30.987 278.758 31.1953C278.966 31.3984 279.07 31.6458 279.07 31.9375C279.07 32.2292 278.966 32.4792 278.758 32.6875C278.549 32.8958 278.299 33 278.008 33ZM284.398 43.1641C283.716 43.1641 283.122 43.0651 282.617 42.8672C282.112 42.6641 281.711 42.3854 281.414 42.0312C281.117 41.6719 280.943 41.2552 280.891 40.7812V40.7656H282.594V40.7812C282.703 41.099 282.911 41.3568 283.219 41.5547C283.526 41.7526 283.932 41.8516 284.438 41.8516C284.786 41.8516 285.091 41.8021 285.352 41.7031C285.617 41.6042 285.826 41.4661 285.977 41.2891C286.128 41.112 286.203 40.9089 286.203 40.6797V40.6641C286.203 40.3984 286.096 40.1745 285.883 39.9922C285.669 39.8099 285.318 39.6615 284.828 39.5469L283.469 39.2344C282.672 39.0521 282.081 38.7734 281.695 38.3984C281.315 38.0182 281.125 37.5182 281.125 36.8984V36.8906C281.125 36.3958 281.266 35.9583 281.547 35.5781C281.828 35.1927 282.216 34.8932 282.711 34.6797C283.211 34.4609 283.781 34.3516 284.422 34.3516C285.068 34.3516 285.63 34.4531 286.109 34.6562C286.594 34.8542 286.977 35.1302 287.258 35.4844C287.539 35.8333 287.706 36.2396 287.758 36.7031V36.7109H286.133V36.6953C286.055 36.3984 285.867 36.151 285.57 35.9531C285.279 35.7552 284.893 35.6562 284.414 35.6562C284.107 35.6562 283.833 35.7057 283.594 35.8047C283.354 35.8984 283.164 36.0312 283.023 36.2031C282.888 36.3698 282.82 36.5677 282.82 36.7969V36.8125C282.82 37.0781 282.924 37.2969 283.133 37.4688C283.341 37.6406 283.682 37.7839 284.156 37.8984L285.508 38.2031C286.32 38.3958 286.924 38.6745 287.32 39.0391C287.721 39.4036 287.922 39.8932 287.922 40.5078V40.5234C287.922 41.0443 287.768 41.5052 287.461 41.9062C287.154 42.3021 286.734 42.612 286.203 42.8359C285.677 43.0547 285.076 43.1641 284.398 43.1641ZM292.266 43.1406C291.729 43.1406 291.247 43.0391 290.82 42.8359C290.398 42.6276 290.065 42.3333 289.82 41.9531C289.576 41.5729 289.453 41.1276 289.453 40.6172V40.6016C289.453 39.8411 289.727 39.2474 290.273 38.8203C290.826 38.388 291.607 38.1406 292.617 38.0781L295.75 37.8906V39.0859L292.852 39.2734C292.268 39.3099 291.839 39.4349 291.562 39.6484C291.286 39.8568 291.148 40.151 291.148 40.5312V40.5469C291.148 40.9323 291.297 41.237 291.594 41.4609C291.891 41.6797 292.266 41.7891 292.719 41.7891C293.141 41.7891 293.516 41.7057 293.844 41.5391C294.177 41.3672 294.438 41.138 294.625 40.8516C294.812 40.5599 294.906 40.2318 294.906 39.8672V37.1953C294.906 36.7266 294.76 36.3698 294.469 36.125C294.182 35.875 293.755 35.75 293.188 35.75C292.714 35.75 292.326 35.8333 292.023 36C291.727 36.1667 291.529 36.401 291.43 36.7031L291.414 36.7266H289.781L289.789 36.6719C289.857 36.2031 290.042 35.7969 290.344 35.4531C290.651 35.1042 291.052 34.8333 291.547 34.6406C292.047 34.4479 292.617 34.3516 293.258 34.3516C293.971 34.3516 294.576 34.4661 295.07 34.6953C295.57 34.9193 295.948 35.2448 296.203 35.6719C296.464 36.0938 296.594 36.6016 296.594 37.1953V43H294.906V41.7969H294.781C294.615 42.0833 294.406 42.3281 294.156 42.5312C293.906 42.7292 293.622 42.8802 293.305 42.9844C292.987 43.0885 292.641 43.1406 292.266 43.1406ZM299.594 39.2656L299.43 31.7188H301.336L301.18 39.2656H299.594ZM300.391 43.1719C300.026 43.1719 299.732 43.0651 299.508 42.8516C299.289 42.638 299.18 42.3568 299.18 42.0078C299.18 41.6536 299.289 41.3698 299.508 41.1562C299.732 40.9375 300.026 40.8281 300.391 40.8281C300.75 40.8281 301.039 40.9375 301.258 41.1562C301.482 41.3698 301.594 41.6536 301.594 42.0078C301.594 42.3568 301.482 42.638 301.258 42.8516C301.039 43.0651 300.75 43.1719 300.391 43.1719Z" fill="#0F2D3E"/>
<rect x="4" y="2" width="70" height="70" rx="35" fill="#FFDEA8"/>
<path d="M38.374 43.8924C38.1576 43.7142 37.5021 43.1437 37.4483 42.1455C37.3944 41.1473 37.5602 40.969 37.6647 40.7907C37.7691 40.6125 38.1637 40.2861 38.8549 40.1966C39.3939 40.1767 39.7067 40.2124 40.088 40.3328C40.261 40.3875 40.4289 40.4635 40.5689 40.5788C41.07 40.9914 41.1882 41.582 41.1392 42.2524C41.067 43.2388 40.49 43.7242 40.0211 44.0112C39.2464 44.4855 38.5904 44.0707 38.374 43.8924Z" fill="#212121"/>
<path d="M32.6512 39.1392V39.1392C33.4811 39.8153 33.199 41.1467 32.1662 41.4281L32.0621 41.4565" stroke="#0F2D3E" stroke-width="3" stroke-linecap="round"/>
<path d="M45.5635 39.1392V39.1392C44.7336 39.8153 45.0157 41.1467 46.0485 41.4281L46.1526 41.4565" stroke="#0F2D3E" stroke-width="3" stroke-linecap="round"/>
<path d="M39.2998 26.9419C46.8805 26.9419 52.869 32.0646 53.4072 37.5981C53.4067 40.3771 52.9422 43.0821 50.9697 45.0972C48.9955 47.114 45.4802 48.4722 39.2998 48.4722C33.1164 48.4722 29.6308 47.2109 27.6875 45.2915C25.7478 43.3755 25.312 40.7709 25.3115 37.9907C25.8622 32.5544 31.7289 26.9419 39.2998 26.9419Z" fill="#FFFBF6" stroke="#0F2D3E" stroke-width="0.3" stroke-linejoin="round"/>
<path d="M35.9334 26.8153L36.0777 27.2432L37.1958 27.0292L38.7467 26.9223H39.3959L40.7304 26.9698L42.4496 27.1481L42.63 26.9223C42.7007 26.8206 42.7289 26.7521 42.7743 26.6252C42.8311 26.4827 42.8511 26.3933 42.8704 26.2212C42.8803 26.0635 42.8879 25.978 42.8704 25.7815C42.861 25.6875 42.8508 25.632 42.8103 25.52C42.7501 25.3983 42.7077 25.3307 42.618 25.211C42.5379 25.1201 42.4865 25.0717 42.3655 24.9971C42.2304 24.9309 42.159 24.8915 41.9687 24.8545C41.795 24.8267 41.6976 24.8196 41.5239 24.8545C41.3955 24.877 41.3248 24.9054 41.1993 24.9615L40.8867 25.1278L40.7495 25.2113C40.6505 25.2715 40.5218 25.2456 40.4539 25.1516L40.3096 24.9258C40.2565 24.8456 40.2189 24.8044 40.1413 24.7357C39.9945 24.6296 39.9159 24.5673 39.7205 24.498C39.6362 24.4669 39.5878 24.4512 39.4921 24.4386C39.3465 24.4249 39.2649 24.4208 39.1194 24.4386C39.0116 24.4557 38.9511 24.4564 38.8429 24.5099C38.7371 24.5563 38.6787 24.5895 38.5784 24.6763C38.4471 24.7895 38.3754 24.8619 38.2538 25.0209C38.1204 25.1874 37.889 25.2387 37.6977 25.1442L37.6166 25.1041C37.4479 25.011 37.3403 24.9916 37.1717 24.9734C36.998 24.9553 36.9006 24.9512 36.7269 24.9734C36.4511 25.0253 36.2895 25.078 36.0777 25.3774C35.9424 25.601 35.8742 25.7236 35.8492 26.0785C35.8429 26.3984 35.8599 26.5609 35.9334 26.8153Z" fill="#FFFBF6" stroke="#0F2D3E" stroke-width="0.3"/>
<path d="M32.2424 37.8436C32.4588 37.7485 32.6752 37.7129 32.8195 37.7129C33.0571 37.7248 33.1562 37.7179 33.3846 37.8198C33.613 37.9218 33.652 37.9823 33.8655 38.2001" stroke="#0F2D3E" stroke-width="0.3" stroke-linecap="round"/>
<path d="M45.852 38.0814C45.6356 37.9863 45.4192 37.9507 45.2749 37.9507C45.0373 37.9626 44.9383 37.9557 44.7099 38.0576C44.4814 38.1596 44.4425 38.22 44.229 38.4379" stroke="#0F2D3E" stroke-width="0.3" stroke-linecap="round"/>
<path d="M47.7382 48.4439C47.7618 47.9752 47.7571 47.7124 47.7382 47.2437C46.9134 47.5119 46.4234 47.6568 45.5193 47.9091C45.464 48.3695 45.4072 48.7369 45.466 49.1569C45.5655 49.5555 45.6668 49.8937 45.8627 50.0958C46.1392 50.381 46.4158 50.5473 46.8606 50.4879C47.3415 50.3215 47.4368 50.0824 47.5819 49.6561C47.7086 49.1124 47.7412 48.8476 47.7382 48.4439Z" fill="#FFFBF6" stroke="#0F2D3E" stroke-width="0.3" stroke-linecap="round"/>
<path d="M31.0201 48.3962C30.9965 47.9274 31.0012 47.8667 31.0201 47.3979L33.2923 47.9803C33.3477 48.4406 33.2923 48.6814 33.2442 49.1211C33.1601 49.4657 33.1721 49.6083 32.8956 50.048C32.6789 50.3927 32.3425 50.4996 31.8977 50.4402C31.4529 50.3808 31.2966 50.0005 31.1764 49.6083C31.0497 49.0647 31.0535 49.0617 31.0201 48.3962Z" fill="#FFFBF6" stroke="#0F2D3E" stroke-width="0.3" stroke-linecap="round"/>
<path d="M37.376 41.7177C37.3989 41.0427 37.5548 40.7356 38.2536 40.3986C39.1274 40.0461 39.9248 40.1728 40.3335 40.3986C40.7423 40.6243 41.0789 41.0878 41.115 41.7177C41.1511 42.3475 40.9348 43.1675 40.5381 43.6072C40.1113 44.0802 39.576 44.4034 39.0471 44.2846C38.5183 44.1657 38.4133 43.9399 38.1695 43.631C37.9257 43.322 37.353 42.3926 37.376 41.7177Z" fill="#0F2D3E" stroke="#0F2D3E" stroke-linecap="round"/>
<ellipse cx="31.6413" cy="40.6364" rx="1.76732" ry="0.926933" fill="#FFC1C3"/>
<ellipse cx="46.8138" cy="40.6364" rx="1.76732" ry="0.926933" fill="#FFC1C3"/>
<path d="M32.6272 39.1152L34.1845 40.3689C34.3739 40.5213 34.3128 40.8239 34.0792 40.8909L32.026 41.4801" stroke="#0F2D3E" stroke-width="0.3" stroke-linecap="round"/>
<path d="M45.5875 39.1392L44.0302 40.3928C43.8408 40.5452 43.9019 40.8478 44.1355 40.9148L46.1887 41.504" stroke="#0F2D3E" stroke-width="0.3" stroke-linecap="round"/>
<path d="M40.3577 27.814C40.778 28.9867 41.3125 29.3566 42.7382 29.5609" stroke="#F5E3CD" stroke-width="0.3" stroke-linecap="round"/>
<path d="M38.951 28.0635C38.733 28.862 38.795 29.3211 39.2516 30.155" stroke="#F5E3CD" stroke-width="0.3" stroke-linecap="round"/>
<path d="M37.8089 27.9087C37.017 28.8658 36.464 29.2531 35.3082 29.715" stroke="#F5E3CD" stroke-width="0.3" stroke-linecap="round"/>
<path d="M37.4483 42.2525C37.316 41.7415 37.3881 41.2424 37.4483 41.1592C37.5084 41.0761 37.9532 41.0998 37.9532 41.0998C37.9532 41.0998 38.2951 41.1086 38.5062 41.1592C38.7113 41.2084 38.8306 41.2415 39.0112 41.3494C39.2641 41.5005 39.3237 41.5395 39.5402 41.8842C39.7566 42.2288 39.8407 42.8943 39.8408 43.227C39.8408 43.5598 39.6844 44.2015 39.5763 44.2728C39.4681 44.3441 39.0353 44.3203 38.7587 44.2015C38.4822 44.0826 38.1696 43.6667 38.0494 43.4885C37.9292 43.3102 37.5805 42.7635 37.4483 42.2525Z" fill="#FFC1C3" stroke="#FFC1C3" stroke-linecap="round"/>
<path d="M23.7382 28.2558L25.767 29.3507C26.2189 29.5946 26.0543 30.203 25.545 30.1373C24.7989 30.0412 24.0344 29.8954 23.1717 29.7418C22.8752 29.689 22.686 29.3876 22.7889 29.1045C22.8912 28.8234 22.9956 28.6015 23.1375 28.3863C23.2676 28.1892 23.5304 28.1437 23.7382 28.2558Z" fill="white" stroke="#0F2D3E" stroke-width="0.3" stroke-linecap="round"/>
<path d="M52.4743 25.1052L50.9377 27.8816C50.7083 28.2961 50.1184 28.1813 50.1006 27.7073C50.0667 26.8056 50.1187 25.8875 50.1596 24.8205C50.1699 24.5515 50.3901 24.337 50.6595 24.3441C51.1768 24.3577 51.8005 24.3993 52.2613 24.5168C52.5202 24.5829 52.6034 24.872 52.4743 25.1052Z" fill="white" stroke="#0F2D3E" stroke-width="0.3" stroke-linecap="round"/>
<path d="M55.2215 27.6514L52.444 29.2229C52.029 29.4577 51.5852 29.0547 51.8207 28.6419C52.2687 27.8562 52.7986 27.1008 53.3977 26.2129C53.5487 25.9891 53.8503 25.9204 54.0767 26.0661C54.5105 26.3452 55.02 26.7031 55.3504 27.0414C55.5359 27.2314 55.4542 27.5197 55.2215 27.6514Z" fill="white" stroke="#0F2D3E" stroke-width="0.3" stroke-linecap="round"/>
<path d="M56.2024 31.2234L52.941 30.9977C52.4409 30.9631 52.32 30.3587 52.7814 30.1667C53.5928 29.8289 54.5059 29.4763 55.4207 29.0711C55.6683 28.9615 55.9624 29.0607 56.0792 29.3039C56.2985 29.7605 56.5395 30.32 56.6436 30.7753C56.7039 31.0392 56.475 31.2422 56.2024 31.2234Z" fill="white" stroke="#0F2D3E" stroke-width="0.3" stroke-linecap="round"/>
<path d="M25.962 25.5012L26.9559 27.57C27.1768 28.0299 26.6832 28.4229 26.3092 28.0735C25.7609 27.5615 25.2275 26.9984 24.6189 26.3716C24.41 26.1565 24.4345 25.8043 24.6845 25.6358C24.9348 25.467 25.1514 25.3476 25.3942 25.2556C25.6174 25.1709 25.8596 25.2881 25.962 25.5012Z" fill="white" stroke="#0F2D3E" stroke-width="0.3" stroke-linecap="round"/>
<path d="M29.1656 24.5765L29.1656 27.6094C29.1656 28.1252 28.5863 28.2432 28.4265 27.7514C28.1156 26.7949 27.8458 25.7384 27.5561 24.7605C27.4712 24.4738 27.6511 24.1717 27.949 24.1327C28.2543 24.0927 28.5051 24.0826 28.7677 24.1097C29.0021 24.1339 29.1656 24.3427 29.1656 24.5765Z" fill="white" stroke="#0F2D3E" stroke-width="0.3" stroke-linecap="round"/>
<path d="M23.5381 35.0747C24.4299 34.697 25.0246 34.6993 26.171 34.8965C26.3502 34.9154 26.3656 34.964 26.3393 35.0747L26.171 35.7283C26.1026 35.8671 26.1548 35.9304 26.4235 36.0135C26.732 36.091 27.0264 36.2095 27.6618 36.4889C27.9299 36.5952 27.9769 36.6941 27.8422 36.9524L27.4574 37.3445C27.3054 37.4755 27.2879 37.557 27.3613 37.7129C27.6265 38.1588 27.8013 38.6993 27.8422 38.9013C27.8831 39.1033 27.9298 39.1761 27.6618 39.2459L27.2531 39.3172C27.0387 39.3343 26.9876 39.3922 26.9645 39.543L27.0246 40.7908L27.0242 40.8C27.0163 40.9768 27.0117 41.0787 26.7601 41.1236H26.2552C26.0678 41.1336 26.0074 41.1834 25.9426 41.3137C25.8521 41.4449 25.8002 41.5657 25.7021 41.9792C25.6528 42.1862 25.5664 42.2571 25.3655 42.3476C25.1482 42.3757 25.0224 42.3774 24.7884 42.3476C24.4972 42.3213 24.3277 42.2642 24.007 42.0386C23.8234 41.9188 23.7207 41.909 23.5381 41.9792L22.6845 42.4783C22.4469 42.5528 22.3275 42.5458 22.1675 42.3476L21.7106 41.7415C21.6061 41.6365 21.5316 41.6047 21.362 41.6108L20.6046 41.6702C20.4522 41.6571 20.4036 41.6091 20.3881 41.4444L20.328 40.4105C20.2834 40.1927 20.2329 40.0902 19.9072 40.0897H19.4143C19.1791 40.1002 19.0536 40.0303 19.1618 39.7926L19.4864 38.9013C19.5511 38.7141 19.5653 38.6155 19.3061 38.521L18.6689 38.2358C18.5062 38.0906 18.4587 38.0097 18.5367 37.8674C18.9505 37.1397 19.1679 36.7139 19.9072 36.3819C20.0845 36.2684 20.1213 36.1877 20.0756 36.0135C20.0575 35.8394 20.02 35.6699 19.9072 35.253C19.8954 35.072 19.9586 34.9981 20.328 34.9678L21.4702 34.6826C21.9953 34.5611 22.2937 34.5837 22.8408 34.9678C23.0862 35.2149 23.2418 35.2161 23.5381 35.0747Z" fill="#F3C430" stroke="#0F2D3E" stroke-width="0.3"/>
<path d="M50.2884 37.3801L51.2502 36.2986C51.4405 36.0758 51.4934 35.9885 51.5507 35.8589C51.5366 35.4853 51.4185 35.1103 51.6589 35.0152C51.8994 34.9201 52.1365 35.0362 52.3322 34.7537C52.4384 34.5839 52.528 34.558 52.741 34.6349C53.0415 34.6071 53.27 34.6349 53.5104 34.5636C53.7509 34.4923 53.8527 34.5402 53.9793 34.6943L54.34 35.1103C54.5311 35.2691 54.6816 35.2673 54.9892 35.1816C55.8296 34.9813 56.3369 34.9379 57.2735 34.9201C57.5253 34.8882 57.6063 34.9159 57.5741 35.0984L57.4779 35.7044C57.4238 35.945 57.4779 35.954 57.8025 36.0847C58.1271 36.2154 59.1971 36.6908 59.1971 36.6908C59.4877 36.8253 59.6115 36.9058 59.3775 37.1067L58.8605 37.5108C58.7898 37.5625 58.8605 37.5108 58.9927 37.8198C59.125 38.1287 59.3174 38.6695 59.3775 39.0319C59.4376 39.3943 59.39 39.3147 59.2572 39.329H58.8605C58.637 39.3174 58.6922 39.3765 58.6922 39.5785V40.8382C58.674 41.1091 58.6315 41.2014 58.4758 41.2185H57.9949C57.7529 41.2228 57.6479 41.2604 57.5741 41.4562L57.1773 42.0504C56.9946 42.279 56.8423 42.3294 56.468 42.2643L55.8308 42.0504C55.5731 41.9529 55.4426 41.9494 55.2417 42.0504L54.2919 42.5614C54.0919 42.6157 54.0104 42.5803 53.8831 42.4782L53.3782 41.9315C53.1748 41.7559 53.0517 41.6934 52.8011 41.7057H52.1038C51.9287 41.7191 51.8935 41.6534 51.8994 41.4562V40.5768C51.9031 40.3466 51.8564 40.2605 51.6589 40.2084L51.0578 40.1252C50.8402 40.0422 50.7731 39.9604 50.8174 39.7093L51.0578 38.7586C51.0606 38.5947 51.0172 38.5252 50.8895 38.4258L50.2884 37.9861C50.1086 37.7495 50.0919 37.6168 50.2884 37.3801Z" fill="#F3C430" stroke="#0F2D3E" stroke-width="0.3"/>
<path d="M36.5622 27.5609C36.4345 27.5701 36.3265 27.2927 36.1189 26.6829C38.2599 26.1888 40.3671 26.2564 42.546 26.5731C42.5372 26.7963 42.2254 27.1118 42.0697 27.5609H36.5622Z" fill="#FFFBF6"/>
</g>
<defs>
<filter id="filter0_d_296_2158" x="0" y="0" width="326" height="78" filterUnits="userSpaceOnUse" color-interpolation-filters="sRGB">
<feFlood flood-opacity="0" result="BackgroundImageFix"/>
<feColorMatrix in="SourceAlpha" type="matrix" values="0 0 0 0 0 0 0 0 0 0 0 0 0 0 0 0 0 0 127 0" result="hardAlpha"/>
<feOffset dy="2"/>
<feGaussianBlur stdDeviation="2"/>
<feComposite in2="hardAlpha" operator="out"/>
<feColorMatrix type="matrix" values="0 0 0 0 0 0 0 0 0 0 0 0 0 0 0 0 0 0 0.25 0"/>
<feBlend mode="normal" in2="BackgroundImageFix" result="effect1_dropShadow_296_2158"/>
<feBlend mode="normal" in="SourceGraphic" in2="effect1_dropShadow_296_2158" result="shape"/>
</filter>
</defs>
</svg>
