<svg width="326" height="78" viewBox="0 0 326 78" fill="none" xmlns="http://www.w3.org/2000/svg">
<g filter="url(#filter0_d_553_7372)">
<rect x="64" y="5.5" width="258" height="63" rx="20" fill="#FFDEA8"/>
<path d="M92.9531 43V31.7266H94.7031V41.4844H99.9922V43H92.9531ZM104.336 43.1406C103.799 43.1406 103.318 43.0391 102.891 42.8359C102.469 42.6276 102.135 42.3333 101.891 41.9531C101.646 41.5729 101.523 41.1276 101.523 40.6172V40.6016C101.523 39.8411 101.797 39.2474 102.344 38.8203C102.896 38.388 103.677 38.1406 104.688 38.0781L107.82 37.8906V39.0859L104.922 39.2734C104.339 39.3099 103.909 39.4349 103.633 39.6484C103.357 39.8568 103.219 40.151 103.219 40.5312V40.5469C103.219 40.9323 103.367 41.237 103.664 41.4609C103.961 41.6797 104.336 41.7891 104.789 41.7891C105.211 41.7891 105.586 41.7057 105.914 41.5391C106.247 41.3672 106.508 41.138 106.695 40.8516C106.883 40.5599 106.977 40.2318 106.977 39.8672V37.1953C106.977 36.7266 106.831 36.3698 106.539 36.125C106.253 35.875 105.826 35.75 105.258 35.75C104.784 35.75 104.396 35.8333 104.094 36C103.797 36.1667 103.599 36.401 103.5 36.7031L103.484 36.7266H101.852L101.859 36.6719C101.927 36.2031 102.112 35.7969 102.414 35.4531C102.721 35.1042 103.122 34.8333 103.617 34.6406C104.117 34.4479 104.688 34.3516 105.328 34.3516C106.042 34.3516 106.646 34.4661 107.141 34.6953C107.641 34.9193 108.018 35.2448 108.273 35.6719C108.534 36.0938 108.664 36.6016 108.664 37.1953V43H106.977V41.7969H106.852C106.685 42.0833 106.477 42.3281 106.227 42.5312C105.977 42.7292 105.693 42.8802 105.375 42.9844C105.057 43.0885 104.711 43.1406 104.336 43.1406ZM111.055 43V34.5156H112.75V35.7969H112.883C113.091 35.3438 113.398 34.9896 113.805 34.7344C114.211 34.4792 114.724 34.3516 115.344 34.3516C116.297 34.3516 117.026 34.625 117.531 35.1719C118.036 35.7188 118.289 36.4974 118.289 37.5078V43H116.586V37.9062C116.586 37.1979 116.438 36.6719 116.141 36.3281C115.849 35.9792 115.391 35.8047 114.766 35.8047C114.354 35.8047 113.997 35.8958 113.695 36.0781C113.393 36.2552 113.159 36.5104 112.992 36.8438C112.831 37.1719 112.75 37.5651 112.75 38.0234V43H111.055ZM124.234 45.9922C123.516 45.9922 122.891 45.8932 122.359 45.6953C121.833 45.4974 121.417 45.2214 121.109 44.8672C120.802 44.513 120.615 44.1016 120.547 43.6328L120.555 43.6172H122.273L122.281 43.6328C122.354 43.9245 122.56 44.1641 122.898 44.3516C123.237 44.5391 123.69 44.6328 124.258 44.6328C124.956 44.6328 125.5 44.474 125.891 44.1562C126.286 43.8385 126.484 43.3932 126.484 42.8203V41.1562H126.352C126.185 41.4583 125.971 41.7188 125.711 41.9375C125.451 42.151 125.154 42.3125 124.82 42.4219C124.487 42.5312 124.125 42.5859 123.734 42.5859C123.016 42.5859 122.391 42.4141 121.859 42.0703C121.333 41.7214 120.927 41.2422 120.641 40.6328C120.359 40.0182 120.219 39.3125 120.219 38.5156V38.5C120.219 37.6927 120.362 36.9792 120.648 36.3594C120.935 35.7344 121.344 35.2474 121.875 34.8984C122.406 34.5443 123.039 34.3672 123.773 34.3672C124.169 34.3672 124.531 34.4297 124.859 34.5547C125.193 34.6797 125.487 34.8568 125.742 35.0859C125.997 35.3151 126.208 35.5885 126.375 35.9062H126.477V34.5156H128.172V42.8281C128.172 43.4688 128.01 44.026 127.688 44.5C127.37 44.974 126.917 45.3411 126.328 45.6016C125.74 45.862 125.042 45.9922 124.234 45.9922ZM124.211 41.1797C124.69 41.1797 125.102 41.0677 125.445 40.8438C125.789 40.6146 126.052 40.2995 126.234 39.8984C126.422 39.4974 126.516 39.0339 126.516 38.5078V38.4922C126.516 37.9714 126.422 37.5078 126.234 37.1016C126.052 36.6953 125.789 36.3776 125.445 36.1484C125.102 35.9193 124.69 35.8047 124.211 35.8047C123.732 35.8047 123.323 35.9193 122.984 36.1484C122.651 36.3776 122.396 36.6953 122.219 37.1016C122.042 37.5026 121.953 37.9661 121.953 38.4922V38.5078C121.953 39.0339 122.042 39.4974 122.219 39.8984C122.396 40.2995 122.651 40.6146 122.984 40.8438C123.323 41.0677 123.732 41.1797 124.211 41.1797ZM130.695 43V31.1875H132.391V43H130.695ZM136.039 43L132.992 39.0234L134.25 37.9688L138.109 43H136.039ZM132.227 40.0859L132.156 38.0859H132.523L135.883 34.5156H137.875L134.047 38.3906L133.391 38.9297L132.227 40.0859ZM141.711 43.1406C141.174 43.1406 140.693 43.0391 140.266 42.8359C139.844 42.6276 139.51 42.3333 139.266 41.9531C139.021 41.5729 138.898 41.1276 138.898 40.6172V40.6016C138.898 39.8411 139.172 39.2474 139.719 38.8203C140.271 38.388 141.052 38.1406 142.062 38.0781L145.195 37.8906V39.0859L142.297 39.2734C141.714 39.3099 141.284 39.4349 141.008 39.6484C140.732 39.8568 140.594 40.151 140.594 40.5312V40.5469C140.594 40.9323 140.742 41.237 141.039 41.4609C141.336 41.6797 141.711 41.7891 142.164 41.7891C142.586 41.7891 142.961 41.7057 143.289 41.5391C143.622 41.3672 143.883 41.138 144.07 40.8516C144.258 40.5599 144.352 40.2318 144.352 39.8672V37.1953C144.352 36.7266 144.206 36.3698 143.914 36.125C143.628 35.875 143.201 35.75 142.633 35.75C142.159 35.75 141.771 35.8333 141.469 36C141.172 36.1667 140.974 36.401 140.875 36.7031L140.859 36.7266H139.227L139.234 36.6719C139.302 36.2031 139.487 35.7969 139.789 35.4531C140.096 35.1042 140.497 34.8333 140.992 34.6406C141.492 34.4479 142.062 34.3516 142.703 34.3516C143.417 34.3516 144.021 34.4661 144.516 34.6953C145.016 34.9193 145.393 35.2448 145.648 35.6719C145.909 36.0938 146.039 36.6016 146.039 37.1953V43H144.352V41.7969H144.227C144.06 42.0833 143.852 42.3281 143.602 42.5312C143.352 42.7292 143.068 42.8802 142.75 42.9844C142.432 43.0885 142.086 43.1406 141.711 43.1406ZM148.508 43V31.1875H150.203V35.7969H150.336C150.544 35.3438 150.852 34.9896 151.258 34.7344C151.664 34.4792 152.177 34.3516 152.797 34.3516C153.427 34.3516 153.961 34.474 154.398 34.7188C154.836 34.9635 155.169 35.3229 155.398 35.7969C155.628 36.2656 155.742 36.8359 155.742 37.5078V43H154.039V37.9062C154.039 37.1979 153.891 36.6719 153.594 36.3281C153.302 35.9792 152.844 35.8047 152.219 35.8047C151.807 35.8047 151.451 35.8958 151.148 36.0781C150.846 36.2552 150.612 36.5104 150.445 36.8438C150.284 37.1719 150.203 37.5651 150.203 38.0234V43H148.508ZM164.789 43.1406C164.253 43.1406 163.771 43.0391 163.344 42.8359C162.922 42.6276 162.589 42.3333 162.344 41.9531C162.099 41.5729 161.977 41.1276 161.977 40.6172V40.6016C161.977 39.8411 162.25 39.2474 162.797 38.8203C163.349 38.388 164.13 38.1406 165.141 38.0781L168.273 37.8906V39.0859L165.375 39.2734C164.792 39.3099 164.362 39.4349 164.086 39.6484C163.81 39.8568 163.672 40.151 163.672 40.5312V40.5469C163.672 40.9323 163.82 41.237 164.117 41.4609C164.414 41.6797 164.789 41.7891 165.242 41.7891C165.664 41.7891 166.039 41.7057 166.367 41.5391C166.701 41.3672 166.961 41.138 167.148 40.8516C167.336 40.5599 167.43 40.2318 167.43 39.8672V37.1953C167.43 36.7266 167.284 36.3698 166.992 36.125C166.706 35.875 166.279 35.75 165.711 35.75C165.237 35.75 164.849 35.8333 164.547 36C164.25 36.1667 164.052 36.401 163.953 36.7031L163.938 36.7266H162.305L162.312 36.6719C162.38 36.2031 162.565 35.7969 162.867 35.4531C163.174 35.1042 163.576 34.8333 164.07 34.6406C164.57 34.4479 165.141 34.3516 165.781 34.3516C166.495 34.3516 167.099 34.4661 167.594 34.6953C168.094 34.9193 168.471 35.2448 168.727 35.6719C168.987 36.0938 169.117 36.6016 169.117 37.1953V43H167.43V41.7969H167.305C167.138 42.0833 166.93 42.3281 166.68 42.5312C166.43 42.7292 166.146 42.8802 165.828 42.9844C165.51 43.0885 165.164 43.1406 164.789 43.1406ZM172.789 43L170.453 34.5156H172.164L173.68 41.0625H173.812L175.555 34.5156H177.172L178.922 41.0625H179.047L180.57 34.5156H182.25L179.922 43H178.164L176.406 36.6719H176.273L174.531 43H172.789ZM186.086 43.1406C185.549 43.1406 185.068 43.0391 184.641 42.8359C184.219 42.6276 183.885 42.3333 183.641 41.9531C183.396 41.5729 183.273 41.1276 183.273 40.6172V40.6016C183.273 39.8411 183.547 39.2474 184.094 38.8203C184.646 38.388 185.427 38.1406 186.438 38.0781L189.57 37.8906V39.0859L186.672 39.2734C186.089 39.3099 185.659 39.4349 185.383 39.6484C185.107 39.8568 184.969 40.151 184.969 40.5312V40.5469C184.969 40.9323 185.117 41.237 185.414 41.4609C185.711 41.6797 186.086 41.7891 186.539 41.7891C186.961 41.7891 187.336 41.7057 187.664 41.5391C187.997 41.3672 188.258 41.138 188.445 40.8516C188.633 40.5599 188.727 40.2318 188.727 39.8672V37.1953C188.727 36.7266 188.581 36.3698 188.289 36.125C188.003 35.875 187.576 35.75 187.008 35.75C186.534 35.75 186.146 35.8333 185.844 36C185.547 36.1667 185.349 36.401 185.25 36.7031L185.234 36.7266H183.602L183.609 36.6719C183.677 36.2031 183.862 35.7969 184.164 35.4531C184.471 35.1042 184.872 34.8333 185.367 34.6406C185.867 34.4479 186.438 34.3516 187.078 34.3516C187.792 34.3516 188.396 34.4661 188.891 34.6953C189.391 34.9193 189.768 35.2448 190.023 35.6719C190.284 36.0938 190.414 36.6016 190.414 37.1953V43H188.727V41.7969H188.602C188.435 42.0833 188.227 42.3281 187.977 42.5312C187.727 42.7292 187.443 42.8802 187.125 42.9844C186.807 43.0885 186.461 43.1406 186.086 43.1406ZM192.883 43V31.1875H194.578V43H192.883ZM202.289 45.9844C202.185 45.9844 202.073 45.9792 201.953 45.9688C201.833 45.9635 201.719 45.9557 201.609 45.9453V44.6094C201.693 44.6198 201.784 44.6276 201.883 44.6328C201.987 44.638 202.086 44.6406 202.18 44.6406C202.576 44.6406 202.896 44.5469 203.141 44.3594C203.385 44.1771 203.57 43.8724 203.695 43.4453L203.82 43.0078L200.742 34.5156H202.578L204.977 42.1641L204.445 41.2891H205.094L204.57 42.1641L206.961 34.5156H208.75L205.594 43.3203C205.354 43.9974 205.089 44.5286 204.797 44.9141C204.505 45.3047 204.159 45.5807 203.758 45.7422C203.357 45.9036 202.867 45.9844 202.289 45.9844ZM212.508 43.1406C211.971 43.1406 211.49 43.0391 211.062 42.8359C210.641 42.6276 210.307 42.3333 210.062 41.9531C209.818 41.5729 209.695 41.1276 209.695 40.6172V40.6016C209.695 39.8411 209.969 39.2474 210.516 38.8203C211.068 38.388 211.849 38.1406 212.859 38.0781L215.992 37.8906V39.0859L213.094 39.2734C212.51 39.3099 212.081 39.4349 211.805 39.6484C211.529 39.8568 211.391 40.151 211.391 40.5312V40.5469C211.391 40.9323 211.539 41.237 211.836 41.4609C212.133 41.6797 212.508 41.7891 212.961 41.7891C213.383 41.7891 213.758 41.7057 214.086 41.5391C214.419 41.3672 214.68 41.138 214.867 40.8516C215.055 40.5599 215.148 40.2318 215.148 39.8672V37.1953C215.148 36.7266 215.003 36.3698 214.711 36.125C214.424 35.875 213.997 35.75 213.43 35.75C212.956 35.75 212.568 35.8333 212.266 36C211.969 36.1667 211.771 36.401 211.672 36.7031L211.656 36.7266H210.023L210.031 36.6719C210.099 36.2031 210.284 35.7969 210.586 35.4531C210.893 35.1042 211.294 34.8333 211.789 34.6406C212.289 34.4479 212.859 34.3516 213.5 34.3516C214.214 34.3516 214.818 34.4661 215.312 34.6953C215.812 34.9193 216.19 35.2448 216.445 35.6719C216.706 36.0938 216.836 36.6016 216.836 37.1953V43H215.148V41.7969H215.023C214.857 42.0833 214.648 42.3281 214.398 42.5312C214.148 42.7292 213.865 42.8802 213.547 42.9844C213.229 43.0885 212.883 43.1406 212.508 43.1406ZM219.227 43V34.5156H220.922V35.7969H221.055C221.263 35.3438 221.57 34.9896 221.977 34.7344C222.383 34.4792 222.896 34.3516 223.516 34.3516C224.469 34.3516 225.198 34.625 225.703 35.1719C226.208 35.7188 226.461 36.4974 226.461 37.5078V43H224.758V37.9062C224.758 37.1979 224.609 36.6719 224.312 36.3281C224.021 35.9792 223.562 35.8047 222.938 35.8047C222.526 35.8047 222.169 35.8958 221.867 36.0781C221.565 36.2552 221.331 36.5104 221.164 36.8438C221.003 37.1719 220.922 37.5651 220.922 38.0234V43H219.227ZM232.406 45.9922C231.688 45.9922 231.062 45.8932 230.531 45.6953C230.005 45.4974 229.589 45.2214 229.281 44.8672C228.974 44.513 228.786 44.1016 228.719 43.6328L228.727 43.6172H230.445L230.453 43.6328C230.526 43.9245 230.732 44.1641 231.07 44.3516C231.409 44.5391 231.862 44.6328 232.43 44.6328C233.128 44.6328 233.672 44.474 234.062 44.1562C234.458 43.8385 234.656 43.3932 234.656 42.8203V41.1562H234.523C234.357 41.4583 234.143 41.7188 233.883 41.9375C233.622 42.151 233.326 42.3125 232.992 42.4219C232.659 42.5312 232.297 42.5859 231.906 42.5859C231.188 42.5859 230.562 42.4141 230.031 42.0703C229.505 41.7214 229.099 41.2422 228.812 40.6328C228.531 40.0182 228.391 39.3125 228.391 38.5156V38.5C228.391 37.6927 228.534 36.9792 228.82 36.3594C229.107 35.7344 229.516 35.2474 230.047 34.8984C230.578 34.5443 231.211 34.3672 231.945 34.3672C232.341 34.3672 232.703 34.4297 233.031 34.5547C233.365 34.6797 233.659 34.8568 233.914 35.0859C234.169 35.3151 234.38 35.5885 234.547 35.9062H234.648V34.5156H236.344V42.8281C236.344 43.4688 236.182 44.026 235.859 44.5C235.542 44.974 235.089 45.3411 234.5 45.6016C233.911 45.862 233.214 45.9922 232.406 45.9922ZM232.383 41.1797C232.862 41.1797 233.273 41.0677 233.617 40.8438C233.961 40.6146 234.224 40.2995 234.406 39.8984C234.594 39.4974 234.688 39.0339 234.688 38.5078V38.4922C234.688 37.9714 234.594 37.5078 234.406 37.1016C234.224 36.6953 233.961 36.3776 233.617 36.1484C233.273 35.9193 232.862 35.8047 232.383 35.8047C231.904 35.8047 231.495 35.9193 231.156 36.1484C230.823 36.3776 230.568 36.6953 230.391 37.1016C230.214 37.5026 230.125 37.9661 230.125 38.4922V38.5078C230.125 39.0339 230.214 39.4974 230.391 39.8984C230.568 40.2995 230.823 40.6146 231.156 40.8438C231.495 41.0677 231.904 41.1797 232.383 41.1797ZM247.664 43.1406C247.07 43.1406 246.549 43.0104 246.102 42.75C245.654 42.4896 245.305 42.1276 245.055 41.6641H244.922V43H243.227V31.1875H244.922V35.8594H245.055C245.279 35.401 245.622 35.0391 246.086 34.7734C246.555 34.5026 247.081 34.3672 247.664 34.3672C248.383 34.3672 249.005 34.5469 249.531 34.9062C250.057 35.2604 250.464 35.7656 250.75 36.4219C251.036 37.0781 251.18 37.8542 251.18 38.75V38.7656C251.18 39.6562 251.034 40.4297 250.742 41.0859C250.456 41.7422 250.049 42.25 249.523 42.6094C248.997 42.9635 248.378 43.1406 247.664 43.1406ZM247.18 41.6875C247.654 41.6875 248.06 41.5703 248.398 41.3359C248.737 41.1016 248.995 40.7656 249.172 40.3281C249.354 39.8906 249.445 39.3698 249.445 38.7656V38.75C249.445 38.1406 249.354 37.6198 249.172 37.1875C248.995 36.75 248.737 36.4141 248.398 36.1797C248.06 35.9401 247.654 35.8203 247.18 35.8203C246.711 35.8203 246.305 35.9401 245.961 36.1797C245.617 36.4141 245.354 36.75 245.172 37.1875C244.99 37.625 244.898 38.1458 244.898 38.75V38.7656C244.898 39.3646 244.99 39.8854 245.172 40.3281C245.354 40.7656 245.617 41.1016 245.961 41.3359C246.305 41.5703 246.711 41.6875 247.18 41.6875ZM255.523 43.1406C254.987 43.1406 254.505 43.0391 254.078 42.8359C253.656 42.6276 253.323 42.3333 253.078 41.9531C252.833 41.5729 252.711 41.1276 252.711 40.6172V40.6016C252.711 39.8411 252.984 39.2474 253.531 38.8203C254.083 38.388 254.865 38.1406 255.875 38.0781L259.008 37.8906V39.0859L256.109 39.2734C255.526 39.3099 255.096 39.4349 254.82 39.6484C254.544 39.8568 254.406 40.151 254.406 40.5312V40.5469C254.406 40.9323 254.555 41.237 254.852 41.4609C255.148 41.6797 255.523 41.7891 255.977 41.7891C256.398 41.7891 256.773 41.7057 257.102 41.5391C257.435 41.3672 257.695 41.138 257.883 40.8516C258.07 40.5599 258.164 40.2318 258.164 39.8672V37.1953C258.164 36.7266 258.018 36.3698 257.727 36.125C257.44 35.875 257.013 35.75 256.445 35.75C255.971 35.75 255.583 35.8333 255.281 36C254.984 36.1667 254.786 36.401 254.688 36.7031L254.672 36.7266H253.039L253.047 36.6719C253.115 36.2031 253.299 35.7969 253.602 35.4531C253.909 35.1042 254.31 34.8333 254.805 34.6406C255.305 34.4479 255.875 34.3516 256.516 34.3516C257.229 34.3516 257.833 34.4661 258.328 34.6953C258.828 34.9193 259.206 35.2448 259.461 35.6719C259.721 36.0938 259.852 36.6016 259.852 37.1953V43H258.164V41.7969H258.039C257.872 42.0833 257.664 42.3281 257.414 42.5312C257.164 42.7292 256.88 42.8802 256.562 42.9844C256.245 43.0885 255.898 43.1406 255.523 43.1406ZM265.828 45.9922C265.109 45.9922 264.484 45.8932 263.953 45.6953C263.427 45.4974 263.01 45.2214 262.703 44.8672C262.396 44.513 262.208 44.1016 262.141 43.6328L262.148 43.6172H263.867L263.875 43.6328C263.948 43.9245 264.154 44.1641 264.492 44.3516C264.831 44.5391 265.284 44.6328 265.852 44.6328C266.549 44.6328 267.094 44.474 267.484 44.1562C267.88 43.8385 268.078 43.3932 268.078 42.8203V41.1562H267.945C267.779 41.4583 267.565 41.7188 267.305 41.9375C267.044 42.151 266.747 42.3125 266.414 42.4219C266.081 42.5312 265.719 42.5859 265.328 42.5859C264.609 42.5859 263.984 42.4141 263.453 42.0703C262.927 41.7214 262.521 41.2422 262.234 40.6328C261.953 40.0182 261.812 39.3125 261.812 38.5156V38.5C261.812 37.6927 261.956 36.9792 262.242 36.3594C262.529 35.7344 262.938 35.2474 263.469 34.8984C264 34.5443 264.633 34.3672 265.367 34.3672C265.763 34.3672 266.125 34.4297 266.453 34.5547C266.786 34.6797 267.081 34.8568 267.336 35.0859C267.591 35.3151 267.802 35.5885 267.969 35.9062H268.07V34.5156H269.766V42.8281C269.766 43.4688 269.604 44.026 269.281 44.5C268.964 44.974 268.51 45.3411 267.922 45.6016C267.333 45.862 266.635 45.9922 265.828 45.9922ZM265.805 41.1797C266.284 41.1797 266.695 41.0677 267.039 40.8438C267.383 40.6146 267.646 40.2995 267.828 39.8984C268.016 39.4974 268.109 39.0339 268.109 38.5078V38.4922C268.109 37.9714 268.016 37.5078 267.828 37.1016C267.646 36.6953 267.383 36.3776 267.039 36.1484C266.695 35.9193 266.284 35.8047 265.805 35.8047C265.326 35.8047 264.917 35.9193 264.578 36.1484C264.245 36.3776 263.99 36.6953 263.812 37.1016C263.635 37.5026 263.547 37.9661 263.547 38.4922V38.5078C263.547 39.0339 263.635 39.4974 263.812 39.8984C263.99 40.2995 264.245 40.6146 264.578 40.8438C264.917 41.0677 265.326 41.1797 265.805 41.1797ZM275.039 43.1641C274.404 43.1641 273.867 43.0417 273.43 42.7969C272.997 42.5469 272.672 42.1875 272.453 41.7188C272.24 41.2448 272.133 40.6745 272.133 40.0078V34.5156H273.828V39.6094C273.828 40.3073 273.966 40.8307 274.242 41.1797C274.518 41.5286 274.969 41.7031 275.594 41.7031C276.042 41.7031 276.419 41.6146 276.727 41.4375C277.039 41.2552 277.273 41 277.43 40.6719C277.586 40.3385 277.664 39.9453 277.664 39.4922V34.5156H279.367V43H277.664V41.7188H277.539C277.336 42.1719 277.023 42.526 276.602 42.7812C276.18 43.0365 275.659 43.1641 275.039 43.1641ZM284.891 43.1641C284.208 43.1641 283.615 43.0651 283.109 42.8672C282.604 42.6641 282.203 42.3854 281.906 42.0312C281.609 41.6719 281.435 41.2552 281.383 40.7812V40.7656H283.086V40.7812C283.195 41.099 283.404 41.3568 283.711 41.5547C284.018 41.7526 284.424 41.8516 284.93 41.8516C285.279 41.8516 285.583 41.8021 285.844 41.7031C286.109 41.6042 286.318 41.4661 286.469 41.2891C286.62 41.112 286.695 40.9089 286.695 40.6797V40.6641C286.695 40.3984 286.589 40.1745 286.375 39.9922C286.161 39.8099 285.81 39.6615 285.32 39.5469L283.961 39.2344C283.164 39.0521 282.573 38.7734 282.188 38.3984C281.807 38.0182 281.617 37.5182 281.617 36.8984V36.8906C281.617 36.3958 281.758 35.9583 282.039 35.5781C282.32 35.1927 282.708 34.8932 283.203 34.6797C283.703 34.4609 284.273 34.3516 284.914 34.3516C285.56 34.3516 286.122 34.4531 286.602 34.6562C287.086 34.8542 287.469 35.1302 287.75 35.4844C288.031 35.8333 288.198 36.2396 288.25 36.7031V36.7109H286.625V36.6953C286.547 36.3984 286.359 36.151 286.062 35.9531C285.771 35.7552 285.385 35.6562 284.906 35.6562C284.599 35.6562 284.326 35.7057 284.086 35.8047C283.846 35.8984 283.656 36.0312 283.516 36.2031C283.38 36.3698 283.312 36.5677 283.312 36.7969V36.8125C283.312 37.0781 283.417 37.2969 283.625 37.4688C283.833 37.6406 284.174 37.7839 284.648 37.8984L286 38.2031C286.812 38.3958 287.417 38.6745 287.812 39.0391C288.214 39.4036 288.414 39.8932 288.414 40.5078V40.5234C288.414 41.0443 288.26 41.5052 287.953 41.9062C287.646 42.3021 287.227 42.612 286.695 42.8359C286.169 43.0547 285.568 43.1641 284.891 43.1641ZM291.039 39.2656L290.875 31.7188H292.781L292.625 39.2656H291.039ZM291.836 43.1719C291.471 43.1719 291.177 43.0651 290.953 42.8516C290.734 42.638 290.625 42.3568 290.625 42.0078C290.625 41.6536 290.734 41.3698 290.953 41.1562C291.177 40.9375 291.471 40.8281 291.836 40.8281C292.195 40.8281 292.484 40.9375 292.703 41.1562C292.927 41.3698 293.039 41.6536 293.039 42.0078C293.039 42.3568 292.927 42.638 292.703 42.8516C292.484 43.0651 292.195 43.1719 291.836 43.1719Z" fill="#0F2D3E"/>
<rect x="4" y="2" width="70" height="70" rx="35" fill="#FFDEA8"/>
<path d="M38.374 43.8924C38.1576 43.7142 37.5021 43.1437 37.4483 42.1455C37.3944 41.1473 37.5602 40.969 37.6647 40.7907C37.7691 40.6125 38.1637 40.2861 38.8549 40.1966C39.3939 40.1767 39.7067 40.2124 40.088 40.3328C40.261 40.3875 40.4289 40.4635 40.5689 40.5788C41.07 40.9914 41.1882 41.582 41.1392 42.2524C41.067 43.2388 40.49 43.7242 40.0211 44.0112C39.2464 44.4855 38.5904 44.0707 38.374 43.8924Z" fill="#212121"/>
<path d="M32.6512 39.1392V39.1392C33.4811 39.8153 33.199 41.1467 32.1662 41.4281L32.0621 41.4565" stroke="#0F2D3E" stroke-width="3" stroke-linecap="round"/>
<path d="M45.5635 39.1392V39.1392C44.7336 39.8153 45.0157 41.1467 46.0485 41.4281L46.1526 41.4565" stroke="#0F2D3E" stroke-width="3" stroke-linecap="round"/>
<path d="M39.2998 26.9419C46.8805 26.9419 52.869 32.0646 53.4072 37.5981C53.4067 40.3771 52.9422 43.0821 50.9697 45.0972C48.9955 47.114 45.4802 48.4722 39.2998 48.4722C33.1164 48.4722 29.6308 47.2109 27.6875 45.2915C25.7478 43.3755 25.312 40.7709 25.3115 37.9907C25.8622 32.5544 31.7289 26.9419 39.2998 26.9419Z" fill="#FFFBF6" stroke="#0F2D3E" stroke-width="0.3" stroke-linejoin="round"/>
<path d="M35.9334 26.8153L36.0777 27.2432L37.1958 27.0292L38.7467 26.9223H39.3959L40.7304 26.9698L42.4496 27.1481L42.63 26.9223C42.7007 26.8206 42.7289 26.7521 42.7742 26.6252C42.8311 26.4827 42.8511 26.3933 42.8704 26.2212C42.8803 26.0635 42.8879 25.978 42.8704 25.7815C42.861 25.6875 42.8508 25.632 42.8103 25.52C42.7501 25.3983 42.7077 25.3307 42.618 25.211C42.5379 25.1201 42.4865 25.0717 42.3655 24.9971C42.2304 24.9309 42.159 24.8915 41.9687 24.8545C41.795 24.8267 41.6976 24.8196 41.5239 24.8545C41.3955 24.877 41.3248 24.9054 41.1993 24.9615L40.8867 25.1278L40.7495 25.2113C40.6505 25.2715 40.5218 25.2456 40.4539 25.1516L40.3096 24.9258C40.2565 24.8456 40.2189 24.8044 40.1413 24.7357C39.9945 24.6296 39.9159 24.5673 39.7205 24.498C39.6362 24.4669 39.5878 24.4512 39.4921 24.4386C39.3465 24.4249 39.2649 24.4208 39.1194 24.4386C39.0115 24.4557 38.9511 24.4564 38.8429 24.5099C38.7371 24.5563 38.6787 24.5895 38.5784 24.6763C38.4471 24.7895 38.3754 24.8619 38.2537 25.0209C38.1203 25.1874 37.889 25.2387 37.6977 25.1442L37.6165 25.1041C37.4479 25.011 37.3403 24.9916 37.1717 24.9734C36.998 24.9553 36.9006 24.9512 36.7269 24.9734C36.4511 25.0253 36.2895 25.078 36.0777 25.3774C35.9424 25.601 35.8742 25.7236 35.8492 26.0785C35.8429 26.3984 35.8599 26.5609 35.9334 26.8153Z" fill="#FFFBF6" stroke="#0F2D3E" stroke-width="0.3"/>
<path d="M32.2424 37.8436C32.4588 37.7485 32.6753 37.7129 32.8195 37.7129C33.0571 37.7248 33.1562 37.7179 33.3846 37.8198C33.613 37.9218 33.652 37.9823 33.8655 38.2001" stroke="#0F2D3E" stroke-width="0.3" stroke-linecap="round"/>
<path d="M45.852 38.0814C45.6356 37.9863 45.4192 37.9507 45.275 37.9507C45.0373 37.9626 44.9383 37.9557 44.7099 38.0576C44.4815 38.1596 44.4425 38.22 44.229 38.4379" stroke="#0F2D3E" stroke-width="0.3" stroke-linecap="round"/>
<path d="M47.7382 48.4439C47.7618 47.9752 47.7571 47.7124 47.7382 47.2437C46.9134 47.5119 46.4234 47.6568 45.5193 47.9091C45.464 48.3695 45.4072 48.7369 45.466 49.1569C45.5655 49.5555 45.6669 49.8937 45.8627 50.0958C46.1392 50.381 46.4158 50.5473 46.8606 50.4879C47.3415 50.3215 47.4368 50.0824 47.5819 49.6561C47.7086 49.1124 47.7412 48.8476 47.7382 48.4439Z" fill="#FFFBF6" stroke="#0F2D3E" stroke-width="0.3" stroke-linecap="round"/>
<path d="M31.0201 48.3962C30.9965 47.9274 31.0012 47.8667 31.0201 47.3979L33.2924 47.9803C33.3477 48.4406 33.2924 48.6814 33.2443 49.1211C33.1601 49.4657 33.1721 49.6083 32.8956 50.048C32.6789 50.3927 32.3425 50.4996 31.8977 50.4402C31.4529 50.3808 31.2966 50.0005 31.1764 49.6083C31.0498 49.0647 31.0536 49.0617 31.0201 48.3962Z" fill="#FFFBF6" stroke="#0F2D3E" stroke-width="0.3" stroke-linecap="round"/>
<path d="M37.376 41.7177C37.3989 41.0427 37.5548 40.7356 38.2536 40.3986C39.1273 40.0461 39.9248 40.1728 40.3335 40.3986C40.7423 40.6243 41.0789 41.0878 41.115 41.7177C41.1511 42.3475 40.9348 43.1675 40.538 43.6072C40.1113 44.0802 39.576 44.4034 39.0471 44.2846C38.5182 44.1657 38.4133 43.9399 38.1695 43.631C37.9256 43.322 37.353 42.3926 37.376 41.7177Z" fill="#0F2D3E" stroke="#0F2D3E" stroke-linecap="round"/>
<ellipse cx="31.6413" cy="40.6364" rx="1.76732" ry="0.926933" fill="#FFC1C3"/>
<ellipse cx="46.8139" cy="40.6364" rx="1.76732" ry="0.926933" fill="#FFC1C3"/>
<path d="M32.6272 39.1152L34.1845 40.3689C34.3739 40.5213 34.3128 40.8239 34.0792 40.8909L32.026 41.4801" stroke="#0F2D3E" stroke-width="0.3" stroke-linecap="round"/>
<path d="M45.5875 39.1392L44.0302 40.3928C43.8408 40.5452 43.9019 40.8478 44.1355 40.9148L46.1887 41.504" stroke="#0F2D3E" stroke-width="0.3" stroke-linecap="round"/>
<path d="M40.3577 27.814C40.778 28.9867 41.3125 29.3566 42.7382 29.5609" stroke="#F5E3CD" stroke-width="0.3" stroke-linecap="round"/>
<path d="M38.9511 28.0635C38.733 28.862 38.795 29.3211 39.2516 30.155" stroke="#F5E3CD" stroke-width="0.3" stroke-linecap="round"/>
<path d="M37.8089 27.9087C37.017 28.8658 36.464 29.2531 35.3082 29.715" stroke="#F5E3CD" stroke-width="0.3" stroke-linecap="round"/>
<path d="M37.4483 42.2525C37.316 41.7415 37.3881 41.2424 37.4483 41.1592C37.5084 41.0761 37.9532 41.0998 37.9532 41.0998C37.9532 41.0998 38.2951 41.1086 38.5063 41.1592C38.7113 41.2084 38.8306 41.2415 39.0112 41.3494C39.2641 41.5005 39.3238 41.5395 39.5402 41.8842C39.7566 42.2288 39.8407 42.8943 39.8408 43.227C39.8408 43.5598 39.6844 44.2015 39.5763 44.2728C39.4681 44.3441 39.0353 44.3203 38.7587 44.2015C38.4822 44.0826 38.1696 43.6667 38.0494 43.4885C37.9292 43.3102 37.5805 42.7635 37.4483 42.2525Z" fill="#FFC1C3" stroke="#FFC1C3" stroke-linecap="round"/>
<path d="M23.7382 28.2558L25.767 29.3507C26.2188 29.5946 26.0542 30.203 25.545 30.1373C24.7989 30.0412 24.0344 29.8954 23.1717 29.7418C22.8752 29.689 22.686 29.3876 22.7889 29.1045C22.8912 28.8234 22.9956 28.6015 23.1375 28.3863C23.2676 28.1892 23.5304 28.1437 23.7382 28.2558Z" fill="white" stroke="#0F2D3E" stroke-width="0.3" stroke-linecap="round"/>
<path d="M52.4743 25.1052L50.9377 27.8816C50.7083 28.2961 50.1184 28.1813 50.1006 27.7073C50.0667 26.8056 50.1187 25.8875 50.1596 24.8205C50.1699 24.5515 50.3901 24.337 50.6595 24.3441C51.1767 24.3577 51.8004 24.3993 52.2613 24.5168C52.5202 24.5829 52.6034 24.872 52.4743 25.1052Z" fill="white" stroke="#0F2D3E" stroke-width="0.3" stroke-linecap="round"/>
<path d="M55.2214 27.6514L52.444 29.2229C52.029 29.4577 51.5852 29.0547 51.8207 28.6419C52.2687 27.8562 52.7986 27.1008 53.3977 26.2129C53.5487 25.9891 53.8503 25.9204 54.0767 26.0661C54.5105 26.3452 55.02 26.7031 55.3503 27.0414C55.5359 27.2314 55.4542 27.5197 55.2214 27.6514Z" fill="white" stroke="#0F2D3E" stroke-width="0.3" stroke-linecap="round"/>
<path d="M56.2024 31.2234L52.941 30.9977C52.4409 30.9631 52.32 30.3587 52.7814 30.1667C53.5928 29.8289 54.5059 29.4763 55.4207 29.0711C55.6682 28.9615 55.9624 29.0607 56.0792 29.3039C56.2985 29.7605 56.5395 30.32 56.6436 30.7753C56.7039 31.0392 56.475 31.2422 56.2024 31.2234Z" fill="white" stroke="#0F2D3E" stroke-width="0.3" stroke-linecap="round"/>
<path d="M25.9619 25.5012L26.9558 27.57C27.1768 28.0299 26.6832 28.4229 26.3092 28.0735C25.7609 27.5615 25.2275 26.9984 24.6189 26.3716C24.41 26.1565 24.4345 25.8043 24.6845 25.6358C24.9348 25.467 25.1514 25.3476 25.3942 25.2556C25.6174 25.1709 25.8596 25.2881 25.9619 25.5012Z" fill="white" stroke="#0F2D3E" stroke-width="0.3" stroke-linecap="round"/>
<path d="M29.1656 24.5765L29.1656 27.6094C29.1656 28.1252 28.5864 28.2432 28.4265 27.7514C28.1156 26.7949 27.8458 25.7384 27.5561 24.7605C27.4712 24.4738 27.6511 24.1717 27.949 24.1327C28.2543 24.0927 28.5051 24.0826 28.7677 24.1097C29.0021 24.1339 29.1656 24.3427 29.1656 24.5765Z" fill="white" stroke="#0F2D3E" stroke-width="0.3" stroke-linecap="round"/>
<path d="M23.5381 35.0747C24.4299 34.697 25.0246 34.6993 26.171 34.8965C26.3502 34.9154 26.3656 34.964 26.3393 35.0747L26.171 35.7283C26.1026 35.8671 26.1548 35.9304 26.4235 36.0135C26.732 36.091 27.0264 36.2095 27.6618 36.4889C27.9299 36.5952 27.9769 36.6941 27.8422 36.9524L27.4574 37.3445C27.3054 37.4755 27.2879 37.557 27.3613 37.7129C27.6265 38.1588 27.8013 38.6993 27.8422 38.9013C27.8831 39.1033 27.9298 39.1761 27.6618 39.2459L27.2531 39.3172C27.0387 39.3343 26.9876 39.3922 26.9645 39.543L27.0246 40.7908L27.0242 40.8C27.0163 40.9768 27.0117 41.0787 26.7601 41.1236H26.2552C26.0678 41.1336 26.0074 41.1834 25.9426 41.3137C25.8521 41.4449 25.8002 41.5657 25.7021 41.9792C25.6528 42.1862 25.5664 42.2571 25.3655 42.3476C25.1482 42.3757 25.0224 42.3774 24.7884 42.3476C24.4972 42.3213 24.3277 42.2642 24.007 42.0386C23.8234 41.9188 23.7207 41.909 23.5381 41.9792L22.6845 42.4783C22.4469 42.5528 22.3275 42.5458 22.1675 42.3476L21.7106 41.7415C21.6061 41.6365 21.5316 41.6047 21.362 41.6108L20.6046 41.6702C20.4522 41.6571 20.4036 41.6091 20.3881 41.4444L20.328 40.4105C20.2834 40.1927 20.2329 40.0902 19.9072 40.0897H19.4143C19.1791 40.1002 19.0536 40.0303 19.1618 39.7926L19.4864 38.9013C19.5511 38.7141 19.5653 38.6155 19.3061 38.521L18.6689 38.2358C18.5062 38.0906 18.4587 38.0097 18.5367 37.8674C18.9505 37.1397 19.1679 36.7139 19.9072 36.3819C20.0845 36.2684 20.1213 36.1877 20.0756 36.0135C20.0575 35.8394 20.02 35.6699 19.9072 35.253C19.8954 35.072 19.9586 34.9981 20.328 34.9678L21.4702 34.6826C21.9953 34.5611 22.2937 34.5837 22.8408 34.9678C23.0862 35.2149 23.2418 35.2161 23.5381 35.0747Z" fill="#F3C430" stroke="#0F2D3E" stroke-width="0.3"/>
<path d="M50.2884 37.3801L51.2502 36.2986C51.4405 36.0758 51.4934 35.9885 51.5508 35.8589C51.5366 35.4853 51.4185 35.1103 51.659 35.0152C51.8994 34.9201 52.1365 35.0362 52.3322 34.7537C52.4385 34.5839 52.528 34.558 52.741 34.6349C53.0415 34.6071 53.27 34.6349 53.5104 34.5636C53.7509 34.4923 53.8527 34.5402 53.9793 34.6943L54.34 35.1103C54.5311 35.2691 54.6816 35.2673 54.9892 35.1816C55.8296 34.9813 56.3369 34.9379 57.2735 34.9201C57.5254 34.8882 57.6063 34.9159 57.5741 35.0984L57.4779 35.7044C57.4238 35.945 57.4779 35.954 57.8025 36.0847C58.1271 36.2154 59.1971 36.6908 59.1971 36.6908C59.4877 36.8253 59.6115 36.9058 59.3775 37.1067L58.8605 37.5108C58.7898 37.5625 58.8605 37.5108 58.9927 37.8198C59.125 38.1287 59.3174 38.6695 59.3775 39.0319C59.4376 39.3943 59.39 39.3147 59.2572 39.329H58.8605C58.637 39.3174 58.6922 39.3765 58.6922 39.5785V40.8382C58.674 41.1091 58.6315 41.2014 58.4758 41.2185H57.9949C57.7529 41.2228 57.6479 41.2604 57.5741 41.4562L57.1773 42.0504C56.9946 42.279 56.8423 42.3294 56.468 42.2643L55.8308 42.0504C55.5731 41.9529 55.4426 41.9494 55.2417 42.0504L54.2919 42.5614C54.0919 42.6157 54.0104 42.5803 53.8831 42.4782L53.3782 41.9315C53.1749 41.7559 53.0517 41.6934 52.8011 41.7057H52.1038C51.9288 41.7191 51.8935 41.6534 51.8994 41.4562V40.5768C51.9031 40.3466 51.8564 40.2605 51.659 40.2084L51.0578 40.1252C50.8402 40.0422 50.7731 39.9604 50.8174 39.7093L51.0578 38.7586C51.0606 38.5947 51.0172 38.5252 50.8895 38.4258L50.2884 37.9861C50.1086 37.7495 50.0919 37.6168 50.2884 37.3801Z" fill="#F3C430" stroke="#0F2D3E" stroke-width="0.3"/>
<path d="M36.5622 27.5609C36.4345 27.5701 36.3265 27.2927 36.1189 26.6829C38.2599 26.1888 40.3671 26.2564 42.5459 26.5731C42.5372 26.7963 42.2254 27.1118 42.0697 27.5609H36.5622Z" fill="#FFFBF6"/>
</g>
<defs>
<filter id="filter0_d_553_7372" x="0" y="0" width="326" height="78" filterUnits="userSpaceOnUse" color-interpolation-filters="sRGB">
<feFlood flood-opacity="0" result="BackgroundImageFix"/>
<feColorMatrix in="SourceAlpha" type="matrix" values="0 0 0 0 0 0 0 0 0 0 0 0 0 0 0 0 0 0 127 0" result="hardAlpha"/>
<feOffset dy="2"/>
<feGaussianBlur stdDeviation="2"/>
<feComposite in2="hardAlpha" operator="out"/>
<feColorMatrix type="matrix" values="0 0 0 0 0 0 0 0 0 0 0 0 0 0 0 0 0 0 0.25 0"/>
<feBlend mode="normal" in2="BackgroundImageFix" result="effect1_dropShadow_553_7372"/>
<feBlend mode="normal" in="SourceGraphic" in2="effect1_dropShadow_553_7372" result="shape"/>
</filter>
</defs>
</svg>
