<svg width="174" height="142" viewBox="0 0 174 142" fill="none" xmlns="http://www.w3.org/2000/svg">
<ellipse cx="87" cy="119" rx="67" ry="23" fill="#D9D9D9" fill-opacity="0.25"/>
<path d="M158.029 75.506C155.899 74.3848 154.834 73.4878 152.479 71.5817L145.695 66.0877L152.479 60.2012C155.532 60.4814 157.145 60.9191 159.935 61.9391C162.231 62.7216 163.376 63.264 165.261 64.3497C167.633 65.6368 168.681 66.4801 170.363 68.3301C172.044 70.4605 172.269 71.3815 172.325 73.5439C172.325 75.3939 172.101 76.2909 170.194 77.4682C168.849 78.2992 166.881 78.4322 164.756 78.0849C161.779 77.2845 160.223 76.803 158.029 75.506Z" fill="#FFFBF6" stroke="black" stroke-width="2"/>
<path d="M15.1836 75.394C18.1482 73.7556 19.4394 72.7813 20.8459 70.9091L25.3869 66.1438L21.7428 60.0331C18.6898 60.3133 16.1797 60.9192 13.3897 61.9392C11.0942 62.7217 9.94904 63.2641 8.06379 64.3498C5.69223 65.6369 4.64402 66.4802 2.96217 68.3302C1.28031 70.4606 1.05555 71.3816 1 73.544C1 75.394 1.22425 76.291 3.13035 77.4683C4.47583 78.2993 6.44346 78.4323 8.56834 78.085C11.5461 77.2846 12.9896 76.691 15.1836 75.394Z" fill="#FFFBF6" stroke="black" stroke-width="2"/>
<path d="M86.326 13.156C121.549 13.156 149.32 37.2344 151.814 63.1599C151.81 76.2394 149.639 88.8969 140.527 98.3142C131.404 107.744 115.109 114.141 86.326 114.141C57.5239 114.141 41.371 108.198 32.3934 99.2273C23.4394 90.2799 21.4024 78.1026 21.3973 65.0154C23.9502 39.5296 51.1672 13.156 86.326 13.156Z" fill="#FFFBF6" stroke="black" stroke-width="2" stroke-linejoin="round"/>
<path d="M70.6287 12.2682L71.3014 14.2864L76.5152 13.2773L83.7472 12.7727H86.7745L92.9974 12.997L101.014 13.8379L101.855 12.7727C102.185 12.2928 102.316 11.9698 102.528 11.3712C102.793 10.6987 102.886 10.2773 102.976 9.46508C103.022 8.72112 103.058 8.31797 102.976 7.39079C102.932 6.94772 102.885 6.68591 102.696 6.15743C102.415 5.5832 102.217 5.26414 101.799 4.69983C101.426 4.27104 101.186 4.04269 100.622 3.69071C99.992 3.37816 99.6587 3.19235 98.7717 3.01797C97.9616 2.88651 97.5076 2.85313 96.6974 3.01797C96.0986 3.12402 95.7691 3.2581 95.1838 3.52253L93.7262 4.30739L93.09 4.69888C92.6275 4.9835 92.0236 4.86143 91.7079 4.41952L91.0352 3.35434C90.7877 2.97607 90.6121 2.78147 90.2503 2.45736C89.566 1.95681 89.1992 1.66323 88.2882 1.33612C87.8952 1.18922 87.6695 1.11539 87.223 1.05581C86.5443 0.991328 86.1638 0.972084 85.4851 1.05581C84.9823 1.13656 84.7002 1.1398 84.1957 1.39218C83.7024 1.61135 83.4302 1.76752 82.9623 2.17705C82.3502 2.71132 82.0158 3.05269 81.4486 3.80284C80.8281 4.58673 79.7428 4.82799 78.8486 4.38087L78.4774 4.19527C77.6909 3.75617 77.1894 3.6646 76.4031 3.57859C75.593 3.49324 75.1389 3.47428 74.3288 3.57859C73.043 3.82346 72.2893 4.07237 71.3015 5.48469C70.6706 6.53932 70.3528 7.1179 70.2363 8.79234C70.2069 10.301 70.286 11.0678 70.6287 12.2682Z" fill="#FFFBF6" stroke="black" stroke-width="2"/>
<path d="M73.6521 15.9994C71.3272 14.8405 70.4764 8.58124 72 7C81.8459 4.71022 91.98 7.53226 102 9.00006C101.831 11.3257 100.672 13.6493 98.5574 15.9994H73.6521Z" fill="#FFFBF6"/>
<path d="M81.2805 85.5972C81.4103 83.74 82.4578 81.841 82.8502 81.3365C83.2426 80.8319 84.7563 79.1501 86.9988 79.1501C89.2412 79.1501 90.2372 80.418 90.9791 81.5047C91.8427 82.8984 91.9652 83.8907 92.0443 85.5972" stroke="black" stroke-width="2" stroke-linecap="round"/>
<ellipse cx="51.848" cy="78.1971" rx="8.3532" ry="4.09251" fill="#FFC1C3"/>
<ellipse cx="121.477" cy="78.1971" rx="8.3532" ry="4.09251" fill="#FFC1C3"/>
<path d="M55.6602 75.2819C56.3451 75.8358 56.773 76.0767 57.5663 76.4592C58.0089 76.6951 58.3041 76.7637 58.8557 76.8516C59.5557 76.9708 59.9227 76.9144 60.5376 76.5713C61.259 76.2573 61.6353 75.9549 62.2755 75.2819C62.8199 74.5841 63.1664 74.2957 63.8452 73.9364C64.4516 73.6884 64.7791 73.7532 65.3589 73.9364C66.0851 74.2379 66.3869 74.5986 66.8726 75.3379C67.3686 76.0785 67.4951 76.5592 67.6014 77.4683C67.6938 78.4549 67.6024 78.9098 67.0968 79.4865L65.471 80.7759L64.1255 81.9532C63.5769 82.2212 63.2125 82.2814 62.4998 82.2896C61.9351 82.3711 61.6145 82.449 60.9861 83.0184C60.4435 83.5367 60.104 83.7851 59.1921 83.8593C58.3934 83.9068 58.0676 83.8293 57.4542 83.579C56.8395 83.3577 56.5879 83.0841 56.2208 82.5699C55.9644 82.0718 55.7767 81.8669 55.3799 81.5608C55.3799 81.5608 54.6102 81.1836 54.3147 80.6077C54.0193 80.0318 53.8785 79.8156 53.4738 79.4304L52.2965 78.4774C52.2965 78.4774 51.7359 77.9728 51.6238 77.4683C51.5117 76.9637 51.5106 76.6415 51.6238 76.1228C51.7633 75.634 51.8937 75.3862 52.2405 75.0016C52.8123 74.4796 53.147 74.4417 53.7541 74.5531C54.7534 74.7541 55.1036 74.9357 55.6602 75.2819Z" fill="#81D4F8"/>
<path d="M117.248 75.6127C116.563 76.1666 116.135 76.4075 115.342 76.79C114.899 77.0259 114.604 77.0945 114.052 77.1824C113.352 77.3016 112.985 77.2452 112.371 76.9021C111.649 76.5881 111.273 76.2858 110.633 75.6127C110.088 74.9149 109.742 74.6265 109.063 74.2672C108.457 74.0192 108.129 74.084 107.549 74.2672C106.823 74.5687 106.521 74.9294 106.036 75.6687C105.54 76.4093 105.413 76.89 105.307 77.7991C105.214 78.7858 105.306 79.2406 105.811 79.8173L107.437 81.1067L108.783 82.284C109.331 82.552 109.696 82.6123 110.408 82.6204C110.973 82.7019 111.294 82.7799 111.922 83.3492C112.465 83.8675 112.804 84.1159 113.716 84.1901C114.515 84.2376 114.841 84.1601 115.454 83.9098C116.069 83.6885 116.32 83.4149 116.687 82.9007C116.944 82.4026 117.131 82.1977 117.528 81.8916C117.528 81.8916 118.298 81.5144 118.593 80.9385C118.889 80.3626 119.03 80.1464 119.434 79.7612L120.612 78.8082C120.612 78.8082 121.172 78.3036 121.284 77.7991C121.396 77.2945 121.397 76.9723 121.284 76.4536C121.145 75.9649 121.014 75.717 120.668 75.3324C120.096 74.8104 119.761 74.7725 119.154 74.8839C118.155 75.0849 117.805 75.2665 117.248 75.6127Z" fill="#81D4F8"/>
<ellipse cx="59.2482" cy="73.4318" rx="5.32587" ry="5.26981" fill="black"/>
<ellipse cx="113.067" cy="73.8803" rx="5.32587" ry="5.26981" fill="black"/>
<path d="M53.4177 65.3589C54.4268 65.8074 55.4359 65.9756 56.1087 65.9756C57.2166 65.9195 57.6784 65.9521 58.7436 65.471C59.8088 64.99 59.9904 64.7049 60.9861 63.6771" stroke="black" stroke-width="1.5" stroke-linecap="round"/>
<path d="M116.88 66.4801C115.871 66.9286 114.861 67.0968 114.189 67.0968C113.081 67.0407 112.619 67.0733 111.554 66.5922C110.489 66.1112 110.307 65.8261 109.311 64.7983" stroke="black" stroke-width="1.5" stroke-linecap="round"/>
<path d="M125.675 114.301C125.785 112.09 125.763 110.85 125.675 108.639C121.829 109.904 119.544 110.588 115.328 111.778C115.07 113.95 114.805 115.683 115.079 117.664C115.544 119.545 116.016 121.14 116.93 122.093C118.219 123.439 119.508 124.224 121.583 123.943C123.825 123.159 124.27 122.03 124.946 120.019C125.537 117.454 125.689 116.205 125.675 114.301Z" fill="#FFFBF6" stroke="black" stroke-width="2" stroke-linecap="round"/>
<path d="M47.7179 114.077C47.6079 111.865 47.6297 111.579 47.7179 109.367L58.3135 112.114C58.5715 114.286 58.3135 115.422 58.0893 117.496C57.6968 119.122 57.7529 119.795 56.4635 121.869C55.4528 123.495 53.8846 124 51.8103 123.719C49.7361 123.439 49.0072 121.645 48.4467 119.795C47.8562 117.23 47.874 117.216 47.7179 114.077Z" fill="#FFFBF6" stroke="black" stroke-width="2" stroke-linecap="round"/>
<path d="M89.7843 18C91.681 23.3423 94.0927 25.0274 100.525 25.9582" stroke="#F5E3CD" stroke-width="2" stroke-linecap="round"/>
<path d="M83.4372 19.137C82.4534 22.7748 82.733 24.8661 84.7935 28.6651" stroke="#F5E3CD" stroke-width="2" stroke-linecap="round"/>
<path d="M78.2837 18.4331C74.7105 22.7934 72.2152 24.5575 67 26.6619" stroke="#F5E3CD" stroke-width="2" stroke-linecap="round"/>
</svg>
