<svg width="227" height="232" viewBox="0 0 227 232" fill="none" xmlns="http://www.w3.org/2000/svg">
<ellipse cx="114.153" cy="201.983" rx="87.4407" ry="30.0169" fill="#D9D9D9" fill-opacity="0.25"/>
<path d="M175.068 124.07C175.211 121.184 175.183 119.567 175.068 116.681C170.048 118.332 167.066 119.225 161.564 120.778C161.228 123.612 160.881 125.874 161.239 128.46C161.845 130.914 162.462 132.997 163.654 134.24C165.337 135.996 167.019 137.021 169.727 136.655C172.653 135.63 173.233 134.158 174.116 131.533C174.887 128.186 175.086 126.556 175.068 124.07Z" fill="#FFFBF6" stroke="black" stroke-linecap="round"/>
<path d="M73.3267 123.778C73.1833 120.892 73.2117 120.518 73.3267 117.632L87.155 121.217C87.4916 124.051 87.155 125.534 86.8623 128.241C86.3501 130.363 86.4233 131.241 84.7405 133.948C83.4215 136.07 81.3748 136.728 78.6677 136.362C75.9607 135.996 75.0095 133.655 74.2779 131.241C73.5073 127.893 73.5304 127.875 73.3267 123.778Z" fill="#FFFBF6" stroke="black" stroke-linecap="round"/>
<path d="M205.546 128.845C202.766 130.309 201.376 131.479 198.303 133.967L189.45 141.137L198.303 148.819C202.288 148.454 204.393 147.882 208.034 146.551C211.03 145.53 212.524 144.822 214.985 143.405C218.08 141.725 219.448 140.625 221.643 138.21C223.838 135.43 224.131 134.228 224.204 131.406C224.204 128.992 223.911 127.821 221.423 126.284C219.667 125.2 217.099 125.026 214.326 125.48C210.44 126.524 208.41 127.152 205.546 128.845Z" fill="#FFFBF6" stroke="black" stroke-width="2"/>
<path d="M21.7312 128.772C25.6001 130.91 27.2853 132.182 29.1209 134.625L35.0472 140.844L30.2915 148.819C26.307 148.454 23.0312 147.663 19.3899 146.332C16.3941 145.31 14.8996 144.603 12.4391 143.186C9.34406 141.506 7.97606 140.405 5.7811 137.991C3.58614 135.211 3.2928 134.009 3.22031 131.186C3.22031 128.772 3.51298 127.601 6.0006 126.065C7.75657 124.98 10.3245 124.807 13.0976 125.26C16.9839 126.305 18.8677 127.079 21.7312 128.772Z" fill="#FFFBF6" stroke="black" stroke-width="2"/>
<path d="M113.273 63.5425C159.368 63.5425 195.782 95.0608 199.046 129.093C199.041 146.192 196.207 162.818 184.229 175.199C172.238 187.592 150.872 195.947 113.273 195.947C75.654 195.947 54.4728 188.187 42.671 176.394C30.8929 164.625 28.2357 148.621 28.2306 131.514C31.5697 98.0752 67.2412 63.5427 113.273 63.5425Z" fill="#FFFBF6" stroke="black" stroke-width="2" stroke-linejoin="round"/>
<path d="M92.7867 62.6888L93.6647 65.3228L100.469 64.0058L109.907 63.3473H113.858L121.98 63.64L132.442 64.7374L133.54 63.3473C133.97 62.721 134.142 62.2994 134.418 61.5182C134.764 60.6405 134.886 60.0906 135.003 59.0306C135.063 58.0596 135.109 57.5335 135.003 56.3234C134.945 55.7452 134.884 55.4035 134.637 54.7138C134.271 53.9644 134.013 53.548 133.467 52.8115C132.979 52.2519 132.667 51.9539 131.93 51.4945C131.108 51.0866 130.673 50.8441 129.516 50.6165C128.458 50.445 127.866 50.4014 126.809 50.6165C126.027 50.7549 125.597 50.9299 124.833 51.275L122.931 52.2993L122.101 52.8103C121.497 53.1817 120.709 53.0224 120.297 52.4457L119.419 51.0555C119.096 50.5618 118.867 50.3079 118.395 49.8849C117.501 49.2316 117.023 48.8485 115.834 48.4216C115.321 48.2299 115.026 48.1335 114.444 48.0557C113.558 47.9716 113.061 47.9465 112.176 48.0557C111.519 48.1611 111.151 48.1654 110.493 48.4947C109.849 48.7808 109.494 48.9846 108.883 49.5191C108.084 50.2163 107.648 50.6618 106.908 51.6409C106.098 52.6639 104.681 52.9788 103.514 52.3952L103.03 52.153C102.003 51.5799 101.349 51.4604 100.323 51.3482C99.2655 51.2368 98.6728 51.2121 97.6156 51.3482C95.9376 51.6678 94.954 51.9926 93.6647 53.8358C92.8414 55.2122 92.4266 55.9673 92.2746 58.1526C92.2362 60.1216 92.3394 61.1222 92.7867 62.6888Z" fill="#FFFBF6" stroke="black" stroke-width="2"/>
<path d="M94.8354 66.5665L93.7379 63.2009C106.802 60.1739 132.424 62.3387 132.424 62.3387C132.424 62.3387 131.44 64.229 131.119 64.6226L129.814 66.9065L94.8354 66.5665Z" fill="#FFFBF6"/>
<path d="M164.627 195.85C164.77 192.964 164.742 191.346 164.627 188.46C159.607 190.112 156.625 191.004 151.123 192.558C150.787 195.392 150.441 197.654 150.799 200.24C151.404 202.694 152.021 204.776 153.213 206.02C154.896 207.776 156.579 208.8 159.286 208.435C162.212 207.41 162.792 205.938 163.676 203.313C164.446 199.966 164.645 198.336 164.627 195.85Z" fill="#FFFBF6" stroke="black" stroke-width="2" stroke-linecap="round"/>
<path d="M62.8861 195.558C62.7426 192.672 62.771 192.298 62.8861 189.412L76.7143 192.997C77.0509 195.831 76.7143 197.313 76.4216 200.021C75.9094 202.142 75.9826 203.02 74.2998 205.727C72.9808 207.849 70.9341 208.508 68.2271 208.142C65.52 207.776 64.5688 205.435 63.8372 203.02C63.0666 199.673 63.0897 199.655 62.8861 195.558Z" fill="#FFFBF6" stroke="black" stroke-width="2" stroke-linecap="round"/>
<ellipse cx="72.7554" cy="145.463" rx="10.6413" ry="5.6431" fill="#FFC1C3"/>
<ellipse cx="164.658" cy="146.753" rx="10.6413" ry="5.6431" fill="#FFC1C3"/>
<path d="M119.184 159.902C119.074 158.744 118.738 158.069 117.923 157.451C117.387 157.046 117.264 156.284 117.74 155.81C118.551 155.001 119.055 154.244 118.669 152.547L133.729 151.085C134.99 150.946 135.686 151.085 136.339 151.738C136.992 152.39 136.992 156.305 136.992 156.958C136.992 157.61 136.992 158.263 135.686 158.915C134.381 159.568 119.144 160.501 119.144 160.501C119.161 160.357 119.175 160.206 119.186 160.046C119.189 159.998 119.188 159.95 119.184 159.902Z" fill="#F83C40"/>
<path d="M115.482 151.268C116.983 150.839 117.703 150.899 118.456 151.946C118.516 152.03 118.56 152.124 118.588 152.223C118.618 152.335 118.645 152.442 118.669 152.547M115.966 162.876C118.089 162.814 118.92 162.334 119.144 160.501M118.669 152.547C119.055 154.244 118.551 155.001 117.74 155.81C117.264 156.284 117.387 157.046 117.923 157.451C118.738 158.069 119.074 158.744 119.184 159.902C119.188 159.95 119.189 159.998 119.186 160.046C119.175 160.206 119.161 160.357 119.144 160.501M118.669 152.547L133.729 151.085C134.99 150.946 135.686 151.085 136.339 151.738C136.992 152.39 136.992 156.305 136.992 156.958C136.992 157.61 136.992 158.263 135.686 158.915C134.381 159.568 119.144 160.501 119.144 160.501" stroke="black" stroke-width="1.5" stroke-linecap="round"/>
<path d="M22.9348 48.563L23.096 49.0467" stroke="black" stroke-width="0.5" stroke-linecap="round"/>
<path d="M75.2477 140.458C75.2627 140.519 75.4172 141.367 76.078 141.151C76.7388 140.935 79.0006 139.878 79.0335 139.862C79.9415 139.469 80.4958 139.253 82.0717 138.923C83.3269 138.745 84.1096 138.736 85.7092 138.954C86.8793 139.273 87.5102 139.468 88.2654 140.055C88.6797 140.282 88.8853 140.326 89.2069 140.278C89.5904 140.041 89.6678 139.879 89.7061 139.567C89.8454 139.551 89.9341 139.475 90.0941 139.328C90.3325 138.785 90.2806 138.542 90.0398 138.155C88.9212 136.883 88.1659 136.298 86.2938 135.779C83.9922 135.2 82.6857 135.14 80.3855 135.542C78.1862 136.124 76.9612 136.614 74.834 138.704C74.6052 139.023 74.5491 139.223 74.7684 139.682C74.6808 140.256 74.873 140.343 75.2477 140.458Z" fill="black" stroke="black" stroke-width="0.5" stroke-linecap="round"/>
<path d="M165.725 137.534C165.724 137.597 165.772 138.458 165.079 138.402C164.386 138.346 161.94 137.847 161.904 137.839C160.93 137.669 160.34 137.588 158.731 137.636C157.469 137.756 156.706 137.931 155.201 138.516C154.138 139.1 153.57 139.437 152.973 140.184C152.624 140.502 152.434 140.592 152.11 140.62C151.682 140.48 151.568 140.34 151.458 140.046C151.319 140.063 151.215 140.01 151.025 139.904C150.667 139.432 150.66 139.183 150.804 138.751C151.594 137.253 152.192 136.508 153.891 135.565C155.994 134.464 157.25 134.101 159.58 133.955C161.855 134.006 163.16 134.197 165.717 135.731C166.014 135.988 166.116 136.17 166.009 136.668C166.229 137.205 166.062 137.335 165.725 137.534Z" fill="black" stroke="black" stroke-width="0.5" stroke-linecap="round"/>
<path d="M170.462 149.333L139.038 151.75C137.892 151.838 137.055 152.872 137.209 154.012L137.49 156.091C137.628 157.107 138.513 157.854 139.537 157.823C154.206 157.376 162.903 157.169 178.362 156.427C181.116 156.081 183.038 155.298 185.134 154.008C187.23 152.719 188.52 151.267 189.326 147.559C190.132 143.851 188.681 139.498 186.101 137.079C183.522 134.661 178.846 133.693 176.427 134.016C174.009 134.338 170.946 136.112 169.817 138.208C168.688 140.304 168.366 143.69 168.688 145.624C169.011 147.559 169.333 148.104 170.462 149.333Z" fill="#81D4F8"/>
<path d="M186.585 149.816C187.452 149.855 188.52 149.978 188.842 149.172C189.165 148.365 189.334 147.769 189.487 146.269C189.594 145.484 189.561 144.788 189.326 143.045C188.902 141.288 188.613 140.622 188.036 139.82C187.301 139.799 186.852 139.84 185.779 140.304C185.223 140.635 184.904 140.877 184.328 141.432C183.854 141.92 183.58 142.269 183.038 143.367C182.72 144.306 182.617 144.908 182.715 146.269C183.019 147.558 183.328 148.188 184.328 149.01C185.138 149.446 185.643 149.604 186.585 149.816Z" fill="#F3C430"/>
<path d="M151.586 157.122C149.467 157.181 149.333 157.185 146.553 157.262C143.774 157.339 143.64 157.343 141.521 157.402C141.438 154.436 143.625 151.968 146.404 151.891C149.183 151.814 151.503 154.156 151.586 157.122Z" fill="#F3C430"/>
<path d="M178.419 156.155C176.3 156.214 176.166 156.218 173.386 156.295C170.607 156.372 170.473 156.376 168.354 156.435C168.271 153.468 170.458 151.001 173.237 150.924C176.016 150.846 178.336 153.188 178.419 156.155Z" fill="#F3C430"/>
<path d="M110.188 68.8643C105.657 74.3926 102.494 76.6292 95.8815 79.2975" stroke="#F5E3CD" stroke-width="2" stroke-linecap="round"/>
<path d="M173.364 135.317C173.848 134.822 174.838 134.197 176.911 134.016C178.985 133.834 179.491 134.016 180.873 134.66C181.079 137.014 179.564 139.068 177.491 139.25C175.417 139.431 173.57 137.67 173.364 135.317Z" fill="#F3C430"/>
<path d="M164.714 150.139C162.598 150.257 162.464 150.265 159.688 150.42C156.912 150.575 156.778 150.583 154.661 150.701C154.827 153.664 157.212 155.94 159.988 155.785C162.764 155.63 164.88 153.102 164.714 150.139Z" fill="#F3C430"/>
<ellipse cx="174.331" cy="145.947" rx="2.90217" ry="2.90216" fill="#F3C430"/>
<path d="M170.462 149.333C157.365 150.34 136.926 151.912 136.926 151.912L137.732 157.878C153.515 157.391 162.279 157.199 178.362 156.427C181.116 156.081 183.038 155.298 185.134 154.008C187.23 152.719 188.52 151.267 189.326 147.559C190.132 143.851 188.681 139.498 186.101 137.079C183.522 134.661 178.846 133.693 176.427 134.016C174.009 134.338 170.946 136.112 169.817 138.208C168.688 140.304 168.366 143.69 168.688 145.624C169.011 147.559 169.817 148.527 170.462 149.333ZM170.462 149.333C171.913 150.461 172.074 150.623 174.331 150.945C176.589 151.267 179.652 149.978 180.619 148.204C181.587 146.431 181.587 144.899 181.103 143.69C180.619 142.48 179.546 141.807 178.201 141.594C176.843 141.378 175.944 141.594 174.815 142.722C174.418 143.119 174.009 144.012 174.493 144.818" stroke="black" stroke-width="1.5" stroke-linecap="round"/>
<path d="M85.654 80.6483C79.7697 80.8663 76.726 80.1837 71.7881 77.4237L77.9149 16.8008L115.966 59.2046C114.929 60.8652 115.179 60.9605 109.678 67.1049L109.586 67.2002C106.789 70.1167 105.193 71.7813 99.52 75.4889C94.8122 78.5062 91.7111 79.5439 85.654 80.6483Z" fill="#F3C430" stroke="black" stroke-width="2"/>
<path d="M25.393 179.61L29.5078 173.001C29.8534 172.446 30.6299 172.367 31.0808 172.84L36.0584 178.067C36.3942 178.419 36.4273 178.962 36.1367 179.353L32.5187 184.219C32.2059 184.639 31.6215 184.747 31.1793 184.466L25.705 180.982C25.2423 180.688 25.1031 180.076 25.393 179.61Z" fill="#F83C40" stroke="black" stroke-width="1.5"/>
<path d="M191.179 187.864L195.202 183.367C195.596 182.927 196.283 182.922 196.683 183.357L200.962 188.002C201.312 188.382 201.315 188.967 200.968 189.35L197.679 192.991C197.332 193.376 196.748 193.431 196.334 193.119L191.321 189.328C190.854 188.976 190.789 188.3 191.179 187.864Z" fill="#F3C430" stroke="black" stroke-width="1.5"/>
<path d="M197.713 43.915L200.659 39.2011C200.977 38.6925 201.668 38.5762 202.135 38.9527L205.57 41.7227C205.962 42.0387 206.058 42.5966 205.794 43.0252L202.96 47.6297C202.652 48.1309 201.979 48.2587 201.509 47.9056L197.961 45.245C197.546 44.9333 197.438 44.3554 197.713 43.915Z" fill="#F3C430" stroke="black" stroke-width="1.5"/>
<path d="M208.817 87.2332L212.015 80.1976C212.284 79.6066 213.036 79.4243 213.545 79.8266L218.059 83.3897C218.418 83.6736 218.539 84.1656 218.351 84.5837L215.037 91.9776C214.76 92.5947 213.963 92.765 213.459 92.3148L209.062 88.3933C208.735 88.1019 208.636 87.6318 208.817 87.2332Z" fill="#81D4F8" stroke="black" stroke-width="1.5"/>
<path d="M162.956 8.93122L167.388 6.13234C167.903 5.80669 168.588 6.01441 168.836 6.57168L171.794 13.2286C172.032 13.763 171.762 14.3863 171.21 14.5789L166.188 16.3306C165.69 16.5044 165.143 16.2614 164.938 15.7754L162.569 10.1657C162.379 9.71487 162.542 9.19253 162.956 8.93122Z" fill="#81D4F8" stroke="black" stroke-width="1.5"/>
<path d="M161.018 44.0967L164.618 43.1439C165.102 43.0157 165.607 43.2657 165.798 43.7288L168.093 49.286C168.323 49.8432 168.012 50.4758 167.43 50.6331L163.467 51.7042C162.958 51.8418 162.429 51.5603 162.259 51.0611L160.327 45.3857C160.14 44.837 160.458 44.245 161.018 44.0967Z" fill="#F83C40" stroke="black" stroke-width="1.5"/>
<path d="M128.981 35.4612L129.867 32.693C130.028 32.1887 130.557 31.8929 131.06 32.057C133.339 32.7995 134.55 33.8996 136.202 35.6928C136.529 36.0481 136.551 36.588 136.257 36.9713L133.661 40.3578C133.326 40.7941 132.699 40.8817 132.274 40.5325C130.882 39.3878 130.024 38.3266 129.024 36.1749C128.92 35.9514 128.906 35.6959 128.981 35.4612Z" fill="#F3C430" stroke="black" stroke-width="1.5"/>
<path d="M65.3561 5.6137L68.6015 1.55692C68.8681 1.22368 69.3168 1.09634 69.7187 1.23988L74.4892 2.9436C75.1385 3.17552 75.3639 3.97956 74.9296 4.51515L71.4564 8.79881C71.1754 9.14529 70.699 9.26381 70.2885 9.08933L65.7458 7.15872C65.1365 6.89974 64.9425 6.13073 65.3561 5.6137Z" fill="#81D4F8" stroke="black" stroke-width="1.5"/>
<path d="M115.441 14.3466L113.573 10.8442C113.366 10.4559 113.437 9.97775 113.749 9.66653L118.119 5.29639C118.525 4.88987 119.191 4.90891 119.567 5.34437C122.448 8.68735 123.02 10.1664 122.813 11.8253C122.776 12.1191 122.587 12.3694 122.327 12.5103C120.254 13.6316 118.845 14.249 116.554 14.8418C116.114 14.9556 115.655 14.7477 115.441 14.3466Z" fill="#F83C40" stroke="black" stroke-width="1.5"/>
<path d="M35.5 28.6265L36.9433 22.9735C37.1116 22.3146 37.8742 22.0122 38.4483 22.3767L46.4157 27.4353C46.9473 27.7729 47.0384 28.5118 46.6047 28.9683L41.9826 33.8336C41.6107 34.2252 40.995 34.2507 40.592 33.8912L35.8033 29.6202C35.5246 29.3716 35.4076 28.9884 35.5 28.6265Z" fill="#F3C430" stroke="black" stroke-width="1.5"/>
<path d="M85.9765 25.8297C82.4542 27.4465 80.611 28.2557 76.7863 28.8931L77.9149 16.8008L85.9765 25.8297Z" fill="#F83C40" stroke="black" stroke-width="2"/>
<path d="M73.5616 24.0563L72.9167 22.2828C72.263 22.8531 71.8102 23.005 70.6595 22.6053C69.692 22.1215 69.5308 21.4766 69.3696 20.6704C69.1793 19.5093 69.5024 19.1493 69.8533 18.5745C69.2619 18.5637 68.9177 18.4771 68.241 17.9295C67.7573 17.4458 67.596 16.6397 67.9185 15.8335C68.4022 14.6246 69.2379 13.9895 70.1758 13.4151C71.2573 12.7378 72.0174 12.6371 73.7229 13.0926C73.9734 11.9915 74.2083 11.6305 74.6903 11.1578C75.3748 10.56 75.7589 10.2254 77.1087 10.3517C78.2735 10.5587 78.9072 10.967 80.0109 12.1252C80.6932 11.5902 80.9404 11.4093 81.3008 11.1578C82.1488 10.6362 82.7255 10.5288 84.2029 11.1578C85.4942 12.0057 85.9197 12.6387 85.8152 14.2212C87.846 15.1546 88.4427 15.8231 88.5562 17.2846C88.6338 18.6319 88.4264 19.3041 87.1051 20.1868C86.1377 20.6704 86.2989 20.5092 85.3315 20.6704C84.8478 22.444 84.6866 22.7665 83.8805 23.4114C82.559 24.0534 81.8179 24.241 80.4946 23.5726C79.7137 23.0128 79.3534 22.6741 78.8823 21.9603C78.588 23.304 78.164 23.961 77.1087 25.0237C75.3822 25.6 74.5356 25.584 73.5616 24.0563Z" fill="#FE850F" stroke="black" stroke-width="2"/>
<path d="M26.9915 91.2188L32.272 87.6984C32.8366 87.322 33.6041 87.6053 33.7889 88.2582L35.6024 94.6657C35.7356 95.1365 35.5087 95.6346 35.066 95.8429L31.1312 97.6945C30.6831 97.9054 30.1481 97.7565 29.8734 97.3444L26.7141 92.6055C26.4078 92.146 26.5319 91.5251 26.9915 91.2188Z" fill="#F3C430" stroke="black" stroke-width="1.5"/>
<path d="M16.4326 59.486L19.1226 52.6388C19.3934 51.9494 20.2936 51.7834 20.7925 52.331L25.7752 57.7997C26.0932 58.1488 26.1237 58.6728 25.8483 59.0564L22.4206 63.8307C22.0866 64.296 21.4308 64.3862 20.9836 64.0284L16.7387 60.6325C16.3964 60.3587 16.2723 59.8939 16.4326 59.486Z" fill="#F86E28" stroke="black" stroke-width="1.5"/>
<path d="M48.4797 60.999L50.5178 56.9227C50.7741 56.4103 51.4076 56.2174 51.9059 56.5002L56.2792 58.9824C56.6767 59.208 56.8706 59.6743 56.7504 60.1152L55.3871 65.1139C55.2069 65.7746 54.431 66.0628 53.8632 65.6799L48.815 62.2753C48.3986 61.9944 48.2551 61.4482 48.4797 60.999Z" fill="#81D4F8" stroke="black" stroke-width="1.5"/>
<path d="M93.7155 34.375C86.8315 37.0324 82.8884 38.1758 75.6576 39.3732L74.6902 49.692C86.1743 47.7491 91.3072 45.8172 99.6811 41.1467L93.7155 34.375Z" fill="#F83C40" stroke="black" stroke-width="2"/>
<path d="M106.775 48.8857C92.4032 57.4661 84.8435 60.7937 73.4004 60.6556L72.5942 70.007C87.5024 69.0742 95.4565 65.3533 110.89 53.856L106.775 48.8857Z" fill="#F83C40" stroke="black" stroke-width="2"/>
<path d="M80.673 128.544C81.911 127.994 83.1491 127.789 83.9744 127.789C85.3338 127.857 85.9003 127.817 87.2071 128.406C88.514 128.995 88.7368 129.344 89.9584 130.603" stroke="black" stroke-width="1.5" stroke-linecap="round"/>
<path d="M158.533 129.917C157.295 129.368 156.057 129.162 155.231 129.162C153.872 129.23 153.305 129.19 151.999 129.779C150.692 130.368 150.469 130.717 149.247 131.976" stroke="black" stroke-width="1.5" stroke-linecap="round"/>
<path d="M123.288 67.5596C125.823 74.5683 129.047 76.7792 137.644 78.0002" stroke="#F5E3CD" stroke-width="2" stroke-linecap="round"/>
<path d="M114.903 70.1694C113.554 74.654 113.937 77.232 116.763 81.9152" stroke="#F5E3CD" stroke-width="2" stroke-linecap="round"/>
</svg>
