<svg width="326" height="78" viewBox="0 0 326 78" fill="none" xmlns="http://www.w3.org/2000/svg">
<g filter="url(#filter0_d_640_9233)">
<rect x="64" y="5.5" width="258" height="63" rx="20" fill="#FFDEA8"/>
<path d="M89.7188 43.2734C88.6771 43.2734 87.7734 43.0339 87.0078 42.5547C86.2474 42.0755 85.6615 41.3958 85.25 40.5156C84.8385 39.6354 84.6328 38.5885 84.6328 37.375V37.3594C84.6328 36.1406 84.8385 35.0911 85.25 34.2109C85.6615 33.3307 86.2474 32.651 87.0078 32.1719C87.7682 31.6927 88.6719 31.4531 89.7188 31.4531C90.5469 31.4531 91.2943 31.6172 91.9609 31.9453C92.6328 32.2682 93.1823 32.7161 93.6094 33.2891C94.0417 33.862 94.3047 34.5208 94.3984 35.2656V35.3125H92.6562L92.6484 35.2812C92.5443 34.8177 92.3542 34.4167 92.0781 34.0781C91.8021 33.7396 91.4635 33.4766 91.0625 33.2891C90.6615 33.1016 90.2135 33.0078 89.7188 33.0078C89.0469 33.0078 88.4635 33.1849 87.9688 33.5391C87.4792 33.8932 87.099 34.3958 86.8281 35.0469C86.5625 35.6927 86.4297 36.4635 86.4297 37.3594V37.375C86.4297 38.2604 86.5625 39.0286 86.8281 39.6797C87.099 40.3307 87.4792 40.8333 87.9688 41.1875C88.4635 41.5417 89.0495 41.7188 89.7266 41.7188C90.2214 41.7188 90.6693 41.6354 91.0703 41.4688C91.4766 41.3021 91.8151 41.0651 92.0859 40.7578C92.3568 40.4453 92.5417 40.0781 92.6406 39.6562L92.6562 39.625H94.4062L94.3984 39.6641C94.2891 40.388 94.0234 41.0208 93.6016 41.5625C93.1797 42.1042 92.638 42.526 91.9766 42.8281C91.3151 43.125 90.5625 43.2734 89.7188 43.2734ZM100.102 43.1641C99.2734 43.1641 98.5573 42.987 97.9531 42.6328C97.3542 42.2786 96.8932 41.7734 96.5703 41.1172C96.2474 40.4557 96.0859 39.6719 96.0859 38.7656V38.75C96.0859 37.8385 96.2474 37.0547 96.5703 36.3984C96.8984 35.7422 97.362 35.237 97.9609 34.8828C98.5651 34.5286 99.2786 34.3516 100.102 34.3516C100.93 34.3516 101.643 34.5286 102.242 34.8828C102.841 35.2318 103.302 35.737 103.625 36.3984C103.953 37.0547 104.117 37.8385 104.117 38.75V38.7656C104.117 39.6719 103.953 40.4557 103.625 41.1172C103.302 41.7734 102.841 42.2786 102.242 42.6328C101.648 42.987 100.935 43.1641 100.102 43.1641ZM100.102 41.7422C100.586 41.7422 100.997 41.625 101.336 41.3906C101.674 41.151 101.932 40.8099 102.109 40.3672C102.286 39.9245 102.375 39.3906 102.375 38.7656V38.75C102.375 38.1198 102.286 37.5833 102.109 37.1406C101.932 36.6979 101.674 36.3594 101.336 36.125C100.997 35.8854 100.586 35.7656 100.102 35.7656C99.6172 35.7656 99.2057 35.8854 98.8672 36.125C98.5286 36.3594 98.2682 36.6979 98.0859 37.1406C97.9089 37.5833 97.8203 38.1198 97.8203 38.75V38.7656C97.8203 39.3906 97.9089 39.9245 98.0859 40.3672C98.2682 40.8099 98.5286 41.151 98.8672 41.3906C99.2057 41.625 99.6172 41.7422 100.102 41.7422ZM110.648 43.1406C110.253 43.1406 109.888 43.0833 109.555 42.9688C109.221 42.849 108.924 42.6797 108.664 42.4609C108.409 42.237 108.201 41.9714 108.039 41.6641H107.906V43H106.211V31.1875H107.906V35.8594H108.039C108.19 35.5521 108.396 35.2891 108.656 35.0703C108.917 34.8464 109.216 34.6745 109.555 34.5547C109.893 34.4297 110.258 34.3672 110.648 34.3672C111.367 34.3672 111.99 34.5469 112.516 34.9062C113.042 35.2604 113.448 35.7656 113.734 36.4219C114.021 37.0781 114.164 37.8542 114.164 38.75V38.7656C114.164 39.6562 114.018 40.4297 113.727 41.0859C113.44 41.7422 113.034 42.25 112.508 42.6094C111.982 42.9635 111.362 43.1406 110.648 43.1406ZM110.164 41.6875C110.638 41.6875 111.044 41.5703 111.383 41.3359C111.721 41.1016 111.979 40.7656 112.156 40.3281C112.339 39.8906 112.43 39.3698 112.43 38.7656V38.75C112.43 38.1406 112.339 37.6198 112.156 37.1875C111.979 36.75 111.721 36.4141 111.383 36.1797C111.044 35.9401 110.638 35.8203 110.164 35.8203C109.695 35.8203 109.289 35.9401 108.945 36.1797C108.602 36.4141 108.339 36.75 108.156 37.1875C107.974 37.625 107.883 38.1458 107.883 38.75V38.7656C107.883 39.3646 107.974 39.8854 108.156 40.3281C108.339 40.7656 108.602 41.1016 108.945 41.3359C109.289 41.5703 109.695 41.6875 110.164 41.6875ZM118.508 43.1406C117.971 43.1406 117.49 43.0391 117.062 42.8359C116.641 42.6276 116.307 42.3333 116.062 41.9531C115.818 41.5729 115.695 41.1276 115.695 40.6172V40.6016C115.695 40.0911 115.818 39.6562 116.062 39.2969C116.312 38.9375 116.672 38.6562 117.141 38.4531C117.615 38.2448 118.188 38.1198 118.859 38.0781L121.992 37.8906V39.0859L119.094 39.2734C118.51 39.3099 118.081 39.4349 117.805 39.6484C117.529 39.8568 117.391 40.151 117.391 40.5312V40.5469C117.391 40.9323 117.539 41.237 117.836 41.4609C118.133 41.6797 118.508 41.7891 118.961 41.7891C119.383 41.7891 119.758 41.7057 120.086 41.5391C120.419 41.3672 120.68 41.138 120.867 40.8516C121.055 40.5599 121.148 40.2318 121.148 39.8672V37.1953C121.148 36.7266 121.003 36.3698 120.711 36.125C120.424 35.875 119.997 35.75 119.43 35.75C118.956 35.75 118.568 35.8333 118.266 36C117.969 36.1667 117.771 36.401 117.672 36.7031L117.656 36.7266H116.023L116.031 36.6719C116.099 36.2031 116.284 35.7969 116.586 35.4531C116.893 35.1042 117.294 34.8333 117.789 34.6406C118.289 34.4479 118.859 34.3516 119.5 34.3516C120.214 34.3516 120.818 34.4661 121.312 34.6953C121.812 34.9193 122.19 35.2448 122.445 35.6719C122.706 36.0938 122.836 36.6016 122.836 37.1953V43H121.148V41.7969H121.023C120.857 42.0833 120.648 42.3281 120.398 42.5312C120.148 42.7292 119.865 42.8802 119.547 42.9844C119.229 43.0885 118.883 43.1406 118.508 43.1406ZM129.664 43V31.1875H131.359V43H129.664ZM136.211 43.1406C135.674 43.1406 135.193 43.0391 134.766 42.8359C134.344 42.6276 134.01 42.3333 133.766 41.9531C133.521 41.5729 133.398 41.1276 133.398 40.6172V40.6016C133.398 40.0911 133.521 39.6562 133.766 39.2969C134.016 38.9375 134.375 38.6562 134.844 38.4531C135.318 38.2448 135.891 38.1198 136.562 38.0781L139.695 37.8906V39.0859L136.797 39.2734C136.214 39.3099 135.784 39.4349 135.508 39.6484C135.232 39.8568 135.094 40.151 135.094 40.5312V40.5469C135.094 40.9323 135.242 41.237 135.539 41.4609C135.836 41.6797 136.211 41.7891 136.664 41.7891C137.086 41.7891 137.461 41.7057 137.789 41.5391C138.122 41.3672 138.383 41.138 138.57 40.8516C138.758 40.5599 138.852 40.2318 138.852 39.8672V37.1953C138.852 36.7266 138.706 36.3698 138.414 36.125C138.128 35.875 137.701 35.75 137.133 35.75C136.659 35.75 136.271 35.8333 135.969 36C135.672 36.1667 135.474 36.401 135.375 36.7031L135.359 36.7266H133.727L133.734 36.6719C133.802 36.2031 133.987 35.7969 134.289 35.4531C134.596 35.1042 134.997 34.8333 135.492 34.6406C135.992 34.4479 136.562 34.3516 137.203 34.3516C137.917 34.3516 138.521 34.4661 139.016 34.6953C139.516 34.9193 139.893 35.2448 140.148 35.6719C140.409 36.0938 140.539 36.6016 140.539 37.1953V43H138.852V41.7969H138.727C138.56 42.0833 138.352 42.3281 138.102 42.5312C137.852 42.7292 137.568 42.8802 137.25 42.9844C136.932 43.0885 136.586 43.1406 136.211 43.1406ZM146.516 45.9922C145.797 45.9922 145.172 45.8932 144.641 45.6953C144.115 45.4974 143.698 45.2214 143.391 44.8672C143.083 44.513 142.896 44.1016 142.828 43.6328L142.836 43.6172H144.555L144.562 43.6328C144.635 43.9245 144.841 44.1641 145.18 44.3516C145.518 44.5391 145.971 44.6328 146.539 44.6328C147.237 44.6328 147.781 44.474 148.172 44.1562C148.568 43.8385 148.766 43.3932 148.766 42.8203V41.1562H148.633C148.466 41.4583 148.253 41.7188 147.992 41.9375C147.732 42.151 147.435 42.3125 147.102 42.4219C146.768 42.5312 146.406 42.5859 146.016 42.5859C145.297 42.5859 144.672 42.4141 144.141 42.0703C143.615 41.7214 143.208 41.2422 142.922 40.6328C142.641 40.0182 142.5 39.3125 142.5 38.5156V38.5C142.5 37.6927 142.643 36.9792 142.93 36.3594C143.216 35.7344 143.625 35.2474 144.156 34.8984C144.688 34.5443 145.32 34.3672 146.055 34.3672C146.451 34.3672 146.812 34.4297 147.141 34.5547C147.474 34.6797 147.768 34.8568 148.023 35.0859C148.279 35.3151 148.49 35.5885 148.656 35.9062H148.758V34.5156H150.453V42.8281C150.453 43.4688 150.292 44.026 149.969 44.5C149.651 44.974 149.198 45.3411 148.609 45.6016C148.021 45.862 147.323 45.9922 146.516 45.9922ZM146.492 41.1797C146.971 41.1797 147.383 41.0677 147.727 40.8438C148.07 40.6146 148.333 40.2995 148.516 39.8984C148.703 39.4974 148.797 39.0339 148.797 38.5078V38.4922C148.797 37.9714 148.703 37.5078 148.516 37.1016C148.333 36.6953 148.07 36.3776 147.727 36.1484C147.383 35.9193 146.971 35.8047 146.492 35.8047C146.013 35.8047 145.604 35.9193 145.266 36.1484C144.932 36.3776 144.677 36.6953 144.5 37.1016C144.323 37.5026 144.234 37.9661 144.234 38.4922V38.5078C144.234 39.0339 144.323 39.4974 144.5 39.8984C144.677 40.2995 144.932 40.6146 145.266 40.8438C145.604 41.0677 146.013 41.1797 146.492 41.1797ZM152.922 43V34.5156H154.625V43H152.922ZM153.781 33C153.49 33 153.24 32.8958 153.031 32.6875C152.823 32.4792 152.719 32.2292 152.719 31.9375C152.719 31.6458 152.823 31.3984 153.031 31.1953C153.24 30.987 153.49 30.8828 153.781 30.8828C154.073 30.8828 154.323 30.987 154.531 31.1953C154.74 31.3984 154.844 31.6458 154.844 31.9375C154.844 32.2292 154.74 32.4792 154.531 32.6875C154.323 32.8958 154.073 33 153.781 33ZM156.789 45.9297L157.477 41.3359H159.289L157.984 45.9297H156.789ZM165.453 45.9062C165.391 45.9062 165.326 45.9036 165.258 45.8984C165.19 45.8984 165.13 45.8984 165.078 45.8984V44.5078C165.12 44.5078 165.159 44.5078 165.195 44.5078C165.232 44.5078 165.271 44.5078 165.312 44.5078C165.75 44.5078 166.06 44.4219 166.242 44.25C166.424 44.0781 166.516 43.7812 166.516 43.3594V34.5156H168.211V43.3672C168.211 44.237 167.982 44.8776 167.523 45.2891C167.07 45.7005 166.38 45.9062 165.453 45.9062ZM167.359 33C167.073 33 166.823 32.8958 166.609 32.6875C166.401 32.4792 166.297 32.2292 166.297 31.9375C166.297 31.6458 166.401 31.3984 166.609 31.1953C166.823 30.987 167.073 30.8828 167.359 30.8828C167.656 30.8828 167.909 30.987 168.117 31.1953C168.326 31.3984 168.43 31.6458 168.43 31.9375C168.43 32.2292 168.326 32.4792 168.117 32.6875C167.909 32.8958 167.656 33 167.359 33ZM173.008 43.1406C172.471 43.1406 171.99 43.0391 171.562 42.8359C171.141 42.6276 170.807 42.3333 170.562 41.9531C170.318 41.5729 170.195 41.1276 170.195 40.6172V40.6016C170.195 40.0911 170.318 39.6562 170.562 39.2969C170.812 38.9375 171.172 38.6562 171.641 38.4531C172.115 38.2448 172.688 38.1198 173.359 38.0781L176.492 37.8906V39.0859L173.594 39.2734C173.01 39.3099 172.581 39.4349 172.305 39.6484C172.029 39.8568 171.891 40.151 171.891 40.5312V40.5469C171.891 40.9323 172.039 41.237 172.336 41.4609C172.633 41.6797 173.008 41.7891 173.461 41.7891C173.883 41.7891 174.258 41.7057 174.586 41.5391C174.919 41.3672 175.18 41.138 175.367 40.8516C175.555 40.5599 175.648 40.2318 175.648 39.8672V37.1953C175.648 36.7266 175.503 36.3698 175.211 36.125C174.924 35.875 174.497 35.75 173.93 35.75C173.456 35.75 173.068 35.8333 172.766 36C172.469 36.1667 172.271 36.401 172.172 36.7031L172.156 36.7266H170.523L170.531 36.6719C170.599 36.2031 170.784 35.7969 171.086 35.4531C171.393 35.1042 171.794 34.8333 172.289 34.6406C172.789 34.4479 173.359 34.3516 174 34.3516C174.714 34.3516 175.318 34.4661 175.812 34.6953C176.312 34.9193 176.69 35.2448 176.945 35.6719C177.206 36.0938 177.336 36.6016 177.336 37.1953V43H175.648V41.7969H175.523C175.357 42.0833 175.148 42.3281 174.898 42.5312C174.648 42.7292 174.365 42.8802 174.047 42.9844C173.729 43.0885 173.383 43.1406 173.008 43.1406ZM179.727 43V34.5156H181.422V35.7969H181.555C181.763 35.3438 182.07 34.9896 182.477 34.7344C182.883 34.4792 183.396 34.3516 184.016 34.3516C184.969 34.3516 185.698 34.625 186.203 35.1719C186.708 35.7188 186.961 36.4974 186.961 37.5078V43H185.258V37.9062C185.258 37.1979 185.109 36.6719 184.812 36.3281C184.521 35.9792 184.062 35.8047 183.438 35.8047C183.026 35.8047 182.669 35.8958 182.367 36.0781C182.065 36.2552 181.831 36.5104 181.664 36.8438C181.503 37.1719 181.422 37.5651 181.422 38.0234V43H179.727ZM192.906 45.9922C192.188 45.9922 191.562 45.8932 191.031 45.6953C190.505 45.4974 190.089 45.2214 189.781 44.8672C189.474 44.513 189.286 44.1016 189.219 43.6328L189.227 43.6172H190.945L190.953 43.6328C191.026 43.9245 191.232 44.1641 191.57 44.3516C191.909 44.5391 192.362 44.6328 192.93 44.6328C193.628 44.6328 194.172 44.474 194.562 44.1562C194.958 43.8385 195.156 43.3932 195.156 42.8203V41.1562H195.023C194.857 41.4583 194.643 41.7188 194.383 41.9375C194.122 42.151 193.826 42.3125 193.492 42.4219C193.159 42.5312 192.797 42.5859 192.406 42.5859C191.688 42.5859 191.062 42.4141 190.531 42.0703C190.005 41.7214 189.599 41.2422 189.312 40.6328C189.031 40.0182 188.891 39.3125 188.891 38.5156V38.5C188.891 37.6927 189.034 36.9792 189.32 36.3594C189.607 35.7344 190.016 35.2474 190.547 34.8984C191.078 34.5443 191.711 34.3672 192.445 34.3672C192.841 34.3672 193.203 34.4297 193.531 34.5547C193.865 34.6797 194.159 34.8568 194.414 35.0859C194.669 35.3151 194.88 35.5885 195.047 35.9062H195.148V34.5156H196.844V42.8281C196.844 43.4688 196.682 44.026 196.359 44.5C196.042 44.974 195.589 45.3411 195 45.6016C194.411 45.862 193.714 45.9922 192.906 45.9922ZM192.883 41.1797C193.362 41.1797 193.773 41.0677 194.117 40.8438C194.461 40.6146 194.724 40.2995 194.906 39.8984C195.094 39.4974 195.188 39.0339 195.188 38.5078V38.4922C195.188 37.9714 195.094 37.5078 194.906 37.1016C194.724 36.6953 194.461 36.3776 194.117 36.1484C193.773 35.9193 193.362 35.8047 192.883 35.8047C192.404 35.8047 191.995 35.9193 191.656 36.1484C191.323 36.3776 191.068 36.6953 190.891 37.1016C190.714 37.5026 190.625 37.9661 190.625 38.4922V38.5078C190.625 39.0339 190.714 39.4974 190.891 39.8984C191.068 40.2995 191.323 40.6146 191.656 40.8438C191.995 41.0677 192.404 41.1797 192.883 41.1797ZM201.617 43.1406C201.081 43.1406 200.599 43.0391 200.172 42.8359C199.75 42.6276 199.417 42.3333 199.172 41.9531C198.927 41.5729 198.805 41.1276 198.805 40.6172V40.6016C198.805 40.0911 198.927 39.6562 199.172 39.2969C199.422 38.9375 199.781 38.6562 200.25 38.4531C200.724 38.2448 201.297 38.1198 201.969 38.0781L205.102 37.8906V39.0859L202.203 39.2734C201.62 39.3099 201.19 39.4349 200.914 39.6484C200.638 39.8568 200.5 40.151 200.5 40.5312V40.5469C200.5 40.9323 200.648 41.237 200.945 41.4609C201.242 41.6797 201.617 41.7891 202.07 41.7891C202.492 41.7891 202.867 41.7057 203.195 41.5391C203.529 41.3672 203.789 41.138 203.977 40.8516C204.164 40.5599 204.258 40.2318 204.258 39.8672V37.1953C204.258 36.7266 204.112 36.3698 203.82 36.125C203.534 35.875 203.107 35.75 202.539 35.75C202.065 35.75 201.677 35.8333 201.375 36C201.078 36.1667 200.88 36.401 200.781 36.7031L200.766 36.7266H199.133L199.141 36.6719C199.208 36.2031 199.393 35.7969 199.695 35.4531C200.003 35.1042 200.404 34.8333 200.898 34.6406C201.398 34.4479 201.969 34.3516 202.609 34.3516C203.323 34.3516 203.927 34.4661 204.422 34.6953C204.922 34.9193 205.299 35.2448 205.555 35.6719C205.815 36.0938 205.945 36.6016 205.945 37.1953V43H204.258V41.7969H204.133C203.966 42.0833 203.758 42.3281 203.508 42.5312C203.258 42.7292 202.974 42.8802 202.656 42.9844C202.339 43.0885 201.992 43.1406 201.617 43.1406ZM208.336 43V34.5156H210.031V35.7969H210.164C210.372 35.3438 210.68 34.9896 211.086 34.7344C211.492 34.4792 212.005 34.3516 212.625 34.3516C213.578 34.3516 214.307 34.625 214.812 35.1719C215.318 35.7188 215.57 36.4974 215.57 37.5078V43H213.867V37.9062C213.867 37.1979 213.719 36.6719 213.422 36.3281C213.13 35.9792 212.672 35.8047 212.047 35.8047C211.635 35.8047 211.279 35.8958 210.977 36.0781C210.674 36.2552 210.44 36.5104 210.273 36.8438C210.112 37.1719 210.031 37.5651 210.031 38.0234V43H208.336ZM222.289 43V34.5156H223.984V35.8203H224.117C224.305 35.3516 224.596 34.9896 224.992 34.7344C225.393 34.4792 225.872 34.3516 226.43 34.3516C226.815 34.3516 227.161 34.4141 227.469 34.5391C227.776 34.6641 228.039 34.8411 228.258 35.0703C228.482 35.2943 228.656 35.5599 228.781 35.8672H228.914C229.055 35.5599 229.253 35.2943 229.508 35.0703C229.763 34.8411 230.06 34.6641 230.398 34.5391C230.742 34.4141 231.107 34.3516 231.492 34.3516C232.065 34.3516 232.555 34.4635 232.961 34.6875C233.367 34.9062 233.677 35.224 233.891 35.6406C234.104 36.0573 234.211 36.5599 234.211 37.1484V43H232.516V37.5547C232.516 37.1641 232.456 36.8411 232.336 36.5859C232.216 36.3255 232.034 36.1302 231.789 36C231.549 35.8698 231.247 35.8047 230.883 35.8047C230.523 35.8047 230.208 35.888 229.938 36.0547C229.672 36.2161 229.464 36.4349 229.312 36.7109C229.167 36.9818 229.094 37.2891 229.094 37.6328V43H227.398V37.3828C227.398 37.0599 227.331 36.7812 227.195 36.5469C227.065 36.3073 226.878 36.125 226.633 36C226.388 35.8698 226.099 35.8047 225.766 35.8047C225.427 35.8047 225.122 35.8932 224.852 36.0703C224.586 36.2474 224.375 36.487 224.219 36.7891C224.062 37.0859 223.984 37.4193 223.984 37.7891V43H222.289ZM240.148 43.1641C239.32 43.1641 238.609 42.987 238.016 42.6328C237.422 42.2734 236.964 41.7656 236.641 41.1094C236.323 40.4531 236.164 39.6771 236.164 38.7812V38.7734C236.164 37.888 236.323 37.1146 236.641 36.4531C236.964 35.7917 237.417 35.276 238 34.9062C238.589 34.5365 239.276 34.3516 240.062 34.3516C240.854 34.3516 241.534 34.5286 242.102 34.8828C242.674 35.237 243.115 35.7344 243.422 36.375C243.729 37.0104 243.883 37.7552 243.883 38.6094V39.2031H237.023V37.9922H243.039L242.227 39.1172V38.4375C242.227 37.8333 242.133 37.3333 241.945 36.9375C241.763 36.5365 241.51 36.237 241.188 36.0391C240.865 35.8411 240.492 35.7422 240.07 35.7422C239.648 35.7422 239.271 35.8464 238.938 36.0547C238.609 36.2578 238.349 36.5599 238.156 36.9609C237.969 37.362 237.875 37.8542 237.875 38.4375V39.1172C237.875 39.6745 237.969 40.151 238.156 40.5469C238.344 40.9427 238.609 41.2448 238.953 41.4531C239.302 41.6615 239.714 41.7656 240.188 41.7656C240.552 41.7656 240.865 41.7161 241.125 41.6172C241.391 41.513 241.607 41.3854 241.773 41.2344C241.945 41.0833 242.062 40.9349 242.125 40.7891L242.156 40.7266H243.797L243.781 40.7969C243.708 41.0781 243.581 41.3594 243.398 41.6406C243.216 41.9167 242.974 42.1693 242.672 42.3984C242.375 42.6276 242.016 42.8125 241.594 42.9531C241.177 43.0938 240.695 43.1641 240.148 43.1641ZM245.898 43V34.5156H247.594V35.7969H247.727C247.935 35.3438 248.242 34.9896 248.648 34.7344C249.055 34.4792 249.568 34.3516 250.188 34.3516C251.141 34.3516 251.87 34.625 252.375 35.1719C252.88 35.7188 253.133 36.4974 253.133 37.5078V43H251.43V37.9062C251.43 37.1979 251.281 36.6719 250.984 36.3281C250.693 35.9792 250.234 35.8047 249.609 35.8047C249.198 35.8047 248.841 35.8958 248.539 36.0781C248.237 36.2552 248.003 36.5104 247.836 36.8438C247.674 37.1719 247.594 37.5651 247.594 38.0234V43H245.898ZM256.039 45.9844C255.935 45.9844 255.823 45.9792 255.703 45.9688C255.583 45.9635 255.469 45.9557 255.359 45.9453V44.6094C255.443 44.6198 255.534 44.6276 255.633 44.6328C255.737 44.638 255.836 44.6406 255.93 44.6406C256.326 44.6406 256.646 44.5469 256.891 44.3594C257.135 44.1771 257.32 43.8724 257.445 43.4453L257.57 43.0078L254.492 34.5156H256.328L258.727 42.1641L258.195 41.2891H258.844L258.32 42.1641L260.711 34.5156H262.5L259.344 43.3203C259.104 43.9974 258.839 44.5286 258.547 44.9141C258.255 45.3047 257.909 45.5807 257.508 45.7422C257.107 45.9036 256.617 45.9844 256.039 45.9844ZM267.461 43.1641C266.633 43.1641 265.922 42.987 265.328 42.6328C264.734 42.2734 264.276 41.7656 263.953 41.1094C263.635 40.4531 263.477 39.6771 263.477 38.7812V38.7734C263.477 37.888 263.635 37.1146 263.953 36.4531C264.276 35.7917 264.729 35.276 265.312 34.9062C265.901 34.5365 266.589 34.3516 267.375 34.3516C268.167 34.3516 268.846 34.5286 269.414 34.8828C269.987 35.237 270.427 35.7344 270.734 36.375C271.042 37.0104 271.195 37.7552 271.195 38.6094V39.2031H264.336V37.9922H270.352L269.539 39.1172V38.4375C269.539 37.8333 269.445 37.3333 269.258 36.9375C269.076 36.5365 268.823 36.237 268.5 36.0391C268.177 35.8411 267.805 35.7422 267.383 35.7422C266.961 35.7422 266.583 35.8464 266.25 36.0547C265.922 36.2578 265.661 36.5599 265.469 36.9609C265.281 37.362 265.188 37.8542 265.188 38.4375V39.1172C265.188 39.6745 265.281 40.151 265.469 40.5469C265.656 40.9427 265.922 41.2448 266.266 41.4531C266.615 41.6615 267.026 41.7656 267.5 41.7656C267.865 41.7656 268.177 41.7161 268.438 41.6172C268.703 41.513 268.919 41.3854 269.086 41.2344C269.258 41.0833 269.375 40.9349 269.438 40.7891L269.469 40.7266H271.109L271.094 40.7969C271.021 41.0781 270.893 41.3594 270.711 41.6406C270.529 41.9167 270.286 42.1693 269.984 42.3984C269.688 42.6276 269.328 42.8125 268.906 42.9531C268.49 43.0938 268.008 43.1641 267.461 43.1641ZM273.211 43V34.5156H274.906V35.7969H275.039C275.19 35.3438 275.456 34.9922 275.836 34.7422C276.221 34.4922 276.695 34.3672 277.258 34.3672C277.398 34.3672 277.536 34.375 277.672 34.3906C277.807 34.4062 277.917 34.4245 278 34.4453V36.0078C277.849 35.9766 277.698 35.9531 277.547 35.9375C277.401 35.9219 277.247 35.9141 277.086 35.9141C276.654 35.9141 276.273 35.9974 275.945 36.1641C275.622 36.3307 275.367 36.5651 275.18 36.8672C274.997 37.1641 274.906 37.5182 274.906 37.9297V43H273.211ZM281.898 43.1406C281.362 43.1406 280.88 43.0391 280.453 42.8359C280.031 42.6276 279.698 42.3333 279.453 41.9531C279.208 41.5729 279.086 41.1276 279.086 40.6172V40.6016C279.086 40.0911 279.208 39.6562 279.453 39.2969C279.703 38.9375 280.062 38.6562 280.531 38.4531C281.005 38.2448 281.578 38.1198 282.25 38.0781L285.383 37.8906V39.0859L282.484 39.2734C281.901 39.3099 281.471 39.4349 281.195 39.6484C280.919 39.8568 280.781 40.151 280.781 40.5312V40.5469C280.781 40.9323 280.93 41.237 281.227 41.4609C281.523 41.6797 281.898 41.7891 282.352 41.7891C282.773 41.7891 283.148 41.7057 283.477 41.5391C283.81 41.3672 284.07 41.138 284.258 40.8516C284.445 40.5599 284.539 40.2318 284.539 39.8672V37.1953C284.539 36.7266 284.393 36.3698 284.102 36.125C283.815 35.875 283.388 35.75 282.82 35.75C282.346 35.75 281.958 35.8333 281.656 36C281.359 36.1667 281.161 36.401 281.062 36.7031L281.047 36.7266H279.414L279.422 36.6719C279.49 36.2031 279.674 35.7969 279.977 35.4531C280.284 35.1042 280.685 34.8333 281.18 34.6406C281.68 34.4479 282.25 34.3516 282.891 34.3516C283.604 34.3516 284.208 34.4661 284.703 34.6953C285.203 34.9193 285.581 35.2448 285.836 35.6719C286.096 36.0938 286.227 36.6016 286.227 37.1953V43H284.539V41.7969H284.414C284.247 42.0833 284.039 42.3281 283.789 42.5312C283.539 42.7292 283.255 42.8802 282.938 42.9844C282.62 43.0885 282.273 43.1406 281.898 43.1406ZM288.695 43V31.1875H290.391V35.7969H290.523C290.732 35.3438 291.039 34.9896 291.445 34.7344C291.852 34.4792 292.365 34.3516 292.984 34.3516C293.615 34.3516 294.148 34.474 294.586 34.7188C295.023 34.9635 295.357 35.3229 295.586 35.7969C295.815 36.2656 295.93 36.8359 295.93 37.5078V43H294.227V37.9062C294.227 37.1979 294.078 36.6719 293.781 36.3281C293.49 35.9792 293.031 35.8047 292.406 35.8047C291.995 35.8047 291.638 35.8958 291.336 36.0781C291.034 36.2552 290.799 36.5104 290.633 36.8438C290.471 37.1719 290.391 37.5651 290.391 38.0234V43H288.695ZM298.898 39.2656L298.734 31.7188H300.641L300.484 39.2656H298.898ZM299.695 43.1719C299.331 43.1719 299.036 43.0651 298.812 42.8516C298.594 42.638 298.484 42.3568 298.484 42.0078C298.484 41.6536 298.594 41.3698 298.812 41.1562C299.036 40.9375 299.331 40.8281 299.695 40.8281C300.055 40.8281 300.344 40.9375 300.562 41.1562C300.786 41.3698 300.898 41.6536 300.898 42.0078C300.898 42.3568 300.786 42.638 300.562 42.8516C300.344 43.0651 300.055 43.1719 299.695 43.1719Z" fill="#0F2D3E"/>
<rect x="4" y="2" width="70" height="70" rx="35" fill="#FFDEA8"/>
<path d="M38.374 43.8924C38.1576 43.7142 37.5021 43.1437 37.4483 42.1455C37.3944 41.1473 37.5602 40.969 37.6647 40.7907C37.7691 40.6125 38.1637 40.2861 38.8549 40.1966C39.3939 40.1767 39.7067 40.2124 40.088 40.3328C40.261 40.3875 40.4289 40.4635 40.5689 40.5788C41.07 40.9914 41.1882 41.582 41.1392 42.2524C41.067 43.2388 40.49 43.7242 40.0211 44.0112C39.2464 44.4855 38.5904 44.0707 38.374 43.8924Z" fill="#212121"/>
<path d="M32.6512 39.1392V39.1392C33.4811 39.8153 33.199 41.1467 32.1662 41.4281L32.0621 41.4565" stroke="#0F2D3E" stroke-width="3" stroke-linecap="round"/>
<path d="M45.5635 39.1392V39.1392C44.7336 39.8153 45.0157 41.1467 46.0485 41.4281L46.1526 41.4565" stroke="#0F2D3E" stroke-width="3" stroke-linecap="round"/>
<path d="M39.2998 26.9419C46.8805 26.9419 52.869 32.0646 53.4072 37.5981C53.4067 40.3771 52.9422 43.0821 50.9697 45.0972C48.9955 47.114 45.4802 48.4722 39.2998 48.4722C33.1164 48.4722 29.6308 47.2109 27.6875 45.2915C25.7478 43.3755 25.312 40.7709 25.3115 37.9907C25.8622 32.5544 31.7289 26.9419 39.2998 26.9419Z" fill="#FFFBF6" stroke="#0F2D3E" stroke-width="0.3" stroke-linejoin="round"/>
<path d="M35.9334 26.8153L36.0777 27.2432L37.1958 27.0292L38.7467 26.9223H39.3959L40.7304 26.9698L42.4496 27.1481L42.63 26.9223C42.7007 26.8206 42.7289 26.7521 42.7743 26.6252C42.8311 26.4827 42.8511 26.3933 42.8704 26.2212C42.8803 26.0635 42.8879 25.978 42.8704 25.7815C42.861 25.6875 42.8508 25.632 42.8103 25.52C42.7501 25.3983 42.7077 25.3307 42.618 25.211C42.5379 25.1201 42.4865 25.0717 42.3655 24.9971C42.2304 24.9309 42.159 24.8915 41.9687 24.8545C41.795 24.8267 41.6976 24.8196 41.5239 24.8545C41.3955 24.877 41.3248 24.9054 41.1993 24.9615L40.8867 25.1278L40.7495 25.2113C40.6505 25.2715 40.5218 25.2456 40.4539 25.1516L40.3096 24.9258C40.2565 24.8456 40.2189 24.8044 40.1413 24.7357C39.9945 24.6296 39.9159 24.5673 39.7205 24.498C39.6362 24.4669 39.5878 24.4512 39.4921 24.4386C39.3465 24.4249 39.2649 24.4208 39.1194 24.4386C39.0116 24.4557 38.9511 24.4564 38.8429 24.5099C38.7371 24.5563 38.6787 24.5895 38.5784 24.6763C38.4471 24.7895 38.3754 24.8619 38.2538 25.0209C38.1204 25.1874 37.889 25.2387 37.6977 25.1442L37.6166 25.1041C37.4479 25.011 37.3403 24.9916 37.1717 24.9734C36.998 24.9553 36.9006 24.9512 36.7269 24.9734C36.4511 25.0253 36.2895 25.078 36.0777 25.3774C35.9424 25.601 35.8742 25.7236 35.8492 26.0785C35.8429 26.3984 35.8599 26.5609 35.9334 26.8153Z" fill="#FFFBF6" stroke="#0F2D3E" stroke-width="0.3"/>
<path d="M32.2424 37.8436C32.4588 37.7485 32.6752 37.7129 32.8195 37.7129C33.0571 37.7248 33.1562 37.7179 33.3846 37.8198C33.613 37.9218 33.652 37.9823 33.8655 38.2001" stroke="#0F2D3E" stroke-width="0.3" stroke-linecap="round"/>
<path d="M45.852 38.0814C45.6356 37.9863 45.4192 37.9507 45.275 37.9507C45.0373 37.9626 44.9383 37.9557 44.7099 38.0576C44.4815 38.1596 44.4425 38.22 44.229 38.4379" stroke="#0F2D3E" stroke-width="0.3" stroke-linecap="round"/>
<path d="M47.7382 48.4439C47.7618 47.9752 47.7571 47.7124 47.7382 47.2437C46.9134 47.5119 46.4234 47.6568 45.5193 47.9091C45.464 48.3695 45.4072 48.7369 45.466 49.1569C45.5655 49.5555 45.6668 49.8937 45.8627 50.0958C46.1392 50.381 46.4158 50.5473 46.8606 50.4879C47.3415 50.3215 47.4368 50.0824 47.5819 49.6561C47.7086 49.1124 47.7412 48.8476 47.7382 48.4439Z" fill="#FFFBF6" stroke="#0F2D3E" stroke-width="0.3" stroke-linecap="round"/>
<path d="M31.0201 48.3962C30.9965 47.9274 31.0012 47.8667 31.0201 47.3979L33.2923 47.9803C33.3477 48.4406 33.2923 48.6814 33.2442 49.1211C33.1601 49.4657 33.1721 49.6083 32.8956 50.048C32.6789 50.3927 32.3425 50.4996 31.8977 50.4402C31.4529 50.3808 31.2966 50.0005 31.1764 49.6083C31.0497 49.0647 31.0535 49.0617 31.0201 48.3962Z" fill="#FFFBF6" stroke="#0F2D3E" stroke-width="0.3" stroke-linecap="round"/>
<path d="M37.376 41.7177C37.3989 41.0427 37.5548 40.7356 38.2536 40.3986C39.1274 40.0461 39.9248 40.1728 40.3335 40.3986C40.7423 40.6243 41.0789 41.0878 41.115 41.7177C41.1511 42.3475 40.9348 43.1675 40.5381 43.6072C40.1113 44.0802 39.576 44.4034 39.0471 44.2846C38.5183 44.1657 38.4133 43.9399 38.1695 43.631C37.9257 43.322 37.353 42.3926 37.376 41.7177Z" fill="#0F2D3E" stroke="#0F2D3E" stroke-linecap="round"/>
<ellipse cx="31.6413" cy="40.6364" rx="1.76732" ry="0.926933" fill="#FFC1C3"/>
<ellipse cx="46.8139" cy="40.6364" rx="1.76732" ry="0.926933" fill="#FFC1C3"/>
<path d="M32.6272 39.1152L34.1845 40.3689C34.3739 40.5213 34.3128 40.8239 34.0792 40.8909L32.026 41.4801" stroke="#0F2D3E" stroke-width="0.3" stroke-linecap="round"/>
<path d="M45.5875 39.1392L44.0302 40.3928C43.8408 40.5452 43.9019 40.8478 44.1355 40.9148L46.1887 41.504" stroke="#0F2D3E" stroke-width="0.3" stroke-linecap="round"/>
<path d="M40.3577 27.814C40.778 28.9867 41.3125 29.3566 42.7382 29.5609" stroke="#F5E3CD" stroke-width="0.3" stroke-linecap="round"/>
<path d="M38.951 28.0635C38.733 28.862 38.795 29.3211 39.2516 30.155" stroke="#F5E3CD" stroke-width="0.3" stroke-linecap="round"/>
<path d="M37.8089 27.9087C37.017 28.8658 36.464 29.2531 35.3082 29.715" stroke="#F5E3CD" stroke-width="0.3" stroke-linecap="round"/>
<path d="M37.4483 42.2525C37.316 41.7415 37.3881 41.2424 37.4483 41.1592C37.5084 41.0761 37.9532 41.0998 37.9532 41.0998C37.9532 41.0998 38.2951 41.1086 38.5062 41.1592C38.7113 41.2084 38.8306 41.2415 39.0112 41.3494C39.2641 41.5005 39.3237 41.5395 39.5402 41.8842C39.7566 42.2288 39.8407 42.8943 39.8408 43.227C39.8408 43.5598 39.6844 44.2015 39.5763 44.2728C39.4681 44.3441 39.0353 44.3203 38.7587 44.2015C38.4822 44.0826 38.1696 43.6667 38.0494 43.4885C37.9292 43.3102 37.5805 42.7635 37.4483 42.2525Z" fill="#FFC1C3" stroke="#FFC1C3" stroke-linecap="round"/>
<path d="M23.7382 28.2558L25.767 29.3507C26.2189 29.5946 26.0543 30.203 25.545 30.1373C24.7989 30.0412 24.0344 29.8954 23.1717 29.7418C22.8752 29.689 22.686 29.3876 22.7889 29.1045C22.8912 28.8234 22.9956 28.6015 23.1375 28.3863C23.2676 28.1892 23.5304 28.1437 23.7382 28.2558Z" fill="white" stroke="#0F2D3E" stroke-width="0.3" stroke-linecap="round"/>
<path d="M52.4743 25.1052L50.9377 27.8816C50.7083 28.2961 50.1184 28.1813 50.1006 27.7073C50.0667 26.8056 50.1187 25.8875 50.1596 24.8205C50.1699 24.5515 50.3901 24.337 50.6595 24.3441C51.1767 24.3577 51.8004 24.3993 52.2613 24.5168C52.5202 24.5829 52.6034 24.872 52.4743 25.1052Z" fill="white" stroke="#0F2D3E" stroke-width="0.3" stroke-linecap="round"/>
<path d="M55.2214 27.6514L52.444 29.2229C52.029 29.4577 51.5852 29.0547 51.8207 28.6419C52.2687 27.8562 52.7986 27.1008 53.3977 26.2129C53.5487 25.9891 53.8503 25.9204 54.0767 26.0661C54.5105 26.3452 55.02 26.7031 55.3503 27.0414C55.5359 27.2314 55.4542 27.5197 55.2214 27.6514Z" fill="white" stroke="#0F2D3E" stroke-width="0.3" stroke-linecap="round"/>
<path d="M56.2024 31.2234L52.941 30.9977C52.4409 30.9631 52.32 30.3587 52.7814 30.1667C53.5928 29.8289 54.5059 29.4763 55.4207 29.0711C55.6683 28.9615 55.9624 29.0607 56.0792 29.3039C56.2985 29.7605 56.5395 30.32 56.6436 30.7753C56.7039 31.0392 56.475 31.2422 56.2024 31.2234Z" fill="white" stroke="#0F2D3E" stroke-width="0.3" stroke-linecap="round"/>
<path d="M25.962 25.5012L26.9559 27.57C27.1768 28.0299 26.6832 28.4229 26.3092 28.0735C25.7609 27.5615 25.2275 26.9984 24.6189 26.3716C24.41 26.1565 24.4345 25.8043 24.6845 25.6358C24.9348 25.467 25.1514 25.3476 25.3942 25.2556C25.6174 25.1709 25.8596 25.2881 25.962 25.5012Z" fill="white" stroke="#0F2D3E" stroke-width="0.3" stroke-linecap="round"/>
<path d="M29.1656 24.5765L29.1656 27.6094C29.1656 28.1252 28.5863 28.2432 28.4265 27.7514C28.1156 26.7949 27.8458 25.7384 27.5561 24.7605C27.4712 24.4738 27.6511 24.1717 27.949 24.1327C28.2543 24.0927 28.5051 24.0826 28.7677 24.1097C29.0021 24.1339 29.1656 24.3427 29.1656 24.5765Z" fill="white" stroke="#0F2D3E" stroke-width="0.3" stroke-linecap="round"/>
<path d="M23.5381 35.0747C24.4299 34.697 25.0246 34.6993 26.171 34.8965C26.3502 34.9154 26.3656 34.964 26.3393 35.0747L26.171 35.7283C26.1026 35.8671 26.1548 35.9304 26.4235 36.0135C26.732 36.091 27.0264 36.2095 27.6618 36.4889C27.9299 36.5952 27.9769 36.6941 27.8422 36.9524L27.4574 37.3445C27.3054 37.4755 27.2879 37.557 27.3613 37.7129C27.6265 38.1588 27.8013 38.6993 27.8422 38.9013C27.8831 39.1033 27.9298 39.1761 27.6618 39.2459L27.2531 39.3172C27.0387 39.3343 26.9876 39.3922 26.9645 39.543L27.0246 40.7908L27.0242 40.8C27.0163 40.9768 27.0117 41.0787 26.7601 41.1236H26.2552C26.0678 41.1336 26.0074 41.1834 25.9426 41.3137C25.8521 41.4449 25.8002 41.5657 25.7021 41.9792C25.6528 42.1862 25.5664 42.2571 25.3655 42.3476C25.1482 42.3757 25.0224 42.3774 24.7884 42.3476C24.4972 42.3213 24.3277 42.2642 24.007 42.0386C23.8234 41.9188 23.7207 41.909 23.5381 41.9792L22.6845 42.4783C22.4469 42.5528 22.3275 42.5458 22.1675 42.3476L21.7106 41.7415C21.6061 41.6365 21.5316 41.6047 21.362 41.6108L20.6046 41.6702C20.4522 41.6571 20.4036 41.6091 20.3881 41.4444L20.328 40.4105C20.2834 40.1927 20.2329 40.0902 19.9072 40.0897H19.4143C19.1791 40.1002 19.0536 40.0303 19.1618 39.7926L19.4864 38.9013C19.5511 38.7141 19.5653 38.6155 19.3061 38.521L18.6689 38.2358C18.5062 38.0906 18.4587 38.0097 18.5367 37.8674C18.9505 37.1397 19.1679 36.7139 19.9072 36.3819C20.0845 36.2684 20.1213 36.1877 20.0756 36.0135C20.0575 35.8394 20.02 35.6699 19.9072 35.253C19.8954 35.072 19.9586 34.9981 20.328 34.9678L21.4702 34.6826C21.9953 34.5611 22.2937 34.5837 22.8408 34.9678C23.0862 35.2149 23.2418 35.2161 23.5381 35.0747Z" fill="#F3C430" stroke="#0F2D3E" stroke-width="0.3"/>
<path d="M50.2884 37.3801L51.2502 36.2986C51.4405 36.0758 51.4934 35.9885 51.5507 35.8589C51.5366 35.4853 51.4185 35.1103 51.6589 35.0152C51.8994 34.9201 52.1365 35.0362 52.3322 34.7537C52.4384 34.5839 52.528 34.558 52.741 34.6349C53.0415 34.6071 53.27 34.6349 53.5104 34.5636C53.7509 34.4923 53.8527 34.5402 53.9793 34.6943L54.34 35.1103C54.5311 35.2691 54.6816 35.2673 54.9892 35.1816C55.8296 34.9813 56.3369 34.9379 57.2735 34.9201C57.5253 34.8882 57.6063 34.9159 57.5741 35.0984L57.4779 35.7044C57.4238 35.945 57.4779 35.954 57.8025 36.0847C58.1271 36.2154 59.1971 36.6908 59.1971 36.6908C59.4877 36.8253 59.6115 36.9058 59.3775 37.1067L58.8605 37.5108C58.7898 37.5625 58.8605 37.5108 58.9927 37.8198C59.125 38.1287 59.3174 38.6695 59.3775 39.0319C59.4376 39.3943 59.39 39.3147 59.2572 39.329H58.8605C58.637 39.3174 58.6922 39.3765 58.6922 39.5785V40.8382C58.674 41.1091 58.6315 41.2014 58.4758 41.2185H57.9949C57.7529 41.2228 57.6479 41.2604 57.5741 41.4562L57.1773 42.0504C56.9946 42.279 56.8423 42.3294 56.468 42.2643L55.8308 42.0504C55.5731 41.9529 55.4426 41.9494 55.2417 42.0504L54.2919 42.5614C54.0919 42.6157 54.0104 42.5803 53.8831 42.4782L53.3782 41.9315C53.1748 41.7559 53.0517 41.6934 52.8011 41.7057H52.1038C51.9287 41.7191 51.8935 41.6534 51.8994 41.4562V40.5768C51.9031 40.3466 51.8564 40.2605 51.6589 40.2084L51.0578 40.1252C50.8402 40.0422 50.7731 39.9604 50.8174 39.7093L51.0578 38.7586C51.0606 38.5947 51.0172 38.5252 50.8895 38.4258L50.2884 37.9861C50.1086 37.7495 50.0919 37.6168 50.2884 37.3801Z" fill="#F3C430" stroke="#0F2D3E" stroke-width="0.3"/>
<path d="M36.5622 27.5609C36.4345 27.5701 36.3265 27.2927 36.1189 26.6829C38.2599 26.1888 40.3671 26.2564 42.546 26.5731C42.5372 26.7963 42.2254 27.1118 42.0697 27.5609H36.5622Z" fill="#FFFBF6"/>
</g>
<defs>
<filter id="filter0_d_640_9233" x="0" y="0" width="326" height="78" filterUnits="userSpaceOnUse" color-interpolation-filters="sRGB">
<feFlood flood-opacity="0" result="BackgroundImageFix"/>
<feColorMatrix in="SourceAlpha" type="matrix" values="0 0 0 0 0 0 0 0 0 0 0 0 0 0 0 0 0 0 127 0" result="hardAlpha"/>
<feOffset dy="2"/>
<feGaussianBlur stdDeviation="2"/>
<feComposite in2="hardAlpha" operator="out"/>
<feColorMatrix type="matrix" values="0 0 0 0 0 0 0 0 0 0 0 0 0 0 0 0 0 0 0.25 0"/>
<feBlend mode="normal" in2="BackgroundImageFix" result="effect1_dropShadow_640_9233"/>
<feBlend mode="normal" in="SourceGraphic" in2="effect1_dropShadow_640_9233" result="shape"/>
</filter>
</defs>
</svg>
